<svg version="1.1" xmlns="http://www.w3.org/2000/svg" xmlns:xlink="http://www.w3.org/1999/xlink" width="341" height="364"><defs/><g><text fill="#eeeeee" stroke="none" font-family="Arial" font-size="24px" font-style="normal" font-weight="normal" text-decoration="none" x="0" y="0">UNREGISTERED</text><text fill="#eeeeee" stroke="none" font-family="Arial" font-size="24px" font-style="normal" font-weight="normal" text-decoration="none" x="0" y="30">UNREGISTERED</text><text fill="#eeeeee" stroke="none" font-family="Arial" font-size="24px" font-style="normal" font-weight="normal" text-decoration="none" x="0" y="60">UNREGISTERED</text><text fill="#eeeeee" stroke="none" font-family="Arial" font-size="24px" font-style="normal" font-weight="normal" text-decoration="none" x="0" y="90">UNREGISTERED</text><text fill="#eeeeee" stroke="none" font-family="Arial" font-size="24px" font-style="normal" font-weight="normal" text-decoration="none" x="0" y="120">UNREGISTERED</text><text fill="#eeeeee" stroke="none" font-family="Arial" font-size="24px" font-style="normal" font-weight="normal" text-decoration="none" x="0" y="150">UNREGISTERED</text><text fill="#eeeeee" stroke="none" font-family="Arial" font-size="24px" font-style="normal" font-weight="normal" text-decoration="none" x="0" y="180">UNREGISTERED</text><text fill="#eeeeee" stroke="none" font-family="Arial" font-size="24px" font-style="normal" font-weight="normal" text-decoration="none" x="0" y="210">UNREGISTERED</text><text fill="#eeeeee" stroke="none" font-family="Arial" font-size="24px" font-style="normal" font-weight="normal" text-decoration="none" x="0" y="240">UNREGISTERED</text><text fill="#eeeeee" stroke="none" font-family="Arial" font-size="24px" font-style="normal" font-weight="normal" text-decoration="none" x="0" y="270">UNREGISTERED</text><text fill="#eeeeee" stroke="none" font-family="Arial" font-size="24px" font-style="normal" font-weight="normal" text-decoration="none" x="0" y="300">UNREGISTERED</text><text fill="#eeeeee" stroke="none" font-family="Arial" font-size="24px" font-style="normal" font-weight="normal" text-decoration="none" x="0" y="330">UNREGISTERED</text><text fill="#eeeeee" stroke="none" font-family="Arial" font-size="24px" font-style="normal" font-weight="normal" text-decoration="none" x="0" y="360">UNREGISTERED</text><text fill="#eeeeee" stroke="none" font-family="Arial" font-size="24px" font-style="normal" font-weight="normal" text-decoration="none" x="200" y="0">UNREGISTERED</text><text fill="#eeeeee" stroke="none" font-family="Arial" font-size="24px" font-style="normal" font-weight="normal" text-decoration="none" x="200" y="30">UNREGISTERED</text><text fill="#eeeeee" stroke="none" font-family="Arial" font-size="24px" font-style="normal" font-weight="normal" text-decoration="none" x="200" y="60">UNREGISTERED</text><text fill="#eeeeee" stroke="none" font-family="Arial" font-size="24px" font-style="normal" font-weight="normal" text-decoration="none" x="200" y="90">UNREGISTERED</text><text fill="#eeeeee" stroke="none" font-family="Arial" font-size="24px" font-style="normal" font-weight="normal" text-decoration="none" x="200" y="120">UNREGISTERED</text><text fill="#eeeeee" stroke="none" font-family="Arial" font-size="24px" font-style="normal" font-weight="normal" text-decoration="none" x="200" y="150">UNREGISTERED</text><text fill="#eeeeee" stroke="none" font-family="Arial" font-size="24px" font-style="normal" font-weight="normal" text-decoration="none" x="200" y="180">UNREGISTERED</text><text fill="#eeeeee" stroke="none" font-family="Arial" font-size="24px" font-style="normal" font-weight="normal" text-decoration="none" x="200" y="210">UNREGISTERED</text><text fill="#eeeeee" stroke="none" font-family="Arial" font-size="24px" font-style="normal" font-weight="normal" text-decoration="none" x="200" y="240">UNREGISTERED</text><text fill="#eeeeee" stroke="none" font-family="Arial" font-size="24px" font-style="normal" font-weight="normal" text-decoration="none" x="200" y="270">UNREGISTERED</text><text fill="#eeeeee" stroke="none" font-family="Arial" font-size="24px" font-style="normal" font-weight="normal" text-decoration="none" x="200" y="300">UNREGISTERED</text><text fill="#eeeeee" stroke="none" font-family="Arial" font-size="24px" font-style="normal" font-weight="normal" text-decoration="none" x="200" y="330">UNREGISTERED</text><text fill="#eeeeee" stroke="none" font-family="Arial" font-size="24px" font-style="normal" font-weight="normal" text-decoration="none" x="200" y="360">UNREGISTERED</text><g transform="translate(-30,2) scale(1,1)"><path fill="#C0C0C0" stroke="none" d="M 169 63 L 310.419921875 63 Q 320.419921875 63 320.419921875 73 L 320.419921875 93 Q 320.419921875 103 310.419921875 103 L 169 103 Q 159 103 159 93 L 159 73 Q 159 63 169 63 Z" opacity="0.2"/></g><g transform="translate(-30,2) scale(1,1)"><path fill="#ffffff" stroke="none" d="M 162 56 L 303.419921875 56 Q 313.419921875 56 313.419921875 66 L 313.419921875 86 Q 313.419921875 96 303.419921875 96 L 162 96 Q 152 96 152 86 L 152 66 Q 152 56 162 56 Z"/></g><g transform="translate(-30,2) scale(1,1)"><path fill="none" stroke="#000000" d="M 162 56 L 303.419921875 56 Q 313.419921875 56 313.419921875 66 L 313.419921875 86 Q 313.419921875 96 303.419921875 96 L 162 96 Q 152 96 152 86 L 152 66 Q 152 56 162 56 Z" stroke-miterlimit="10"/></g><g transform="translate(-30,2) scale(1,1)"><g><path fill="none" stroke="none"/><text fill="#000000" stroke="none" font-family="Arial" font-size="13px" font-style="normal" font-weight="bold" text-decoration="none" x="162.622314453125" y="75.5">Requirements Elicitation</text></g></g><g transform="translate(-30,2) scale(1,1)"><path fill="#C0C0C0" stroke="none" d="M 217 127 L 259.47265625 127 Q 269.47265625 127 269.47265625 137 L 269.47265625 157 Q 269.47265625 167 259.47265625 167 L 217 167 Q 207 167 207 157 L 207 137 Q 207 127 217 127 Z" opacity="0.2"/></g><g transform="translate(-30,2) scale(1,1)"><path fill="#ffffff" stroke="none" d="M 210 120 L 252.47265625 120 Q 262.47265625 120 262.47265625 130 L 262.47265625 150 Q 262.47265625 160 252.47265625 160 L 210 160 Q 200 160 200 150 L 200 130 Q 200 120 210 120 Z"/></g><g transform="translate(-30,2) scale(1,1)"><path fill="none" stroke="#000000" d="M 210 120 L 252.47265625 120 Q 262.47265625 120 262.47265625 130 L 262.47265625 150 Q 262.47265625 160 252.47265625 160 L 210 160 Q 200 160 200 150 L 200 130 Q 200 120 210 120 Z" stroke-miterlimit="10"/></g><g transform="translate(-30,2) scale(1,1)"><g><path fill="none" stroke="none"/><text fill="#000000" stroke="none" font-family="Arial" font-size="13px" font-style="normal" font-weight="bold" text-decoration="none" x="207.03271484375" y="139.5">Analysis</text></g></g><g transform="translate(-30,2) scale(1,1)"><path fill="none" stroke="#000000" d="M 232 97 L 231 119" stroke-miterlimit="10"/></g><g transform="translate(-30,2) scale(1,1)"><path fill="none" stroke="#000000" d="M 227.25628748624487 108.65666317795107 L 231 119 L 235.6666391016781 109.0389518877435" stroke-miterlimit="10"/></g><g transform="translate(-30,2) scale(1,1)"><path fill="#C0C0C0" stroke="none" d="M 193 191 L 275.20263671875 191 Q 285.20263671875 191 285.20263671875 201 L 285.20263671875 221 Q 285.20263671875 231 275.20263671875 231 L 193 231 Q 183 231 183 221 L 183 201 Q 183 191 193 191 Z" opacity="0.2"/></g><g transform="translate(-30,2) scale(1,1)"><path fill="#ffffff" stroke="none" d="M 186 184 L 268.20263671875 184 Q 278.20263671875 184 278.20263671875 194 L 278.20263671875 214 Q 278.20263671875 224 268.20263671875 224 L 186 224 Q 176 224 176 214 L 176 194 Q 176 184 186 184 Z"/></g><g transform="translate(-30,2) scale(1,1)"><path fill="none" stroke="#000000" d="M 186 184 L 268.20263671875 184 Q 278.20263671875 184 278.20263671875 194 L 278.20263671875 214 Q 278.20263671875 224 268.20263671875 224 L 186 224 Q 176 224 176 214 L 176 194 Q 176 184 186 184 Z" stroke-miterlimit="10"/></g><g transform="translate(-30,2) scale(1,1)"><g><path fill="none" stroke="none"/><text fill="#000000" stroke="none" font-family="Arial" font-size="13px" font-style="normal" font-weight="bold" text-decoration="none" x="183.391357421875" y="203.5">System Design</text></g></g><g transform="translate(-30,2) scale(1,1)"><path fill="none" stroke="#000000" d="M 230 161 L 228 183" stroke-miterlimit="10"/></g><g transform="translate(-30,2) scale(1,1)"><path fill="none" stroke="#000000" d="M 224.72785521430106 172.49794931923182 L 228 183 L 233.11231548574403 173.2601729802721" stroke-miterlimit="10"/></g><g transform="translate(-30,2) scale(1,1)"><path fill="#C0C0C0" stroke="none" d="M 193 255 L 269.4072265625 255 Q 279.4072265625 255 279.4072265625 265 L 279.4072265625 285 Q 279.4072265625 295 269.4072265625 295 L 193 295 Q 183 295 183 285 L 183 265 Q 183 255 193 255 Z" opacity="0.2"/></g><g transform="translate(-30,2) scale(1,1)"><path fill="#ffffff" stroke="none" d="M 186 248 L 262.4072265625 248 Q 272.4072265625 248 272.4072265625 258 L 272.4072265625 278 Q 272.4072265625 288 262.4072265625 288 L 186 288 Q 176 288 176 278 L 176 258 Q 176 248 186 248 Z"/></g><g transform="translate(-30,2) scale(1,1)"><path fill="none" stroke="#000000" d="M 186 248 L 262.4072265625 248 Q 272.4072265625 248 272.4072265625 258 L 272.4072265625 278 Q 272.4072265625 288 262.4072265625 288 L 186 288 Q 176 288 176 278 L 176 258 Q 176 248 186 248 Z" stroke-miterlimit="10"/></g><g transform="translate(-30,2) scale(1,1)"><g><path fill="none" stroke="none"/><text fill="#000000" stroke="none" font-family="Arial" font-size="13px" font-style="normal" font-weight="bold" text-decoration="none" x="183.378662109375" y="267.5">Object Design</text></g></g><g transform="translate(-30,2) scale(1,1)"><path fill="none" stroke="#000000" d="M 226 225 L 225 247" stroke-miterlimit="10"/></g><g transform="translate(-30,2) scale(1,1)"><path fill="none" stroke="#000000" d="M 221.25628748624487 236.6566631779511 L 225 247 L 229.6666391016781 237.0389518877435" stroke-miterlimit="10"/></g><g transform="translate(-30,2) scale(1,1)"><path fill="#C0C0C0" stroke="none" d="M 193 319 L 278.0654296875 319 Q 288.0654296875 319 288.0654296875 329 L 288.0654296875 349 Q 288.0654296875 359 278.0654296875 359 L 193 359 Q 183 359 183 349 L 183 329 Q 183 319 193 319 Z" opacity="0.2"/></g><g transform="translate(-30,2) scale(1,1)"><path fill="#ffffff" stroke="none" d="M 186 312 L 271.0654296875 312 Q 281.0654296875 312 281.0654296875 322 L 281.0654296875 342 Q 281.0654296875 352 271.0654296875 352 L 186 352 Q 176 352 176 342 L 176 322 Q 176 312 186 312 Z"/></g><g transform="translate(-30,2) scale(1,1)"><path fill="none" stroke="#000000" d="M 186 312 L 271.0654296875 312 Q 281.0654296875 312 281.0654296875 322 L 281.0654296875 342 Q 281.0654296875 352 271.0654296875 352 L 186 352 Q 176 352 176 342 L 176 322 Q 176 312 186 312 Z" stroke-miterlimit="10"/></g><g transform="translate(-30,2) scale(1,1)"><g><path fill="none" stroke="none"/><text fill="#000000" stroke="none" font-family="Arial" font-size="13px" font-style="normal" font-weight="bold" text-decoration="none" x="184.0927734375" y="331.5">Implementation</text></g></g><g transform="translate(-30,2) scale(1,1)"><path fill="none" stroke="#000000" d="M 225 289 L 227 311" stroke-miterlimit="10"/></g><g transform="translate(-30,2) scale(1,1)"><path fill="none" stroke="#000000" d="M 221.88768451425594 301.2601729802721 L 227 311 L 230.27214478569894 300.49794931923185" stroke-miterlimit="10"/></g><g transform="translate(-30,2) scale(1,1)"><g><path fill="none" stroke="none"/><text fill="#000000" stroke="none" font-family="Arial" font-size="13px" font-style="normal" font-weight="normal" text-decoration="none" x="45" y="26">Sequential activities</text></g></g><g transform="translate(-30,2) scale(1,1)"><path fill="#C0C0C0" stroke="none" d="M 87 80.5 C 87 75.2532944 91.2532944 71 96.5 71 C 101.7467056 71 106 75.2532944 106 80.5 C 106 85.7467056 101.7467056 90 96.5 90 C 91.2532944 90 87 85.7467056 87 80.5 Z" opacity="0.2"/></g><g transform="translate(-30,2) scale(1,1)"><path fill="#000000" stroke="none" d="M 80 73.5 C 80 68.2532944 84.2532944 64 89.5 64 C 94.7467056 64 99 68.2532944 99 73.5 C 99 78.7467056 94.7467056 83 89.5 83 C 84.2532944 83 80 78.7467056 80 73.5 Z"/></g><g transform="translate(-30,2) scale(1,1)"><path fill="#C0C0C0" stroke="none" d="M 343 339.5 C 343 332.59644 348.59644 327 355.5 327 C 362.40356 327 368 332.59644 368 339.5 C 368 346.40356 362.40356 352 355.5 352 C 348.59644 352 343 346.40356 343 339.5 Z" opacity="0.2"/></g><g transform="translate(-30,2) scale(1,1)"><path fill="none" stroke="#000000" d="M 336 332.5 C 336 325.59644 341.59644 320 348.5 320 C 355.40356 320 361 325.59644 361 332.5 C 361 339.40356 355.40356 345 348.5 345 C 341.59644 345 336 339.40356 336 332.5 Z" stroke-miterlimit="10"/></g><g transform="translate(-30,2) scale(1,1)"><path fill="#000000" stroke="none" d="M 341 332.5 C 341 328.357864 344.357864 325 348.5 325 C 352.642136 325 356 328.357864 356 332.5 C 356 336.642136 352.642136 340 348.5 340 C 344.357864 340 341 336.642136 341 332.5 Z"/></g><g transform="translate(-30,2) scale(1,1)"><path fill="none" stroke="#000000" d="M 100 73 L 151 74" stroke-miterlimit="10"/></g><g transform="translate(-30,2) scale(1,1)"><path fill="none" stroke="#000000" d="M 140.7567544868664 78.00947893842438 L 151 74 L 140.92180188992006 69.59206138268908" stroke-miterlimit="10"/></g><g transform="translate(-30,2) scale(1,1)"><path fill="none" stroke="#000000" d="M 282 332 L 335 332" stroke-miterlimit="10"/></g><g transform="translate(-30,2) scale(1,1)"><path fill="none" stroke="#000000" d="M 324.83732514237585 336.209517756016 L 335 332 L 324.83732514237585 327.790482243984" stroke-miterlimit="10"/></g></g></svg>