<svg version="1.1" xmlns="http://www.w3.org/2000/svg" xmlns:xlink="http://www.w3.org/1999/xlink" width="551.9072265625" height="508"><defs/><g><text fill="#eeeeee" stroke="none" font-family="Arial" font-size="24px" font-style="normal" font-weight="normal" text-decoration="none" x="0" y="0">UNREGISTERED</text><text fill="#eeeeee" stroke="none" font-family="Arial" font-size="24px" font-style="normal" font-weight="normal" text-decoration="none" x="0" y="30">UNREGISTERED</text><text fill="#eeeeee" stroke="none" font-family="Arial" font-size="24px" font-style="normal" font-weight="normal" text-decoration="none" x="0" y="60">UNREGISTERED</text><text fill="#eeeeee" stroke="none" font-family="Arial" font-size="24px" font-style="normal" font-weight="normal" text-decoration="none" x="0" y="90">UNREGISTERED</text><text fill="#eeeeee" stroke="none" font-family="Arial" font-size="24px" font-style="normal" font-weight="normal" text-decoration="none" x="0" y="120">UNREGISTERED</text><text fill="#eeeeee" stroke="none" font-family="Arial" font-size="24px" font-style="normal" font-weight="normal" text-decoration="none" x="0" y="150">UNREGISTERED</text><text fill="#eeeeee" stroke="none" font-family="Arial" font-size="24px" font-style="normal" font-weight="normal" text-decoration="none" x="0" y="180">UNREGISTERED</text><text fill="#eeeeee" stroke="none" font-family="Arial" font-size="24px" font-style="normal" font-weight="normal" text-decoration="none" x="0" y="210">UNREGISTERED</text><text fill="#eeeeee" stroke="none" font-family="Arial" font-size="24px" font-style="normal" font-weight="normal" text-decoration="none" x="0" y="240">UNREGISTERED</text><text fill="#eeeeee" stroke="none" font-family="Arial" font-size="24px" font-style="normal" font-weight="normal" text-decoration="none" x="0" y="270">UNREGISTERED</text><text fill="#eeeeee" stroke="none" font-family="Arial" font-size="24px" font-style="normal" font-weight="normal" text-decoration="none" x="0" y="300">UNREGISTERED</text><text fill="#eeeeee" stroke="none" font-family="Arial" font-size="24px" font-style="normal" font-weight="normal" text-decoration="none" x="0" y="330">UNREGISTERED</text><text fill="#eeeeee" stroke="none" font-family="Arial" font-size="24px" font-style="normal" font-weight="normal" text-decoration="none" x="0" y="360">UNREGISTERED</text><text fill="#eeeeee" stroke="none" font-family="Arial" font-size="24px" font-style="normal" font-weight="normal" text-decoration="none" x="0" y="390">UNREGISTERED</text><text fill="#eeeeee" stroke="none" font-family="Arial" font-size="24px" font-style="normal" font-weight="normal" text-decoration="none" x="0" y="420">UNREGISTERED</text><text fill="#eeeeee" stroke="none" font-family="Arial" font-size="24px" font-style="normal" font-weight="normal" text-decoration="none" x="0" y="450">UNREGISTERED</text><text fill="#eeeeee" stroke="none" font-family="Arial" font-size="24px" font-style="normal" font-weight="normal" text-decoration="none" x="0" y="480">UNREGISTERED</text><text fill="#eeeeee" stroke="none" font-family="Arial" font-size="24px" font-style="normal" font-weight="normal" text-decoration="none" x="200" y="0">UNREGISTERED</text><text fill="#eeeeee" stroke="none" font-family="Arial" font-size="24px" font-style="normal" font-weight="normal" text-decoration="none" x="200" y="30">UNREGISTERED</text><text fill="#eeeeee" stroke="none" font-family="Arial" font-size="24px" font-style="normal" font-weight="normal" text-decoration="none" x="200" y="60">UNREGISTERED</text><text fill="#eeeeee" stroke="none" font-family="Arial" font-size="24px" font-style="normal" font-weight="normal" text-decoration="none" x="200" y="90">UNREGISTERED</text><text fill="#eeeeee" stroke="none" font-family="Arial" font-size="24px" font-style="normal" font-weight="normal" text-decoration="none" x="200" y="120">UNREGISTERED</text><text fill="#eeeeee" stroke="none" font-family="Arial" font-size="24px" font-style="normal" font-weight="normal" text-decoration="none" x="200" y="150">UNREGISTERED</text><text fill="#eeeeee" stroke="none" font-family="Arial" font-size="24px" font-style="normal" font-weight="normal" text-decoration="none" x="200" y="180">UNREGISTERED</text><text fill="#eeeeee" stroke="none" font-family="Arial" font-size="24px" font-style="normal" font-weight="normal" text-decoration="none" x="200" y="210">UNREGISTERED</text><text fill="#eeeeee" stroke="none" font-family="Arial" font-size="24px" font-style="normal" font-weight="normal" text-decoration="none" x="200" y="240">UNREGISTERED</text><text fill="#eeeeee" stroke="none" font-family="Arial" font-size="24px" font-style="normal" font-weight="normal" text-decoration="none" x="200" y="270">UNREGISTERED</text><text fill="#eeeeee" stroke="none" font-family="Arial" font-size="24px" font-style="normal" font-weight="normal" text-decoration="none" x="200" y="300">UNREGISTERED</text><text fill="#eeeeee" stroke="none" font-family="Arial" font-size="24px" font-style="normal" font-weight="normal" text-decoration="none" x="200" y="330">UNREGISTERED</text><text fill="#eeeeee" stroke="none" font-family="Arial" font-size="24px" font-style="normal" font-weight="normal" text-decoration="none" x="200" y="360">UNREGISTERED</text><text fill="#eeeeee" stroke="none" font-family="Arial" font-size="24px" font-style="normal" font-weight="normal" text-decoration="none" x="200" y="390">UNREGISTERED</text><text fill="#eeeeee" stroke="none" font-family="Arial" font-size="24px" font-style="normal" font-weight="normal" text-decoration="none" x="200" y="420">UNREGISTERED</text><text fill="#eeeeee" stroke="none" font-family="Arial" font-size="24px" font-style="normal" font-weight="normal" text-decoration="none" x="200" y="450">UNREGISTERED</text><text fill="#eeeeee" stroke="none" font-family="Arial" font-size="24px" font-style="normal" font-weight="normal" text-decoration="none" x="200" y="480">UNREGISTERED</text><text fill="#eeeeee" stroke="none" font-family="Arial" font-size="24px" font-style="normal" font-weight="normal" text-decoration="none" x="400" y="0">UNREGISTERED</text><text fill="#eeeeee" stroke="none" font-family="Arial" font-size="24px" font-style="normal" font-weight="normal" text-decoration="none" x="400" y="30">UNREGISTERED</text><text fill="#eeeeee" stroke="none" font-family="Arial" font-size="24px" font-style="normal" font-weight="normal" text-decoration="none" x="400" y="60">UNREGISTERED</text><text fill="#eeeeee" stroke="none" font-family="Arial" font-size="24px" font-style="normal" font-weight="normal" text-decoration="none" x="400" y="90">UNREGISTERED</text><text fill="#eeeeee" stroke="none" font-family="Arial" font-size="24px" font-style="normal" font-weight="normal" text-decoration="none" x="400" y="120">UNREGISTERED</text><text fill="#eeeeee" stroke="none" font-family="Arial" font-size="24px" font-style="normal" font-weight="normal" text-decoration="none" x="400" y="150">UNREGISTERED</text><text fill="#eeeeee" stroke="none" font-family="Arial" font-size="24px" font-style="normal" font-weight="normal" text-decoration="none" x="400" y="180">UNREGISTERED</text><text fill="#eeeeee" stroke="none" font-family="Arial" font-size="24px" font-style="normal" font-weight="normal" text-decoration="none" x="400" y="210">UNREGISTERED</text><text fill="#eeeeee" stroke="none" font-family="Arial" font-size="24px" font-style="normal" font-weight="normal" text-decoration="none" x="400" y="240">UNREGISTERED</text><text fill="#eeeeee" stroke="none" font-family="Arial" font-size="24px" font-style="normal" font-weight="normal" text-decoration="none" x="400" y="270">UNREGISTERED</text><text fill="#eeeeee" stroke="none" font-family="Arial" font-size="24px" font-style="normal" font-weight="normal" text-decoration="none" x="400" y="300">UNREGISTERED</text><text fill="#eeeeee" stroke="none" font-family="Arial" font-size="24px" font-style="normal" font-weight="normal" text-decoration="none" x="400" y="330">UNREGISTERED</text><text fill="#eeeeee" stroke="none" font-family="Arial" font-size="24px" font-style="normal" font-weight="normal" text-decoration="none" x="400" y="360">UNREGISTERED</text><text fill="#eeeeee" stroke="none" font-family="Arial" font-size="24px" font-style="normal" font-weight="normal" text-decoration="none" x="400" y="390">UNREGISTERED</text><text fill="#eeeeee" stroke="none" font-family="Arial" font-size="24px" font-style="normal" font-weight="normal" text-decoration="none" x="400" y="420">UNREGISTERED</text><text fill="#eeeeee" stroke="none" font-family="Arial" font-size="24px" font-style="normal" font-weight="normal" text-decoration="none" x="400" y="450">UNREGISTERED</text><text fill="#eeeeee" stroke="none" font-family="Arial" font-size="24px" font-style="normal" font-weight="normal" text-decoration="none" x="400" y="480">UNREGISTERED</text><g transform="translate(-78,2) scale(1,1)"><path fill="#C0C0C0" stroke="none" d="M 313 39 L 454.419921875 39 Q 464.419921875 39 464.419921875 49 L 464.419921875 69 Q 464.419921875 79 454.419921875 79 L 313 79 Q 303 79 303 69 L 303 49 Q 303 39 313 39 Z" opacity="0.2"/></g><g transform="translate(-78,2) scale(1,1)"><path fill="#ffffff" stroke="none" d="M 306 32 L 447.419921875 32 Q 457.419921875 32 457.419921875 42 L 457.419921875 62 Q 457.419921875 72 447.419921875 72 L 306 72 Q 296 72 296 62 L 296 42 Q 296 32 306 32 Z"/></g><g transform="translate(-78,2) scale(1,1)"><path fill="none" stroke="#000000" d="M 306 32 L 447.419921875 32 Q 457.419921875 32 457.419921875 42 L 457.419921875 62 Q 457.419921875 72 447.419921875 72 L 306 72 Q 296 72 296 62 L 296 42 Q 296 32 306 32 Z" stroke-miterlimit="10"/></g><g transform="translate(-78,2) scale(1,1)"><g><path fill="none" stroke="none"/><text fill="#000000" stroke="none" font-family="Arial" font-size="13px" font-style="normal" font-weight="bold" text-decoration="none" x="306.622314453125" y="51.5">Requirements Elicitation</text></g></g><g transform="translate(-78,2) scale(1,1)"><path fill="#C0C0C0" stroke="none" d="M 169 151 L 222.314453125 151 Q 232.314453125 151 232.314453125 161 L 232.314453125 181 Q 232.314453125 191 222.314453125 191 L 169 191 Q 159 191 159 181 L 159 161 Q 159 151 169 151 Z" opacity="0.2"/></g><g transform="translate(-78,2) scale(1,1)"><path fill="#ffffff" stroke="none" d="M 162 144 L 215.314453125 144 Q 225.314453125 144 225.314453125 154 L 225.314453125 174 Q 225.314453125 184 215.314453125 184 L 162 184 Q 152 184 152 174 L 152 154 Q 152 144 162 144 Z"/></g><g transform="translate(-78,2) scale(1,1)"><path fill="none" stroke="#000000" d="M 162 144 L 215.314453125 144 Q 225.314453125 144 225.314453125 154 L 225.314453125 174 Q 225.314453125 184 215.314453125 184 L 162 184 Q 152 184 152 174 L 152 154 Q 152 144 162 144 Z" stroke-miterlimit="10"/></g><g transform="translate(-78,2) scale(1,1)"><g><path fill="none" stroke="none"/><text fill="#000000" stroke="none" font-family="Arial" font-size="13px" font-style="normal" font-weight="bold" text-decoration="none" x="159.03271484375" y="163.5">Analysis 1</text></g></g><g transform="translate(-78,2) scale(1,1)"><path fill="#C0C0C0" stroke="none" d="M 153 215 L 246.04443359375 215 Q 256.04443359375 215 256.04443359375 225 L 256.04443359375 245 Q 256.04443359375 255 246.04443359375 255 L 153 255 Q 143 255 143 245 L 143 225 Q 143 215 153 215 Z" opacity="0.2"/></g><g transform="translate(-78,2) scale(1,1)"><path fill="#ffffff" stroke="none" d="M 146 208 L 239.04443359375 208 Q 249.04443359375 208 249.04443359375 218 L 249.04443359375 238 Q 249.04443359375 248 239.04443359375 248 L 146 248 Q 136 248 136 238 L 136 218 Q 136 208 146 208 Z"/></g><g transform="translate(-78,2) scale(1,1)"><path fill="none" stroke="#000000" d="M 146 208 L 239.04443359375 208 Q 249.04443359375 208 249.04443359375 218 L 249.04443359375 238 Q 249.04443359375 248 239.04443359375 248 L 146 248 Q 136 248 136 238 L 136 218 Q 136 208 146 208 Z" stroke-miterlimit="10"/></g><g transform="translate(-78,2) scale(1,1)"><g><path fill="none" stroke="none"/><text fill="#000000" stroke="none" font-family="Arial" font-size="13px" font-style="normal" font-weight="bold" text-decoration="none" x="143.391357421875" y="227.5">System Design 1</text></g></g><g transform="translate(-78,2) scale(1,1)"><path fill="none" stroke="#000000" d="M 189 185 L 191 207" stroke-miterlimit="10"/></g><g transform="translate(-78,2) scale(1,1)"><path fill="none" stroke="#000000" d="M 185.88768451425594 197.2601729802721 L 191 207 L 194.27214478569894 196.49794931923182" stroke-miterlimit="10"/></g><g transform="translate(-78,2) scale(1,1)"><path fill="#C0C0C0" stroke="none" d="M 153 279 L 240.2490234375 279 Q 250.2490234375 279 250.2490234375 289 L 250.2490234375 309 Q 250.2490234375 319 240.2490234375 319 L 153 319 Q 143 319 143 309 L 143 289 Q 143 279 153 279 Z" opacity="0.2"/></g><g transform="translate(-78,2) scale(1,1)"><path fill="#ffffff" stroke="none" d="M 146 272 L 233.2490234375 272 Q 243.2490234375 272 243.2490234375 282 L 243.2490234375 302 Q 243.2490234375 312 233.2490234375 312 L 146 312 Q 136 312 136 302 L 136 282 Q 136 272 146 272 Z"/></g><g transform="translate(-78,2) scale(1,1)"><path fill="none" stroke="#000000" d="M 146 272 L 233.2490234375 272 Q 243.2490234375 272 243.2490234375 282 L 243.2490234375 302 Q 243.2490234375 312 233.2490234375 312 L 146 312 Q 136 312 136 302 L 136 282 Q 136 272 146 272 Z" stroke-miterlimit="10"/></g><g transform="translate(-78,2) scale(1,1)"><g><path fill="none" stroke="none"/><text fill="#000000" stroke="none" font-family="Arial" font-size="13px" font-style="normal" font-weight="bold" text-decoration="none" x="143.378662109375" y="291.5">Object Design 1</text></g></g><g transform="translate(-78,2) scale(1,1)"><path fill="none" stroke="#000000" d="M 191 249 L 190 271" stroke-miterlimit="10"/></g><g transform="translate(-78,2) scale(1,1)"><path fill="none" stroke="#000000" d="M 186.25628748624487 260.6566631779511 L 190 271 L 194.6666391016781 261.0389518877435" stroke-miterlimit="10"/></g><g transform="translate(-78,2) scale(1,1)"><path fill="#C0C0C0" stroke="none" d="M 153 351 L 248.9072265625 351 Q 258.9072265625 351 258.9072265625 361 L 258.9072265625 381 Q 258.9072265625 391 248.9072265625 391 L 153 391 Q 143 391 143 381 L 143 361 Q 143 351 153 351 Z" opacity="0.2"/></g><g transform="translate(-78,2) scale(1,1)"><path fill="#ffffff" stroke="none" d="M 146 344 L 241.9072265625 344 Q 251.9072265625 344 251.9072265625 354 L 251.9072265625 374 Q 251.9072265625 384 241.9072265625 384 L 146 384 Q 136 384 136 374 L 136 354 Q 136 344 146 344 Z"/></g><g transform="translate(-78,2) scale(1,1)"><path fill="none" stroke="#000000" d="M 146 344 L 241.9072265625 344 Q 251.9072265625 344 251.9072265625 354 L 251.9072265625 374 Q 251.9072265625 384 241.9072265625 384 L 146 384 Q 136 384 136 374 L 136 354 Q 136 344 146 344 Z" stroke-miterlimit="10"/></g><g transform="translate(-78,2) scale(1,1)"><g><path fill="none" stroke="none"/><text fill="#000000" stroke="none" font-family="Arial" font-size="13px" font-style="normal" font-weight="bold" text-decoration="none" x="144.0927734375" y="363.5">Implementation 1</text></g></g><g transform="translate(-78,2) scale(1,1)"><path fill="none" stroke="#000000" d="M 190 313 L 192 343" stroke-miterlimit="10"/></g><g transform="translate(-78,2) scale(1,1)"><path fill="none" stroke="#000000" d="M 187.1237945855094 333.13984681885256 L 192 343 L 195.52418326288262 332.5798209070277" stroke-miterlimit="10"/></g><g transform="translate(-78,2) scale(1,1)"><path fill="#C0C0C0" stroke="none" d="M 353 151 L 406.314453125 151 Q 416.314453125 151 416.314453125 161 L 416.314453125 181 Q 416.314453125 191 406.314453125 191 L 353 191 Q 343 191 343 181 L 343 161 Q 343 151 353 151 Z" opacity="0.2"/></g><g transform="translate(-78,2) scale(1,1)"><path fill="#ffffff" stroke="none" d="M 346 144 L 399.314453125 144 Q 409.314453125 144 409.314453125 154 L 409.314453125 174 Q 409.314453125 184 399.314453125 184 L 346 184 Q 336 184 336 174 L 336 154 Q 336 144 346 144 Z"/></g><g transform="translate(-78,2) scale(1,1)"><path fill="none" stroke="#000000" d="M 346 144 L 399.314453125 144 Q 409.314453125 144 409.314453125 154 L 409.314453125 174 Q 409.314453125 184 399.314453125 184 L 346 184 Q 336 184 336 174 L 336 154 Q 336 144 346 144 Z" stroke-miterlimit="10"/></g><g transform="translate(-78,2) scale(1,1)"><g><path fill="none" stroke="none"/><text fill="#000000" stroke="none" font-family="Arial" font-size="13px" font-style="normal" font-weight="bold" text-decoration="none" x="343.03271484375" y="163.5">Analysis 2</text></g></g><g transform="translate(-78,2) scale(1,1)"><path fill="#C0C0C0" stroke="none" d="M 537 151 L 590.314453125 151 Q 600.314453125 151 600.314453125 161 L 600.314453125 181 Q 600.314453125 191 590.314453125 191 L 537 191 Q 527 191 527 181 L 527 161 Q 527 151 537 151 Z" opacity="0.2"/></g><g transform="translate(-78,2) scale(1,1)"><path fill="#ffffff" stroke="none" d="M 530 144 L 583.314453125 144 Q 593.314453125 144 593.314453125 154 L 593.314453125 174 Q 593.314453125 184 583.314453125 184 L 530 184 Q 520 184 520 174 L 520 154 Q 520 144 530 144 Z"/></g><g transform="translate(-78,2) scale(1,1)"><path fill="none" stroke="#000000" d="M 530 144 L 583.314453125 144 Q 593.314453125 144 593.314453125 154 L 593.314453125 174 Q 593.314453125 184 583.314453125 184 L 530 184 Q 520 184 520 174 L 520 154 Q 520 144 530 144 Z" stroke-miterlimit="10"/></g><g transform="translate(-78,2) scale(1,1)"><g><path fill="none" stroke="none"/><text fill="#000000" stroke="none" font-family="Arial" font-size="13px" font-style="normal" font-weight="bold" text-decoration="none" x="527.03271484375" y="163.5">Analysis 3</text></g></g><g transform="translate(-78,2) scale(1,1)"><path fill="#C0C0C0" stroke="none" d="M 329 215 L 422.04443359375 215 Q 432.04443359375 215 432.04443359375 225 L 432.04443359375 245 Q 432.04443359375 255 422.04443359375 255 L 329 255 Q 319 255 319 245 L 319 225 Q 319 215 329 215 Z" opacity="0.2"/></g><g transform="translate(-78,2) scale(1,1)"><path fill="#ffffff" stroke="none" d="M 322 208 L 415.04443359375 208 Q 425.04443359375 208 425.04443359375 218 L 425.04443359375 238 Q 425.04443359375 248 415.04443359375 248 L 322 248 Q 312 248 312 238 L 312 218 Q 312 208 322 208 Z"/></g><g transform="translate(-78,2) scale(1,1)"><path fill="none" stroke="#000000" d="M 322 208 L 415.04443359375 208 Q 425.04443359375 208 425.04443359375 218 L 425.04443359375 238 Q 425.04443359375 248 415.04443359375 248 L 322 248 Q 312 248 312 238 L 312 218 Q 312 208 322 208 Z" stroke-miterlimit="10"/></g><g transform="translate(-78,2) scale(1,1)"><g><path fill="none" stroke="none"/><text fill="#000000" stroke="none" font-family="Arial" font-size="13px" font-style="normal" font-weight="bold" text-decoration="none" x="319.391357421875" y="227.5">System Design 2</text></g></g><g transform="translate(-78,2) scale(1,1)"><path fill="#C0C0C0" stroke="none" d="M 513 207 L 606.04443359375 207 Q 616.04443359375 207 616.04443359375 217 L 616.04443359375 237 Q 616.04443359375 247 606.04443359375 247 L 513 247 Q 503 247 503 237 L 503 217 Q 503 207 513 207 Z" opacity="0.2"/></g><g transform="translate(-78,2) scale(1,1)"><path fill="#ffffff" stroke="none" d="M 506 200 L 599.04443359375 200 Q 609.04443359375 200 609.04443359375 210 L 609.04443359375 230 Q 609.04443359375 240 599.04443359375 240 L 506 240 Q 496 240 496 230 L 496 210 Q 496 200 506 200 Z"/></g><g transform="translate(-78,2) scale(1,1)"><path fill="none" stroke="#000000" d="M 506 200 L 599.04443359375 200 Q 609.04443359375 200 609.04443359375 210 L 609.04443359375 230 Q 609.04443359375 240 599.04443359375 240 L 506 240 Q 496 240 496 230 L 496 210 Q 496 200 506 200 Z" stroke-miterlimit="10"/></g><g transform="translate(-78,2) scale(1,1)"><g><path fill="none" stroke="none"/><text fill="#000000" stroke="none" font-family="Arial" font-size="13px" font-style="normal" font-weight="bold" text-decoration="none" x="503.391357421875" y="219.5">System Design 3</text></g></g><g transform="translate(-78,2) scale(1,1)"><path fill="#C0C0C0" stroke="none" d="M 337 279 L 424.2490234375 279 Q 434.2490234375 279 434.2490234375 289 L 434.2490234375 309 Q 434.2490234375 319 424.2490234375 319 L 337 319 Q 327 319 327 309 L 327 289 Q 327 279 337 279 Z" opacity="0.2"/></g><g transform="translate(-78,2) scale(1,1)"><path fill="#ffffff" stroke="none" d="M 330 272 L 417.2490234375 272 Q 427.2490234375 272 427.2490234375 282 L 427.2490234375 302 Q 427.2490234375 312 417.2490234375 312 L 330 312 Q 320 312 320 302 L 320 282 Q 320 272 330 272 Z"/></g><g transform="translate(-78,2) scale(1,1)"><path fill="none" stroke="#000000" d="M 330 272 L 417.2490234375 272 Q 427.2490234375 272 427.2490234375 282 L 427.2490234375 302 Q 427.2490234375 312 417.2490234375 312 L 330 312 Q 320 312 320 302 L 320 282 Q 320 272 330 272 Z" stroke-miterlimit="10"/></g><g transform="translate(-78,2) scale(1,1)"><g><path fill="none" stroke="none"/><text fill="#000000" stroke="none" font-family="Arial" font-size="13px" font-style="normal" font-weight="bold" text-decoration="none" x="327.378662109375" y="291.5">Object Design 2</text></g></g><g transform="translate(-78,2) scale(1,1)"><path fill="#C0C0C0" stroke="none" d="M 521 271 L 608.2490234375 271 Q 618.2490234375 271 618.2490234375 281 L 618.2490234375 301 Q 618.2490234375 311 608.2490234375 311 L 521 311 Q 511 311 511 301 L 511 281 Q 511 271 521 271 Z" opacity="0.2"/></g><g transform="translate(-78,2) scale(1,1)"><path fill="#ffffff" stroke="none" d="M 514 264 L 601.2490234375 264 Q 611.2490234375 264 611.2490234375 274 L 611.2490234375 294 Q 611.2490234375 304 601.2490234375 304 L 514 304 Q 504 304 504 294 L 504 274 Q 504 264 514 264 Z"/></g><g transform="translate(-78,2) scale(1,1)"><path fill="none" stroke="#000000" d="M 514 264 L 601.2490234375 264 Q 611.2490234375 264 611.2490234375 274 L 611.2490234375 294 Q 611.2490234375 304 601.2490234375 304 L 514 304 Q 504 304 504 294 L 504 274 Q 504 264 514 264 Z" stroke-miterlimit="10"/></g><g transform="translate(-78,2) scale(1,1)"><g><path fill="none" stroke="none"/><text fill="#000000" stroke="none" font-family="Arial" font-size="13px" font-style="normal" font-weight="bold" text-decoration="none" x="511.378662109375" y="283.5">Object Design 3</text></g></g><g transform="translate(-78,2) scale(1,1)"><path fill="#C0C0C0" stroke="none" d="M 337 351 L 432.9072265625 351 Q 442.9072265625 351 442.9072265625 361 L 442.9072265625 381 Q 442.9072265625 391 432.9072265625 391 L 337 391 Q 327 391 327 381 L 327 361 Q 327 351 337 351 Z" opacity="0.2"/></g><g transform="translate(-78,2) scale(1,1)"><path fill="#ffffff" stroke="none" d="M 330 344 L 425.9072265625 344 Q 435.9072265625 344 435.9072265625 354 L 435.9072265625 374 Q 435.9072265625 384 425.9072265625 384 L 330 384 Q 320 384 320 374 L 320 354 Q 320 344 330 344 Z"/></g><g transform="translate(-78,2) scale(1,1)"><path fill="none" stroke="#000000" d="M 330 344 L 425.9072265625 344 Q 435.9072265625 344 435.9072265625 354 L 435.9072265625 374 Q 435.9072265625 384 425.9072265625 384 L 330 384 Q 320 384 320 374 L 320 354 Q 320 344 330 344 Z" stroke-miterlimit="10"/></g><g transform="translate(-78,2) scale(1,1)"><g><path fill="none" stroke="none"/><text fill="#000000" stroke="none" font-family="Arial" font-size="13px" font-style="normal" font-weight="bold" text-decoration="none" x="328.0927734375" y="363.5">Implementation 2</text></g></g><g transform="translate(-78,2) scale(1,1)"><path fill="#C0C0C0" stroke="none" d="M 521 351 L 616.9072265625 351 Q 626.9072265625 351 626.9072265625 361 L 626.9072265625 381 Q 626.9072265625 391 616.9072265625 391 L 521 391 Q 511 391 511 381 L 511 361 Q 511 351 521 351 Z" opacity="0.2"/></g><g transform="translate(-78,2) scale(1,1)"><path fill="#ffffff" stroke="none" d="M 514 344 L 609.9072265625 344 Q 619.9072265625 344 619.9072265625 354 L 619.9072265625 374 Q 619.9072265625 384 609.9072265625 384 L 514 384 Q 504 384 504 374 L 504 354 Q 504 344 514 344 Z"/></g><g transform="translate(-78,2) scale(1,1)"><path fill="none" stroke="#000000" d="M 514 344 L 609.9072265625 344 Q 619.9072265625 344 619.9072265625 354 L 619.9072265625 374 Q 619.9072265625 384 609.9072265625 384 L 514 384 Q 504 384 504 374 L 504 354 Q 504 344 514 344 Z" stroke-miterlimit="10"/></g><g transform="translate(-78,2) scale(1,1)"><g><path fill="none" stroke="none"/><text fill="#000000" stroke="none" font-family="Arial" font-size="13px" font-style="normal" font-weight="bold" text-decoration="none" x="512.0927734375" y="363.5">Implementation 3</text></g></g><g transform="translate(-78,2) scale(1,1)"><path fill="none" stroke="#000000" d="M 371 185 L 369 207" stroke-miterlimit="10"/></g><g transform="translate(-78,2) scale(1,1)"><path fill="none" stroke="#000000" d="M 365.72785521430103 196.49794931923182 L 369 207 L 374.11231548574403 197.2601729802721" stroke-miterlimit="10"/></g><g transform="translate(-78,2) scale(1,1)"><path fill="none" stroke="#000000" d="M 371 185 L 369 207" stroke-miterlimit="10"/></g><g transform="translate(-78,2) scale(1,1)"><path fill="none" stroke="#000000" d="M 365.72785521430103 196.49794931923182 L 369 207 L 374.11231548574403 197.2601729802721" stroke-miterlimit="10"/></g><g transform="translate(-78,2) scale(1,1)"><path fill="none" stroke="#000000" d="M 370 249 L 371 271" stroke-miterlimit="10"/></g><g transform="translate(-78,2) scale(1,1)"><path fill="none" stroke="#000000" d="M 366.33336089832187 261.0389518877435 L 371 271 L 374.74371251375516 260.6566631779511" stroke-miterlimit="10"/></g><g transform="translate(-78,2) scale(1,1)"><path fill="none" stroke="#000000" d="M 374 313 L 376 343" stroke-miterlimit="10"/></g><g transform="translate(-78,2) scale(1,1)"><path fill="none" stroke="#000000" d="M 371.1237945855094 333.13984681885256 L 376 343 L 379.5241832628826 332.5798209070277" stroke-miterlimit="10"/></g><g transform="translate(-78,2) scale(1,1)"><path fill="none" stroke="#000000" d="M 555 185 L 554 199" stroke-miterlimit="10"/></g><g transform="translate(-78,2) scale(1,1)"><path fill="none" stroke="#000000" d="M 550.525240495762 188.56323582772384 L 554 199 L 558.9228807114221 189.1630672716996" stroke-miterlimit="10"/></g><g transform="translate(-78,2) scale(1,1)"><path fill="none" stroke="#000000" d="M 554 241 L 555 263" stroke-miterlimit="10"/></g><g transform="translate(-78,2) scale(1,1)"><path fill="none" stroke="#000000" d="M 550.3333608983219 253.0389518877435 L 555 263 L 558.7437125137551 252.6566631779511" stroke-miterlimit="10"/></g><g transform="translate(-78,2) scale(1,1)"><path fill="none" stroke="#000000" d="M 558 305 L 560 343" stroke-miterlimit="10"/></g><g transform="translate(-78,2) scale(1,1)"><path fill="none" stroke="#000000" d="M 555.2621621840279 333.07261903473307 L 560 343 L 563.6695611521266 332.63012435220156" stroke-miterlimit="10"/></g><g transform="translate(-78,2) scale(1,1)"><g><path fill="none" stroke="none"/><text fill="#000000" stroke="none" font-family="Arial" font-size="13px" font-style="normal" font-weight="normal" text-decoration="none" x="93" y="26">Concurrent activities</text></g></g><g transform="translate(-78,2) scale(1,1)"><path fill="#C0C0C0" stroke="none" d="M 354 103 L 417 103 Q 420 103 420 106 L 420 105 Q 420 108 417 108 L 354 108 Q 351 108 351 105 L 351 106 Q 351 103 354 103 Z" opacity="0.2"/></g><g transform="translate(-78,2) scale(1,1)"><path fill="#000000" stroke="none" d="M 347 96 L 410 96 Q 413 96 413 99 L 413 99 Q 413 102 410 102 L 347 102 Q 344 102 344 99 L 344 99 Q 344 96 347 96 Z"/></g><g transform="translate(-78,2) scale(1,1)"><path fill="none" stroke="#000000" d="M 377 73 L 378 95" stroke-miterlimit="10"/></g><g transform="translate(-78,2) scale(1,1)"><path fill="none" stroke="#000000" d="M 373.33336089832187 85.0389518877435 L 378 95 L 381.74371251375516 84.65666317795107" stroke-miterlimit="10"/></g><g transform="translate(-78,2) scale(1,1)"><path fill="none" stroke="#000000" d="M 378 102 L 374 143" stroke-miterlimit="10"/></g><g transform="translate(-78,2) scale(1,1)"><path fill="none" stroke="#000000" d="M 370.7971691220975 132.47660347760504 L 374 143 L 379.1764216093419 133.29409152514108" stroke-miterlimit="10"/></g><g transform="translate(-78,2) scale(1,1)"><path fill="none" stroke="#000000" d="M 389 102 L 519 150" stroke-miterlimit="10"/></g><g transform="translate(-78,2) scale(1,1)"><path fill="none" stroke="#000000" d="M 508.0083626966393 150.42884658255662 L 519 150 L 510.9244983998362 142.53097905306512" stroke-miterlimit="10"/></g><g transform="translate(-78,2) scale(1,1)"><path fill="none" stroke="#000000" d="M 366 102 L 226 151" stroke-miterlimit="10"/></g><g transform="translate(-78,2) scale(1,1)"><path fill="none" stroke="#000000" d="M 234.201509608799 143.6695675341234 L 226 151 L 236.98274156599976 151.61594455469702" stroke-miterlimit="10"/></g><g transform="translate(-78,2) scale(1,1)"><path fill="#C0C0C0" stroke="none" d="M 231 64.5 C 231 59.2532944 235.2532944 55 240.5 55 C 245.7467056 55 250 59.2532944 250 64.5 C 250 69.7467056 245.7467056 74 240.5 74 C 235.2532944 74 231 69.7467056 231 64.5 Z" opacity="0.2"/></g><g transform="translate(-78,2) scale(1,1)"><path fill="#000000" stroke="none" d="M 224 57.5 C 224 52.2532944 228.2532944 48 233.5 48 C 238.7467056 48 243 52.2532944 243 57.5 C 243 62.7467056 238.7467056 67 233.5 67 C 228.2532944 67 224 62.7467056 224 57.5 Z"/></g><g transform="translate(-78,2) scale(1,1)"><path fill="none" stroke="#000000" d="M 244 57 L 295 55" stroke-miterlimit="10"/></g><g transform="translate(-78,2) scale(1,1)"><path fill="none" stroke="#000000" d="M 285.0100829161495 59.60451481241956 L 295 55 L 284.6801782385822 51.191945534453716" stroke-miterlimit="10"/></g><g transform="translate(-78,2) scale(1,1)"><path fill="#C0C0C0" stroke="none" d="M 487 483.5 C 487 476.59644 492.59644 471 499.5 471 C 506.40356 471 512 476.59644 512 483.5 C 512 490.40356 506.40356 496 499.5 496 C 492.59644 496 487 490.40356 487 483.5 Z" opacity="0.2"/></g><g transform="translate(-78,2) scale(1,1)"><path fill="none" stroke="#000000" d="M 480 476.5 C 480 469.59644 485.59644 464 492.5 464 C 499.40356 464 505 469.59644 505 476.5 C 505 483.40356 499.40356 489 492.5 489 C 485.59644 489 480 483.40356 480 476.5 Z" stroke-miterlimit="10"/></g><g transform="translate(-78,2) scale(1,1)"><path fill="#000000" stroke="none" d="M 485 476.5 C 485 472.357864 488.357864 469 492.5 469 C 496.642136 469 500 472.357864 500 476.5 C 500 480.642136 496.642136 484 492.5 484 C 488.357864 484 485 480.642136 485 476.5 Z"/></g><g transform="translate(-78,2) scale(1,1)"><path fill="#C0C0C0" stroke="none" d="M 361 463 L 404.90087890625 463 Q 414.90087890625 463 414.90087890625 473 L 414.90087890625 493 Q 414.90087890625 503 404.90087890625 503 L 361 503 Q 351 503 351 493 L 351 473 Q 351 463 361 463 Z" opacity="0.2"/></g><g transform="translate(-78,2) scale(1,1)"><path fill="#ffffff" stroke="none" d="M 354 456 L 397.90087890625 456 Q 407.90087890625 456 407.90087890625 466 L 407.90087890625 486 Q 407.90087890625 496 397.90087890625 496 L 354 496 Q 344 496 344 486 L 344 466 Q 344 456 354 456 Z"/></g><g transform="translate(-78,2) scale(1,1)"><path fill="none" stroke="#000000" d="M 354 456 L 397.90087890625 456 Q 407.90087890625 456 407.90087890625 466 L 407.90087890625 486 Q 407.90087890625 496 397.90087890625 496 L 354 496 Q 344 496 344 486 L 344 466 Q 344 456 354 456 Z" stroke-miterlimit="10"/></g><g transform="translate(-78,2) scale(1,1)"><g><path fill="none" stroke="none"/><text fill="#000000" stroke="none" font-family="Arial" font-size="13px" font-style="normal" font-weight="bold" text-decoration="none" x="350.293212890625" y="475.5">Integrate</text></g></g><g transform="translate(-78,2) scale(1,1)"><path fill="none" stroke="#000000" d="M 409 476 L 479 476" stroke-miterlimit="10"/></g><g transform="translate(-78,2) scale(1,1)"><path fill="none" stroke="#000000" d="M 468.83732514237585 480.209517756016 L 479 476 L 468.83732514237585 471.790482243984" stroke-miterlimit="10"/></g><g transform="translate(-78,2) scale(1,1)"><path fill="#C0C0C0" stroke="none" d="M 354 439 L 417 439 Q 420 439 420 442 L 420 441 Q 420 444 417 444 L 354 444 Q 351 444 351 441 L 351 442 Q 351 439 354 439 Z" opacity="0.2"/></g><g transform="translate(-78,2) scale(1,1)"><path fill="#000000" stroke="none" d="M 347 432 L 410 432 Q 413 432 413 435 L 413 435 Q 413 438 410 438 L 347 438 Q 344 438 344 435 L 344 435 Q 344 432 347 432 Z"/></g><g transform="translate(-78,2) scale(1,1)"><path fill="none" stroke="#000000" d="M 378 438 L 377 455" stroke-miterlimit="10"/></g><g transform="translate(-78,2) scale(1,1)"><path fill="none" stroke="#000000" d="M 373.3945191168192 444.6076707326501 L 377 455 L 381.7990265153309 445.1020535207978" stroke-miterlimit="10"/></g><g transform="translate(-78,2) scale(1,1)"><path fill="none" stroke="#000000" d="M 249 385 L 370 431" stroke-miterlimit="10"/></g><g transform="translate(-78,2) scale(1,1)"><path fill="none" stroke="#000000" d="M 359.00475611044527 431.3234374888748 L 370 431 L 361.99648364322263 423.4538933265692" stroke-miterlimit="10"/></g><g transform="translate(-78,2) scale(1,1)"><path fill="none" stroke="#000000" d="M 377 385 L 378 431" stroke-miterlimit="10"/></g><g transform="translate(-78,2) scale(1,1)"><path fill="none" stroke="#000000" d="M 373.57060105042297 420.93121531934037 L 378 431 L 381.9876478921751 420.74823604017183" stroke-miterlimit="10"/></g><g transform="translate(-78,2) scale(1,1)"><path fill="none" stroke="#000000" d="M 506 385 L 386 431" stroke-miterlimit="10"/></g><g transform="translate(-78,2) scale(1,1)"><path fill="none" stroke="#000000" d="M 393.9826201932254 423.4317918335506 L 386 431 L 396.99609618619405 431.2930335543386" stroke-miterlimit="10"/></g></g></svg>