<svg version="1.1" xmlns="http://www.w3.org/2000/svg" xmlns:xlink="http://www.w3.org/1999/xlink" width="631.9072265625" height="453"><defs/><g><text fill="#eeeeee" stroke="none" font-family="Arial" font-size="24px" font-style="normal" font-weight="normal" text-decoration="none" x="0" y="0">UNREGISTERED</text><text fill="#eeeeee" stroke="none" font-family="Arial" font-size="24px" font-style="normal" font-weight="normal" text-decoration="none" x="0" y="30">UNREGISTERED</text><text fill="#eeeeee" stroke="none" font-family="Arial" font-size="24px" font-style="normal" font-weight="normal" text-decoration="none" x="0" y="60">UNREGISTERED</text><text fill="#eeeeee" stroke="none" font-family="Arial" font-size="24px" font-style="normal" font-weight="normal" text-decoration="none" x="0" y="90">UNREGISTERED</text><text fill="#eeeeee" stroke="none" font-family="Arial" font-size="24px" font-style="normal" font-weight="normal" text-decoration="none" x="0" y="120">UNREGISTERED</text><text fill="#eeeeee" stroke="none" font-family="Arial" font-size="24px" font-style="normal" font-weight="normal" text-decoration="none" x="0" y="150">UNREGISTERED</text><text fill="#eeeeee" stroke="none" font-family="Arial" font-size="24px" font-style="normal" font-weight="normal" text-decoration="none" x="0" y="180">UNREGISTERED</text><text fill="#eeeeee" stroke="none" font-family="Arial" font-size="24px" font-style="normal" font-weight="normal" text-decoration="none" x="0" y="210">UNREGISTERED</text><text fill="#eeeeee" stroke="none" font-family="Arial" font-size="24px" font-style="normal" font-weight="normal" text-decoration="none" x="0" y="240">UNREGISTERED</text><text fill="#eeeeee" stroke="none" font-family="Arial" font-size="24px" font-style="normal" font-weight="normal" text-decoration="none" x="0" y="270">UNREGISTERED</text><text fill="#eeeeee" stroke="none" font-family="Arial" font-size="24px" font-style="normal" font-weight="normal" text-decoration="none" x="0" y="300">UNREGISTERED</text><text fill="#eeeeee" stroke="none" font-family="Arial" font-size="24px" font-style="normal" font-weight="normal" text-decoration="none" x="0" y="330">UNREGISTERED</text><text fill="#eeeeee" stroke="none" font-family="Arial" font-size="24px" font-style="normal" font-weight="normal" text-decoration="none" x="0" y="360">UNREGISTERED</text><text fill="#eeeeee" stroke="none" font-family="Arial" font-size="24px" font-style="normal" font-weight="normal" text-decoration="none" x="0" y="390">UNREGISTERED</text><text fill="#eeeeee" stroke="none" font-family="Arial" font-size="24px" font-style="normal" font-weight="normal" text-decoration="none" x="0" y="420">UNREGISTERED</text><text fill="#eeeeee" stroke="none" font-family="Arial" font-size="24px" font-style="normal" font-weight="normal" text-decoration="none" x="0" y="450">UNREGISTERED</text><text fill="#eeeeee" stroke="none" font-family="Arial" font-size="24px" font-style="normal" font-weight="normal" text-decoration="none" x="200" y="0">UNREGISTERED</text><text fill="#eeeeee" stroke="none" font-family="Arial" font-size="24px" font-style="normal" font-weight="normal" text-decoration="none" x="200" y="30">UNREGISTERED</text><text fill="#eeeeee" stroke="none" font-family="Arial" font-size="24px" font-style="normal" font-weight="normal" text-decoration="none" x="200" y="60">UNREGISTERED</text><text fill="#eeeeee" stroke="none" font-family="Arial" font-size="24px" font-style="normal" font-weight="normal" text-decoration="none" x="200" y="90">UNREGISTERED</text><text fill="#eeeeee" stroke="none" font-family="Arial" font-size="24px" font-style="normal" font-weight="normal" text-decoration="none" x="200" y="120">UNREGISTERED</text><text fill="#eeeeee" stroke="none" font-family="Arial" font-size="24px" font-style="normal" font-weight="normal" text-decoration="none" x="200" y="150">UNREGISTERED</text><text fill="#eeeeee" stroke="none" font-family="Arial" font-size="24px" font-style="normal" font-weight="normal" text-decoration="none" x="200" y="180">UNREGISTERED</text><text fill="#eeeeee" stroke="none" font-family="Arial" font-size="24px" font-style="normal" font-weight="normal" text-decoration="none" x="200" y="210">UNREGISTERED</text><text fill="#eeeeee" stroke="none" font-family="Arial" font-size="24px" font-style="normal" font-weight="normal" text-decoration="none" x="200" y="240">UNREGISTERED</text><text fill="#eeeeee" stroke="none" font-family="Arial" font-size="24px" font-style="normal" font-weight="normal" text-decoration="none" x="200" y="270">UNREGISTERED</text><text fill="#eeeeee" stroke="none" font-family="Arial" font-size="24px" font-style="normal" font-weight="normal" text-decoration="none" x="200" y="300">UNREGISTERED</text><text fill="#eeeeee" stroke="none" font-family="Arial" font-size="24px" font-style="normal" font-weight="normal" text-decoration="none" x="200" y="330">UNREGISTERED</text><text fill="#eeeeee" stroke="none" font-family="Arial" font-size="24px" font-style="normal" font-weight="normal" text-decoration="none" x="200" y="360">UNREGISTERED</text><text fill="#eeeeee" stroke="none" font-family="Arial" font-size="24px" font-style="normal" font-weight="normal" text-decoration="none" x="200" y="390">UNREGISTERED</text><text fill="#eeeeee" stroke="none" font-family="Arial" font-size="24px" font-style="normal" font-weight="normal" text-decoration="none" x="200" y="420">UNREGISTERED</text><text fill="#eeeeee" stroke="none" font-family="Arial" font-size="24px" font-style="normal" font-weight="normal" text-decoration="none" x="200" y="450">UNREGISTERED</text><text fill="#eeeeee" stroke="none" font-family="Arial" font-size="24px" font-style="normal" font-weight="normal" text-decoration="none" x="400" y="0">UNREGISTERED</text><text fill="#eeeeee" stroke="none" font-family="Arial" font-size="24px" font-style="normal" font-weight="normal" text-decoration="none" x="400" y="30">UNREGISTERED</text><text fill="#eeeeee" stroke="none" font-family="Arial" font-size="24px" font-style="normal" font-weight="normal" text-decoration="none" x="400" y="60">UNREGISTERED</text><text fill="#eeeeee" stroke="none" font-family="Arial" font-size="24px" font-style="normal" font-weight="normal" text-decoration="none" x="400" y="90">UNREGISTERED</text><text fill="#eeeeee" stroke="none" font-family="Arial" font-size="24px" font-style="normal" font-weight="normal" text-decoration="none" x="400" y="120">UNREGISTERED</text><text fill="#eeeeee" stroke="none" font-family="Arial" font-size="24px" font-style="normal" font-weight="normal" text-decoration="none" x="400" y="150">UNREGISTERED</text><text fill="#eeeeee" stroke="none" font-family="Arial" font-size="24px" font-style="normal" font-weight="normal" text-decoration="none" x="400" y="180">UNREGISTERED</text><text fill="#eeeeee" stroke="none" font-family="Arial" font-size="24px" font-style="normal" font-weight="normal" text-decoration="none" x="400" y="210">UNREGISTERED</text><text fill="#eeeeee" stroke="none" font-family="Arial" font-size="24px" font-style="normal" font-weight="normal" text-decoration="none" x="400" y="240">UNREGISTERED</text><text fill="#eeeeee" stroke="none" font-family="Arial" font-size="24px" font-style="normal" font-weight="normal" text-decoration="none" x="400" y="270">UNREGISTERED</text><text fill="#eeeeee" stroke="none" font-family="Arial" font-size="24px" font-style="normal" font-weight="normal" text-decoration="none" x="400" y="300">UNREGISTERED</text><text fill="#eeeeee" stroke="none" font-family="Arial" font-size="24px" font-style="normal" font-weight="normal" text-decoration="none" x="400" y="330">UNREGISTERED</text><text fill="#eeeeee" stroke="none" font-family="Arial" font-size="24px" font-style="normal" font-weight="normal" text-decoration="none" x="400" y="360">UNREGISTERED</text><text fill="#eeeeee" stroke="none" font-family="Arial" font-size="24px" font-style="normal" font-weight="normal" text-decoration="none" x="400" y="390">UNREGISTERED</text><text fill="#eeeeee" stroke="none" font-family="Arial" font-size="24px" font-style="normal" font-weight="normal" text-decoration="none" x="400" y="420">UNREGISTERED</text><text fill="#eeeeee" stroke="none" font-family="Arial" font-size="24px" font-style="normal" font-weight="normal" text-decoration="none" x="400" y="450">UNREGISTERED</text><text fill="#eeeeee" stroke="none" font-family="Arial" font-size="24px" font-style="normal" font-weight="normal" text-decoration="none" x="600" y="0">UNREGISTERED</text><text fill="#eeeeee" stroke="none" font-family="Arial" font-size="24px" font-style="normal" font-weight="normal" text-decoration="none" x="600" y="30">UNREGISTERED</text><text fill="#eeeeee" stroke="none" font-family="Arial" font-size="24px" font-style="normal" font-weight="normal" text-decoration="none" x="600" y="60">UNREGISTERED</text><text fill="#eeeeee" stroke="none" font-family="Arial" font-size="24px" font-style="normal" font-weight="normal" text-decoration="none" x="600" y="90">UNREGISTERED</text><text fill="#eeeeee" stroke="none" font-family="Arial" font-size="24px" font-style="normal" font-weight="normal" text-decoration="none" x="600" y="120">UNREGISTERED</text><text fill="#eeeeee" stroke="none" font-family="Arial" font-size="24px" font-style="normal" font-weight="normal" text-decoration="none" x="600" y="150">UNREGISTERED</text><text fill="#eeeeee" stroke="none" font-family="Arial" font-size="24px" font-style="normal" font-weight="normal" text-decoration="none" x="600" y="180">UNREGISTERED</text><text fill="#eeeeee" stroke="none" font-family="Arial" font-size="24px" font-style="normal" font-weight="normal" text-decoration="none" x="600" y="210">UNREGISTERED</text><text fill="#eeeeee" stroke="none" font-family="Arial" font-size="24px" font-style="normal" font-weight="normal" text-decoration="none" x="600" y="240">UNREGISTERED</text><text fill="#eeeeee" stroke="none" font-family="Arial" font-size="24px" font-style="normal" font-weight="normal" text-decoration="none" x="600" y="270">UNREGISTERED</text><text fill="#eeeeee" stroke="none" font-family="Arial" font-size="24px" font-style="normal" font-weight="normal" text-decoration="none" x="600" y="300">UNREGISTERED</text><text fill="#eeeeee" stroke="none" font-family="Arial" font-size="24px" font-style="normal" font-weight="normal" text-decoration="none" x="600" y="330">UNREGISTERED</text><text fill="#eeeeee" stroke="none" font-family="Arial" font-size="24px" font-style="normal" font-weight="normal" text-decoration="none" x="600" y="360">UNREGISTERED</text><text fill="#eeeeee" stroke="none" font-family="Arial" font-size="24px" font-style="normal" font-weight="normal" text-decoration="none" x="600" y="390">UNREGISTERED</text><text fill="#eeeeee" stroke="none" font-family="Arial" font-size="24px" font-style="normal" font-weight="normal" text-decoration="none" x="600" y="420">UNREGISTERED</text><text fill="#eeeeee" stroke="none" font-family="Arial" font-size="24px" font-style="normal" font-weight="normal" text-decoration="none" x="600" y="450">UNREGISTERED</text><g transform="translate(2,2) scale(1,1)"><path fill="#C0C0C0" stroke="none" d="M 121 55 L 262.419921875 55 Q 272.419921875 55 272.419921875 65 L 272.419921875 85 Q 272.419921875 95 262.419921875 95 L 121 95 Q 111 95 111 85 L 111 65 Q 111 55 121 55 Z" opacity="0.2"/></g><g transform="translate(2,2) scale(1,1)"><path fill="#ffffff" stroke="none" d="M 114 48 L 255.419921875 48 Q 265.419921875 48 265.419921875 58 L 265.419921875 78 Q 265.419921875 88 255.419921875 88 L 114 88 Q 104 88 104 78 L 104 58 Q 104 48 114 48 Z"/></g><g transform="translate(2,2) scale(1,1)"><path fill="none" stroke="#000000" d="M 114 48 L 255.419921875 48 Q 265.419921875 48 265.419921875 58 L 265.419921875 78 Q 265.419921875 88 255.419921875 88 L 114 88 Q 104 88 104 78 L 104 58 Q 104 48 114 48 Z" stroke-miterlimit="10"/></g><g transform="translate(2,2) scale(1,1)"><g><path fill="none" stroke="none"/><text fill="#000000" stroke="none" font-family="Arial" font-size="13px" font-style="normal" font-weight="bold" text-decoration="none" x="114.622314453125" y="67.5">Requirements Elicitation</text></g></g><g transform="translate(2,2) scale(1,1)"><path fill="#C0C0C0" stroke="none" d="M 169 151 L 222.314453125 151 Q 232.314453125 151 232.314453125 161 L 232.314453125 181 Q 232.314453125 191 222.314453125 191 L 169 191 Q 159 191 159 181 L 159 161 Q 159 151 169 151 Z" opacity="0.2"/></g><g transform="translate(2,2) scale(1,1)"><path fill="#ffffff" stroke="none" d="M 162 144 L 215.314453125 144 Q 225.314453125 144 225.314453125 154 L 225.314453125 174 Q 225.314453125 184 215.314453125 184 L 162 184 Q 152 184 152 174 L 152 154 Q 152 144 162 144 Z"/></g><g transform="translate(2,2) scale(1,1)"><path fill="none" stroke="#000000" d="M 162 144 L 215.314453125 144 Q 225.314453125 144 225.314453125 154 L 225.314453125 174 Q 225.314453125 184 215.314453125 184 L 162 184 Q 152 184 152 174 L 152 154 Q 152 144 162 144 Z" stroke-miterlimit="10"/></g><g transform="translate(2,2) scale(1,1)"><g><path fill="none" stroke="none"/><text fill="#000000" stroke="none" font-family="Arial" font-size="13px" font-style="normal" font-weight="bold" text-decoration="none" x="159.03271484375" y="163.5">Analysis 1</text></g></g><g transform="translate(2,2) scale(1,1)"><path fill="#C0C0C0" stroke="none" d="M 153 215 L 246.04443359375 215 Q 256.04443359375 215 256.04443359375 225 L 256.04443359375 245 Q 256.04443359375 255 246.04443359375 255 L 153 255 Q 143 255 143 245 L 143 225 Q 143 215 153 215 Z" opacity="0.2"/></g><g transform="translate(2,2) scale(1,1)"><path fill="#ffffff" stroke="none" d="M 146 208 L 239.04443359375 208 Q 249.04443359375 208 249.04443359375 218 L 249.04443359375 238 Q 249.04443359375 248 239.04443359375 248 L 146 248 Q 136 248 136 238 L 136 218 Q 136 208 146 208 Z"/></g><g transform="translate(2,2) scale(1,1)"><path fill="none" stroke="#000000" d="M 146 208 L 239.04443359375 208 Q 249.04443359375 208 249.04443359375 218 L 249.04443359375 238 Q 249.04443359375 248 239.04443359375 248 L 146 248 Q 136 248 136 238 L 136 218 Q 136 208 146 208 Z" stroke-miterlimit="10"/></g><g transform="translate(2,2) scale(1,1)"><g><path fill="none" stroke="none"/><text fill="#000000" stroke="none" font-family="Arial" font-size="13px" font-style="normal" font-weight="bold" text-decoration="none" x="143.391357421875" y="227.5">System Design 1</text></g></g><g transform="translate(2,2) scale(1,1)"><path fill="none" stroke="#000000" d="M 189 185 L 191 207" stroke-miterlimit="10"/></g><g transform="translate(2,2) scale(1,1)"><path fill="none" stroke="#000000" d="M 185.88768451425594 197.2601729802721 L 191 207 L 194.27214478569894 196.49794931923182" stroke-miterlimit="10"/></g><g transform="translate(2,2) scale(1,1)"><path fill="#C0C0C0" stroke="none" d="M 153 279 L 240.2490234375 279 Q 250.2490234375 279 250.2490234375 289 L 250.2490234375 309 Q 250.2490234375 319 240.2490234375 319 L 153 319 Q 143 319 143 309 L 143 289 Q 143 279 153 279 Z" opacity="0.2"/></g><g transform="translate(2,2) scale(1,1)"><path fill="#ffffff" stroke="none" d="M 146 272 L 233.2490234375 272 Q 243.2490234375 272 243.2490234375 282 L 243.2490234375 302 Q 243.2490234375 312 233.2490234375 312 L 146 312 Q 136 312 136 302 L 136 282 Q 136 272 146 272 Z"/></g><g transform="translate(2,2) scale(1,1)"><path fill="none" stroke="#000000" d="M 146 272 L 233.2490234375 272 Q 243.2490234375 272 243.2490234375 282 L 243.2490234375 302 Q 243.2490234375 312 233.2490234375 312 L 146 312 Q 136 312 136 302 L 136 282 Q 136 272 146 272 Z" stroke-miterlimit="10"/></g><g transform="translate(2,2) scale(1,1)"><g><path fill="none" stroke="none"/><text fill="#000000" stroke="none" font-family="Arial" font-size="13px" font-style="normal" font-weight="bold" text-decoration="none" x="143.378662109375" y="291.5">Object Design 1</text></g></g><g transform="translate(2,2) scale(1,1)"><path fill="none" stroke="#000000" d="M 191 249 L 190 271" stroke-miterlimit="10"/></g><g transform="translate(2,2) scale(1,1)"><path fill="none" stroke="#000000" d="M 186.25628748624487 260.6566631779511 L 190 271 L 194.6666391016781 261.0389518877435" stroke-miterlimit="10"/></g><g transform="translate(2,2) scale(1,1)"><path fill="#C0C0C0" stroke="none" d="M 153 351 L 248.9072265625 351 Q 258.9072265625 351 258.9072265625 361 L 258.9072265625 381 Q 258.9072265625 391 248.9072265625 391 L 153 391 Q 143 391 143 381 L 143 361 Q 143 351 153 351 Z" opacity="0.2"/></g><g transform="translate(2,2) scale(1,1)"><path fill="#ffffff" stroke="none" d="M 146 344 L 241.9072265625 344 Q 251.9072265625 344 251.9072265625 354 L 251.9072265625 374 Q 251.9072265625 384 241.9072265625 384 L 146 384 Q 136 384 136 374 L 136 354 Q 136 344 146 344 Z"/></g><g transform="translate(2,2) scale(1,1)"><path fill="none" stroke="#000000" d="M 146 344 L 241.9072265625 344 Q 251.9072265625 344 251.9072265625 354 L 251.9072265625 374 Q 251.9072265625 384 241.9072265625 384 L 146 384 Q 136 384 136 374 L 136 354 Q 136 344 146 344 Z" stroke-miterlimit="10"/></g><g transform="translate(2,2) scale(1,1)"><g><path fill="none" stroke="none"/><text fill="#000000" stroke="none" font-family="Arial" font-size="13px" font-style="normal" font-weight="bold" text-decoration="none" x="144.0927734375" y="363.5">Implementation 1</text></g></g><g transform="translate(2,2) scale(1,1)"><path fill="none" stroke="#000000" d="M 190 313 L 192 343" stroke-miterlimit="10"/></g><g transform="translate(2,2) scale(1,1)"><path fill="none" stroke="#000000" d="M 187.1237945855094 333.13984681885256 L 192 343 L 195.52418326288262 332.5798209070277" stroke-miterlimit="10"/></g><g transform="translate(2,2) scale(1,1)"><path fill="#C0C0C0" stroke="none" d="M 353 151 L 406.314453125 151 Q 416.314453125 151 416.314453125 161 L 416.314453125 181 Q 416.314453125 191 406.314453125 191 L 353 191 Q 343 191 343 181 L 343 161 Q 343 151 353 151 Z" opacity="0.2"/></g><g transform="translate(2,2) scale(1,1)"><path fill="#ffffff" stroke="none" d="M 346 144 L 399.314453125 144 Q 409.314453125 144 409.314453125 154 L 409.314453125 174 Q 409.314453125 184 399.314453125 184 L 346 184 Q 336 184 336 174 L 336 154 Q 336 144 346 144 Z"/></g><g transform="translate(2,2) scale(1,1)"><path fill="none" stroke="#000000" d="M 346 144 L 399.314453125 144 Q 409.314453125 144 409.314453125 154 L 409.314453125 174 Q 409.314453125 184 399.314453125 184 L 346 184 Q 336 184 336 174 L 336 154 Q 336 144 346 144 Z" stroke-miterlimit="10"/></g><g transform="translate(2,2) scale(1,1)"><g><path fill="none" stroke="none"/><text fill="#000000" stroke="none" font-family="Arial" font-size="13px" font-style="normal" font-weight="bold" text-decoration="none" x="343.03271484375" y="163.5">Analysis 2</text></g></g><g transform="translate(2,2) scale(1,1)"><path fill="#C0C0C0" stroke="none" d="M 537 151 L 590.314453125 151 Q 600.314453125 151 600.314453125 161 L 600.314453125 181 Q 600.314453125 191 590.314453125 191 L 537 191 Q 527 191 527 181 L 527 161 Q 527 151 537 151 Z" opacity="0.2"/></g><g transform="translate(2,2) scale(1,1)"><path fill="#ffffff" stroke="none" d="M 530 144 L 583.314453125 144 Q 593.314453125 144 593.314453125 154 L 593.314453125 174 Q 593.314453125 184 583.314453125 184 L 530 184 Q 520 184 520 174 L 520 154 Q 520 144 530 144 Z"/></g><g transform="translate(2,2) scale(1,1)"><path fill="none" stroke="#000000" d="M 530 144 L 583.314453125 144 Q 593.314453125 144 593.314453125 154 L 593.314453125 174 Q 593.314453125 184 583.314453125 184 L 530 184 Q 520 184 520 174 L 520 154 Q 520 144 530 144 Z" stroke-miterlimit="10"/></g><g transform="translate(2,2) scale(1,1)"><g><path fill="none" stroke="none"/><text fill="#000000" stroke="none" font-family="Arial" font-size="13px" font-style="normal" font-weight="bold" text-decoration="none" x="527.03271484375" y="163.5">Analysis 3</text></g></g><g transform="translate(2,2) scale(1,1)"><path fill="#C0C0C0" stroke="none" d="M 329 215 L 422.04443359375 215 Q 432.04443359375 215 432.04443359375 225 L 432.04443359375 245 Q 432.04443359375 255 422.04443359375 255 L 329 255 Q 319 255 319 245 L 319 225 Q 319 215 329 215 Z" opacity="0.2"/></g><g transform="translate(2,2) scale(1,1)"><path fill="#ffffff" stroke="none" d="M 322 208 L 415.04443359375 208 Q 425.04443359375 208 425.04443359375 218 L 425.04443359375 238 Q 425.04443359375 248 415.04443359375 248 L 322 248 Q 312 248 312 238 L 312 218 Q 312 208 322 208 Z"/></g><g transform="translate(2,2) scale(1,1)"><path fill="none" stroke="#000000" d="M 322 208 L 415.04443359375 208 Q 425.04443359375 208 425.04443359375 218 L 425.04443359375 238 Q 425.04443359375 248 415.04443359375 248 L 322 248 Q 312 248 312 238 L 312 218 Q 312 208 322 208 Z" stroke-miterlimit="10"/></g><g transform="translate(2,2) scale(1,1)"><g><path fill="none" stroke="none"/><text fill="#000000" stroke="none" font-family="Arial" font-size="13px" font-style="normal" font-weight="bold" text-decoration="none" x="319.391357421875" y="227.5">System Design 2</text></g></g><g transform="translate(2,2) scale(1,1)"><path fill="#C0C0C0" stroke="none" d="M 513 207 L 606.04443359375 207 Q 616.04443359375 207 616.04443359375 217 L 616.04443359375 237 Q 616.04443359375 247 606.04443359375 247 L 513 247 Q 503 247 503 237 L 503 217 Q 503 207 513 207 Z" opacity="0.2"/></g><g transform="translate(2,2) scale(1,1)"><path fill="#ffffff" stroke="none" d="M 506 200 L 599.04443359375 200 Q 609.04443359375 200 609.04443359375 210 L 609.04443359375 230 Q 609.04443359375 240 599.04443359375 240 L 506 240 Q 496 240 496 230 L 496 210 Q 496 200 506 200 Z"/></g><g transform="translate(2,2) scale(1,1)"><path fill="none" stroke="#000000" d="M 506 200 L 599.04443359375 200 Q 609.04443359375 200 609.04443359375 210 L 609.04443359375 230 Q 609.04443359375 240 599.04443359375 240 L 506 240 Q 496 240 496 230 L 496 210 Q 496 200 506 200 Z" stroke-miterlimit="10"/></g><g transform="translate(2,2) scale(1,1)"><g><path fill="none" stroke="none"/><text fill="#000000" stroke="none" font-family="Arial" font-size="13px" font-style="normal" font-weight="bold" text-decoration="none" x="503.391357421875" y="219.5">System Design 3</text></g></g><g transform="translate(2,2) scale(1,1)"><path fill="#C0C0C0" stroke="none" d="M 337 279 L 424.2490234375 279 Q 434.2490234375 279 434.2490234375 289 L 434.2490234375 309 Q 434.2490234375 319 424.2490234375 319 L 337 319 Q 327 319 327 309 L 327 289 Q 327 279 337 279 Z" opacity="0.2"/></g><g transform="translate(2,2) scale(1,1)"><path fill="#ffffff" stroke="none" d="M 330 272 L 417.2490234375 272 Q 427.2490234375 272 427.2490234375 282 L 427.2490234375 302 Q 427.2490234375 312 417.2490234375 312 L 330 312 Q 320 312 320 302 L 320 282 Q 320 272 330 272 Z"/></g><g transform="translate(2,2) scale(1,1)"><path fill="none" stroke="#000000" d="M 330 272 L 417.2490234375 272 Q 427.2490234375 272 427.2490234375 282 L 427.2490234375 302 Q 427.2490234375 312 417.2490234375 312 L 330 312 Q 320 312 320 302 L 320 282 Q 320 272 330 272 Z" stroke-miterlimit="10"/></g><g transform="translate(2,2) scale(1,1)"><g><path fill="none" stroke="none"/><text fill="#000000" stroke="none" font-family="Arial" font-size="13px" font-style="normal" font-weight="bold" text-decoration="none" x="327.378662109375" y="291.5">Object Design 2</text></g></g><g transform="translate(2,2) scale(1,1)"><path fill="#C0C0C0" stroke="none" d="M 521 271 L 608.2490234375 271 Q 618.2490234375 271 618.2490234375 281 L 618.2490234375 301 Q 618.2490234375 311 608.2490234375 311 L 521 311 Q 511 311 511 301 L 511 281 Q 511 271 521 271 Z" opacity="0.2"/></g><g transform="translate(2,2) scale(1,1)"><path fill="#ffffff" stroke="none" d="M 514 264 L 601.2490234375 264 Q 611.2490234375 264 611.2490234375 274 L 611.2490234375 294 Q 611.2490234375 304 601.2490234375 304 L 514 304 Q 504 304 504 294 L 504 274 Q 504 264 514 264 Z"/></g><g transform="translate(2,2) scale(1,1)"><path fill="none" stroke="#000000" d="M 514 264 L 601.2490234375 264 Q 611.2490234375 264 611.2490234375 274 L 611.2490234375 294 Q 611.2490234375 304 601.2490234375 304 L 514 304 Q 504 304 504 294 L 504 274 Q 504 264 514 264 Z" stroke-miterlimit="10"/></g><g transform="translate(2,2) scale(1,1)"><g><path fill="none" stroke="none"/><text fill="#000000" stroke="none" font-family="Arial" font-size="13px" font-style="normal" font-weight="bold" text-decoration="none" x="511.378662109375" y="283.5">Object Design 3</text></g></g><g transform="translate(2,2) scale(1,1)"><path fill="#C0C0C0" stroke="none" d="M 337 351 L 432.9072265625 351 Q 442.9072265625 351 442.9072265625 361 L 442.9072265625 381 Q 442.9072265625 391 432.9072265625 391 L 337 391 Q 327 391 327 381 L 327 361 Q 327 351 337 351 Z" opacity="0.2"/></g><g transform="translate(2,2) scale(1,1)"><path fill="#ffffff" stroke="none" d="M 330 344 L 425.9072265625 344 Q 435.9072265625 344 435.9072265625 354 L 435.9072265625 374 Q 435.9072265625 384 425.9072265625 384 L 330 384 Q 320 384 320 374 L 320 354 Q 320 344 330 344 Z"/></g><g transform="translate(2,2) scale(1,1)"><path fill="none" stroke="#000000" d="M 330 344 L 425.9072265625 344 Q 435.9072265625 344 435.9072265625 354 L 435.9072265625 374 Q 435.9072265625 384 425.9072265625 384 L 330 384 Q 320 384 320 374 L 320 354 Q 320 344 330 344 Z" stroke-miterlimit="10"/></g><g transform="translate(2,2) scale(1,1)"><g><path fill="none" stroke="none"/><text fill="#000000" stroke="none" font-family="Arial" font-size="13px" font-style="normal" font-weight="bold" text-decoration="none" x="328.0927734375" y="363.5">Implementation 2</text></g></g><g transform="translate(2,2) scale(1,1)"><path fill="#C0C0C0" stroke="none" d="M 521 351 L 616.9072265625 351 Q 626.9072265625 351 626.9072265625 361 L 626.9072265625 381 Q 626.9072265625 391 616.9072265625 391 L 521 391 Q 511 391 511 381 L 511 361 Q 511 351 521 351 Z" opacity="0.2"/></g><g transform="translate(2,2) scale(1,1)"><path fill="#ffffff" stroke="none" d="M 514 344 L 609.9072265625 344 Q 619.9072265625 344 619.9072265625 354 L 619.9072265625 374 Q 619.9072265625 384 609.9072265625 384 L 514 384 Q 504 384 504 374 L 504 354 Q 504 344 514 344 Z"/></g><g transform="translate(2,2) scale(1,1)"><path fill="none" stroke="#000000" d="M 514 344 L 609.9072265625 344 Q 619.9072265625 344 619.9072265625 354 L 619.9072265625 374 Q 619.9072265625 384 609.9072265625 384 L 514 384 Q 504 384 504 374 L 504 354 Q 504 344 514 344 Z" stroke-miterlimit="10"/></g><g transform="translate(2,2) scale(1,1)"><g><path fill="none" stroke="none"/><text fill="#000000" stroke="none" font-family="Arial" font-size="13px" font-style="normal" font-weight="bold" text-decoration="none" x="512.0927734375" y="363.5">Implementation 3</text></g></g><g transform="translate(2,2) scale(1,1)"><path fill="none" stroke="#000000" d="M 371 185 L 369 207" stroke-miterlimit="10"/></g><g transform="translate(2,2) scale(1,1)"><path fill="none" stroke="#000000" d="M 365.72785521430103 196.49794931923182 L 369 207 L 374.11231548574403 197.2601729802721" stroke-miterlimit="10"/></g><g transform="translate(2,2) scale(1,1)"><path fill="none" stroke="#000000" d="M 371 185 L 369 207" stroke-miterlimit="10"/></g><g transform="translate(2,2) scale(1,1)"><path fill="none" stroke="#000000" d="M 365.72785521430103 196.49794931923182 L 369 207 L 374.11231548574403 197.2601729802721" stroke-miterlimit="10"/></g><g transform="translate(2,2) scale(1,1)"><path fill="none" stroke="#000000" d="M 370 249 L 371 271" stroke-miterlimit="10"/></g><g transform="translate(2,2) scale(1,1)"><path fill="none" stroke="#000000" d="M 366.33336089832187 261.0389518877435 L 371 271 L 374.74371251375516 260.6566631779511" stroke-miterlimit="10"/></g><g transform="translate(2,2) scale(1,1)"><path fill="none" stroke="#000000" d="M 374 313 L 376 343" stroke-miterlimit="10"/></g><g transform="translate(2,2) scale(1,1)"><path fill="none" stroke="#000000" d="M 371.1237945855094 333.13984681885256 L 376 343 L 379.5241832628826 332.5798209070277" stroke-miterlimit="10"/></g><g transform="translate(2,2) scale(1,1)"><path fill="none" stroke="#000000" d="M 555 185 L 554 199" stroke-miterlimit="10"/></g><g transform="translate(2,2) scale(1,1)"><path fill="none" stroke="#000000" d="M 550.525240495762 188.56323582772384 L 554 199 L 558.9228807114221 189.1630672716996" stroke-miterlimit="10"/></g><g transform="translate(2,2) scale(1,1)"><path fill="none" stroke="#000000" d="M 554 241 L 555 263" stroke-miterlimit="10"/></g><g transform="translate(2,2) scale(1,1)"><path fill="none" stroke="#000000" d="M 550.3333608983219 253.0389518877435 L 555 263 L 558.7437125137551 252.6566631779511" stroke-miterlimit="10"/></g><g transform="translate(2,2) scale(1,1)"><path fill="none" stroke="#000000" d="M 558 305 L 560 343" stroke-miterlimit="10"/></g><g transform="translate(2,2) scale(1,1)"><path fill="none" stroke="#000000" d="M 555.2621621840279 333.07261903473307 L 560 343 L 563.6695611521266 332.63012435220156" stroke-miterlimit="10"/></g><g transform="translate(2,2) scale(1,1)"><path fill="none" stroke="#000000" d="M 185 89 L 187 143" stroke-miterlimit="10"/></g><g transform="translate(2,2) scale(1,1)"><path fill="none" stroke="#000000" d="M 182.41722899170594 133.0000895061236 L 187 143 L 190.83049606488868 132.68848702193162" stroke-miterlimit="10"/></g><g transform="translate(2,2) scale(1,1)"><path fill="none" stroke="#000000" d="M 193 385 L 192 432 L 264 432 L 264 128 L 368 128 L 370 143" stroke-miterlimit="10"/></g><g transform="translate(2,2) scale(1,1)"><path fill="none" stroke="#000000" d="M 364.48427163655896 133.4828186619813 L 370 143 L 372.82945453292297 132.37012760913274" stroke-miterlimit="10"/></g><g transform="translate(2,2) scale(1,1)"><path fill="none" stroke="#000000" d="M 377 385 L 376 432 L 480 432 L 480 120 L 552 120 L 554 143" stroke-miterlimit="10"/></g><g transform="translate(2,2) scale(1,1)"><path fill="none" stroke="#000000" d="M 548.9259189305699 133.24019973048368 L 554 143 L 557.313303821117 132.51086191391437" stroke-miterlimit="10"/></g><g transform="translate(2,2) scale(1,1)"><g><path fill="none" stroke="none"/><text fill="#000000" stroke="none" font-family="Arial" font-size="13px" font-style="normal" font-weight="normal" text-decoration="none" x="13" y="26">Incremental activities</text></g></g><g transform="translate(2,2) scale(1,1)"><path fill="#C0C0C0" stroke="none" d="M 47 72.5 C 47 67.2532944 51.2532944 63 56.5 63 C 61.7467056 63 66 67.2532944 66 72.5 C 66 77.7467056 61.7467056 82 56.5 82 C 51.2532944 82 47 77.7467056 47 72.5 Z" opacity="0.2"/></g><g transform="translate(2,2) scale(1,1)"><path fill="#000000" stroke="none" d="M 40 65.5 C 40 60.2532944 44.2532944 56 49.5 56 C 54.7467056 56 59 60.2532944 59 65.5 C 59 70.7467056 54.7467056 75 49.5 75 C 44.2532944 75 40 70.7467056 40 65.5 Z"/></g><g transform="translate(2,2) scale(1,1)"><path fill="#C0C0C0" stroke="none" d="M 575 435.5 C 575 428.59644 580.59644 423 587.5 423 C 594.40356 423 600 428.59644 600 435.5 C 600 442.40356 594.40356 448 587.5 448 C 580.59644 448 575 442.40356 575 435.5 Z" opacity="0.2"/></g><g transform="translate(2,2) scale(1,1)"><path fill="none" stroke="#000000" d="M 568 428.5 C 568 421.59644 573.59644 416 580.5 416 C 587.40356 416 593 421.59644 593 428.5 C 593 435.40356 587.40356 441 580.5 441 C 573.59644 441 568 435.40356 568 428.5 Z" stroke-miterlimit="10"/></g><g transform="translate(2,2) scale(1,1)"><path fill="#000000" stroke="none" d="M 573 428.5 C 573 424.357864 576.357864 421 580.5 421 C 584.642136 421 588 424.357864 588 428.5 C 588 432.642136 584.642136 436 580.5 436 C 576.357864 436 573 432.642136 573 428.5 Z"/></g><g transform="translate(2,2) scale(1,1)"><path fill="none" stroke="#000000" d="M 60 65 L 103 66" stroke-miterlimit="10"/></g><g transform="translate(2,2) scale(1,1)"><path fill="none" stroke="#000000" d="M 92.7422028826507 69.97210250362454 L 103 66 L 92.9379414824055 61.555342714167466" stroke-miterlimit="10"/></g><g transform="translate(2,2) scale(1,1)"><path fill="none" stroke="#000000" d="M 567 385 L 576 415" stroke-miterlimit="10"/></g><g transform="translate(2,2) scale(1,1)"><path fill="none" stroke="#000000" d="M 569.0477901131462 406.4755189196566 L 576 415 L 577.1117636227807 404.05632686676626" stroke-miterlimit="10"/></g></g></svg>