<svg version="1.1" xmlns="http://www.w3.org/2000/svg" xmlns:xlink="http://www.w3.org/1999/xlink" width="540" height="669"><defs/><g><text fill="#eeeeee" stroke="none" font-family="Arial" font-size="24px" font-style="normal" font-weight="normal" text-decoration="none" x="0" y="0">UNREGISTERED</text><text fill="#eeeeee" stroke="none" font-family="Arial" font-size="24px" font-style="normal" font-weight="normal" text-decoration="none" x="0" y="30">UNREGISTERED</text><text fill="#eeeeee" stroke="none" font-family="Arial" font-size="24px" font-style="normal" font-weight="normal" text-decoration="none" x="0" y="60">UNREGISTERED</text><text fill="#eeeeee" stroke="none" font-family="Arial" font-size="24px" font-style="normal" font-weight="normal" text-decoration="none" x="0" y="90">UNREGISTERED</text><text fill="#eeeeee" stroke="none" font-family="Arial" font-size="24px" font-style="normal" font-weight="normal" text-decoration="none" x="0" y="120">UNREGISTERED</text><text fill="#eeeeee" stroke="none" font-family="Arial" font-size="24px" font-style="normal" font-weight="normal" text-decoration="none" x="0" y="150">UNREGISTERED</text><text fill="#eeeeee" stroke="none" font-family="Arial" font-size="24px" font-style="normal" font-weight="normal" text-decoration="none" x="0" y="180">UNREGISTERED</text><text fill="#eeeeee" stroke="none" font-family="Arial" font-size="24px" font-style="normal" font-weight="normal" text-decoration="none" x="0" y="210">UNREGISTERED</text><text fill="#eeeeee" stroke="none" font-family="Arial" font-size="24px" font-style="normal" font-weight="normal" text-decoration="none" x="0" y="240">UNREGISTERED</text><text fill="#eeeeee" stroke="none" font-family="Arial" font-size="24px" font-style="normal" font-weight="normal" text-decoration="none" x="0" y="270">UNREGISTERED</text><text fill="#eeeeee" stroke="none" font-family="Arial" font-size="24px" font-style="normal" font-weight="normal" text-decoration="none" x="0" y="300">UNREGISTERED</text><text fill="#eeeeee" stroke="none" font-family="Arial" font-size="24px" font-style="normal" font-weight="normal" text-decoration="none" x="0" y="330">UNREGISTERED</text><text fill="#eeeeee" stroke="none" font-family="Arial" font-size="24px" font-style="normal" font-weight="normal" text-decoration="none" x="0" y="360">UNREGISTERED</text><text fill="#eeeeee" stroke="none" font-family="Arial" font-size="24px" font-style="normal" font-weight="normal" text-decoration="none" x="0" y="390">UNREGISTERED</text><text fill="#eeeeee" stroke="none" font-family="Arial" font-size="24px" font-style="normal" font-weight="normal" text-decoration="none" x="0" y="420">UNREGISTERED</text><text fill="#eeeeee" stroke="none" font-family="Arial" font-size="24px" font-style="normal" font-weight="normal" text-decoration="none" x="0" y="450">UNREGISTERED</text><text fill="#eeeeee" stroke="none" font-family="Arial" font-size="24px" font-style="normal" font-weight="normal" text-decoration="none" x="0" y="480">UNREGISTERED</text><text fill="#eeeeee" stroke="none" font-family="Arial" font-size="24px" font-style="normal" font-weight="normal" text-decoration="none" x="0" y="510">UNREGISTERED</text><text fill="#eeeeee" stroke="none" font-family="Arial" font-size="24px" font-style="normal" font-weight="normal" text-decoration="none" x="0" y="540">UNREGISTERED</text><text fill="#eeeeee" stroke="none" font-family="Arial" font-size="24px" font-style="normal" font-weight="normal" text-decoration="none" x="0" y="570">UNREGISTERED</text><text fill="#eeeeee" stroke="none" font-family="Arial" font-size="24px" font-style="normal" font-weight="normal" text-decoration="none" x="0" y="600">UNREGISTERED</text><text fill="#eeeeee" stroke="none" font-family="Arial" font-size="24px" font-style="normal" font-weight="normal" text-decoration="none" x="0" y="630">UNREGISTERED</text><text fill="#eeeeee" stroke="none" font-family="Arial" font-size="24px" font-style="normal" font-weight="normal" text-decoration="none" x="0" y="660">UNREGISTERED</text><text fill="#eeeeee" stroke="none" font-family="Arial" font-size="24px" font-style="normal" font-weight="normal" text-decoration="none" x="200" y="0">UNREGISTERED</text><text fill="#eeeeee" stroke="none" font-family="Arial" font-size="24px" font-style="normal" font-weight="normal" text-decoration="none" x="200" y="30">UNREGISTERED</text><text fill="#eeeeee" stroke="none" font-family="Arial" font-size="24px" font-style="normal" font-weight="normal" text-decoration="none" x="200" y="60">UNREGISTERED</text><text fill="#eeeeee" stroke="none" font-family="Arial" font-size="24px" font-style="normal" font-weight="normal" text-decoration="none" x="200" y="90">UNREGISTERED</text><text fill="#eeeeee" stroke="none" font-family="Arial" font-size="24px" font-style="normal" font-weight="normal" text-decoration="none" x="200" y="120">UNREGISTERED</text><text fill="#eeeeee" stroke="none" font-family="Arial" font-size="24px" font-style="normal" font-weight="normal" text-decoration="none" x="200" y="150">UNREGISTERED</text><text fill="#eeeeee" stroke="none" font-family="Arial" font-size="24px" font-style="normal" font-weight="normal" text-decoration="none" x="200" y="180">UNREGISTERED</text><text fill="#eeeeee" stroke="none" font-family="Arial" font-size="24px" font-style="normal" font-weight="normal" text-decoration="none" x="200" y="210">UNREGISTERED</text><text fill="#eeeeee" stroke="none" font-family="Arial" font-size="24px" font-style="normal" font-weight="normal" text-decoration="none" x="200" y="240">UNREGISTERED</text><text fill="#eeeeee" stroke="none" font-family="Arial" font-size="24px" font-style="normal" font-weight="normal" text-decoration="none" x="200" y="270">UNREGISTERED</text><text fill="#eeeeee" stroke="none" font-family="Arial" font-size="24px" font-style="normal" font-weight="normal" text-decoration="none" x="200" y="300">UNREGISTERED</text><text fill="#eeeeee" stroke="none" font-family="Arial" font-size="24px" font-style="normal" font-weight="normal" text-decoration="none" x="200" y="330">UNREGISTERED</text><text fill="#eeeeee" stroke="none" font-family="Arial" font-size="24px" font-style="normal" font-weight="normal" text-decoration="none" x="200" y="360">UNREGISTERED</text><text fill="#eeeeee" stroke="none" font-family="Arial" font-size="24px" font-style="normal" font-weight="normal" text-decoration="none" x="200" y="390">UNREGISTERED</text><text fill="#eeeeee" stroke="none" font-family="Arial" font-size="24px" font-style="normal" font-weight="normal" text-decoration="none" x="200" y="420">UNREGISTERED</text><text fill="#eeeeee" stroke="none" font-family="Arial" font-size="24px" font-style="normal" font-weight="normal" text-decoration="none" x="200" y="450">UNREGISTERED</text><text fill="#eeeeee" stroke="none" font-family="Arial" font-size="24px" font-style="normal" font-weight="normal" text-decoration="none" x="200" y="480">UNREGISTERED</text><text fill="#eeeeee" stroke="none" font-family="Arial" font-size="24px" font-style="normal" font-weight="normal" text-decoration="none" x="200" y="510">UNREGISTERED</text><text fill="#eeeeee" stroke="none" font-family="Arial" font-size="24px" font-style="normal" font-weight="normal" text-decoration="none" x="200" y="540">UNREGISTERED</text><text fill="#eeeeee" stroke="none" font-family="Arial" font-size="24px" font-style="normal" font-weight="normal" text-decoration="none" x="200" y="570">UNREGISTERED</text><text fill="#eeeeee" stroke="none" font-family="Arial" font-size="24px" font-style="normal" font-weight="normal" text-decoration="none" x="200" y="600">UNREGISTERED</text><text fill="#eeeeee" stroke="none" font-family="Arial" font-size="24px" font-style="normal" font-weight="normal" text-decoration="none" x="200" y="630">UNREGISTERED</text><text fill="#eeeeee" stroke="none" font-family="Arial" font-size="24px" font-style="normal" font-weight="normal" text-decoration="none" x="200" y="660">UNREGISTERED</text><text fill="#eeeeee" stroke="none" font-family="Arial" font-size="24px" font-style="normal" font-weight="normal" text-decoration="none" x="400" y="0">UNREGISTERED</text><text fill="#eeeeee" stroke="none" font-family="Arial" font-size="24px" font-style="normal" font-weight="normal" text-decoration="none" x="400" y="30">UNREGISTERED</text><text fill="#eeeeee" stroke="none" font-family="Arial" font-size="24px" font-style="normal" font-weight="normal" text-decoration="none" x="400" y="60">UNREGISTERED</text><text fill="#eeeeee" stroke="none" font-family="Arial" font-size="24px" font-style="normal" font-weight="normal" text-decoration="none" x="400" y="90">UNREGISTERED</text><text fill="#eeeeee" stroke="none" font-family="Arial" font-size="24px" font-style="normal" font-weight="normal" text-decoration="none" x="400" y="120">UNREGISTERED</text><text fill="#eeeeee" stroke="none" font-family="Arial" font-size="24px" font-style="normal" font-weight="normal" text-decoration="none" x="400" y="150">UNREGISTERED</text><text fill="#eeeeee" stroke="none" font-family="Arial" font-size="24px" font-style="normal" font-weight="normal" text-decoration="none" x="400" y="180">UNREGISTERED</text><text fill="#eeeeee" stroke="none" font-family="Arial" font-size="24px" font-style="normal" font-weight="normal" text-decoration="none" x="400" y="210">UNREGISTERED</text><text fill="#eeeeee" stroke="none" font-family="Arial" font-size="24px" font-style="normal" font-weight="normal" text-decoration="none" x="400" y="240">UNREGISTERED</text><text fill="#eeeeee" stroke="none" font-family="Arial" font-size="24px" font-style="normal" font-weight="normal" text-decoration="none" x="400" y="270">UNREGISTERED</text><text fill="#eeeeee" stroke="none" font-family="Arial" font-size="24px" font-style="normal" font-weight="normal" text-decoration="none" x="400" y="300">UNREGISTERED</text><text fill="#eeeeee" stroke="none" font-family="Arial" font-size="24px" font-style="normal" font-weight="normal" text-decoration="none" x="400" y="330">UNREGISTERED</text><text fill="#eeeeee" stroke="none" font-family="Arial" font-size="24px" font-style="normal" font-weight="normal" text-decoration="none" x="400" y="360">UNREGISTERED</text><text fill="#eeeeee" stroke="none" font-family="Arial" font-size="24px" font-style="normal" font-weight="normal" text-decoration="none" x="400" y="390">UNREGISTERED</text><text fill="#eeeeee" stroke="none" font-family="Arial" font-size="24px" font-style="normal" font-weight="normal" text-decoration="none" x="400" y="420">UNREGISTERED</text><text fill="#eeeeee" stroke="none" font-family="Arial" font-size="24px" font-style="normal" font-weight="normal" text-decoration="none" x="400" y="450">UNREGISTERED</text><text fill="#eeeeee" stroke="none" font-family="Arial" font-size="24px" font-style="normal" font-weight="normal" text-decoration="none" x="400" y="480">UNREGISTERED</text><text fill="#eeeeee" stroke="none" font-family="Arial" font-size="24px" font-style="normal" font-weight="normal" text-decoration="none" x="400" y="510">UNREGISTERED</text><text fill="#eeeeee" stroke="none" font-family="Arial" font-size="24px" font-style="normal" font-weight="normal" text-decoration="none" x="400" y="540">UNREGISTERED</text><text fill="#eeeeee" stroke="none" font-family="Arial" font-size="24px" font-style="normal" font-weight="normal" text-decoration="none" x="400" y="570">UNREGISTERED</text><text fill="#eeeeee" stroke="none" font-family="Arial" font-size="24px" font-style="normal" font-weight="normal" text-decoration="none" x="400" y="600">UNREGISTERED</text><text fill="#eeeeee" stroke="none" font-family="Arial" font-size="24px" font-style="normal" font-weight="normal" text-decoration="none" x="400" y="630">UNREGISTERED</text><text fill="#eeeeee" stroke="none" font-family="Arial" font-size="24px" font-style="normal" font-weight="normal" text-decoration="none" x="400" y="660">UNREGISTERED</text><g transform="translate(-54,-38) scale(1,1)"><rect fill="#ffffff" stroke="none" x="64" y="48" width="192" height="21"/></g><g transform="translate(-54,-38) scale(1,1)"><path fill="none" stroke="#000000" d="M 64 48 L 256 48 L 256 69 L 64 69 L 64 48 Z Z" stroke-miterlimit="10" stroke-width="2"/></g><g transform="translate(-54,-38) scale(1,1)"><path fill="none" stroke="#000000" d="M 64 696 L 64 48 L 256 48 L 256 696" stroke-miterlimit="10" stroke-width="2"/></g><g transform="translate(-54,-38) scale(1,1)"><g><path fill="none" stroke="none"/><text fill="#000000" stroke="none" font-family="Arial" font-size="13px" font-style="normal" font-weight="normal" text-decoration="none" x="139.049560546875" y="65">Faculty</text></g></g><g transform="translate(-54,-38) scale(1,1)"><rect fill="#ffffff" stroke="none" x="256" y="48" width="179.0908203125" height="21"/></g><g transform="translate(-54,-38) scale(1,1)"><path fill="none" stroke="#000000" d="M 256 48 L 435.0908203125 48 L 435.0908203125 69 L 256 69 L 256 48 Z Z" stroke-miterlimit="10" stroke-width="2"/></g><g transform="translate(-54,-38) scale(1,1)"><path fill="none" stroke="#000000" d="M 256 688 L 256 48 L 435.0908203125 48 L 435.0908203125 688" stroke-miterlimit="10" stroke-width="2"/></g><g transform="translate(-54,-38) scale(1,1)"><g><path fill="none" stroke="none"/><text fill="#000000" stroke="none" font-family="Arial" font-size="13px" font-style="normal" font-weight="normal" text-decoration="none" x="330.380859375" y="65">Form</text></g></g><g transform="translate(-54,-38) scale(1,1)"><rect fill="#ffffff" stroke="none" x="432" y="48" width="152" height="21"/></g><g transform="translate(-54,-38) scale(1,1)"><path fill="none" stroke="#000000" d="M 432 48 L 584 48 L 584 69 L 432 69 L 432 48 Z Z" stroke-miterlimit="10" stroke-width="2"/></g><g transform="translate(-54,-38) scale(1,1)"><path fill="none" stroke="#000000" d="M 432 680 L 432 48 L 584 48 L 584 680" stroke-miterlimit="10" stroke-width="2"/></g><g transform="translate(-54,-38) scale(1,1)"><g><path fill="none" stroke="none"/><text fill="#000000" stroke="none" font-family="Arial" font-size="13px" font-style="normal" font-weight="normal" text-decoration="none" x="480.175048828125" y="65">Database</text></g></g><g transform="translate(-54,-38) scale(1,1)"><path fill="#C0C0C0" stroke="none" d="M 145 143 L 184 143 Q 194 143 194 153 L 194 173 Q 194 183 184 183 L 145 183 Q 135 183 135 173 L 135 153 Q 135 143 145 143 Z" opacity="0.2"/></g><g transform="translate(-54,-38) scale(1,1)"><path fill="#ffffff" stroke="none" d="M 138 136 L 177 136 Q 187 136 187 146 L 187 166 Q 187 176 177 176 L 138 176 Q 128 176 128 166 L 128 146 Q 128 136 138 136 Z"/></g><g transform="translate(-54,-38) scale(1,1)"><path fill="none" stroke="#000000" d="M 138 136 L 177 136 Q 187 136 187 146 L 187 166 Q 187 176 177 176 L 138 176 Q 128 176 128 166 L 128 146 Q 128 136 138 136 Z" stroke-miterlimit="10"/></g><g transform="translate(-54,-38) scale(1,1)"><g><path fill="none" stroke="none"/><text fill="#000000" stroke="none" font-family="Arial" font-size="13px" font-style="normal" font-weight="bold" text-decoration="none" x="143.766845703125" y="155.5">login</text></g></g><g transform="translate(-54,-38) scale(1,1)"><path fill="#C0C0C0" stroke="none" d="M 281 143 L 416.63720703125 143 Q 426.63720703125 143 426.63720703125 153 L 426.63720703125 173 Q 426.63720703125 183 416.63720703125 183 L 281 183 Q 271 183 271 173 L 271 153 Q 271 143 281 143 Z" opacity="0.2"/></g><g transform="translate(-54,-38) scale(1,1)"><path fill="#ffffff" stroke="none" d="M 274 136 L 409.63720703125 136 Q 419.63720703125 136 419.63720703125 146 L 419.63720703125 166 Q 419.63720703125 176 409.63720703125 176 L 274 176 Q 264 176 264 166 L 264 146 Q 264 136 274 136 Z"/></g><g transform="translate(-54,-38) scale(1,1)"><path fill="none" stroke="#000000" d="M 274 136 L 409.63720703125 136 Q 419.63720703125 136 419.63720703125 146 L 419.63720703125 166 Q 419.63720703125 176 409.63720703125 176 L 274 176 Q 264 176 264 166 L 264 146 Q 264 136 274 136 Z" stroke-miterlimit="10"/></g><g transform="translate(-54,-38) scale(1,1)"><g><path fill="none" stroke="none"/><text fill="#000000" stroke="none" font-family="Arial" font-size="13px" font-style="normal" font-weight="bold" text-decoration="none" x="275.352294921875" y="155.5">Fill instructional Details</text></g></g><g transform="translate(-54,-38) scale(1,1)"><path fill="#C0C0C0" stroke="none" d="M 297 223 L 396.55078125 223 Q 406.55078125 223 406.55078125 233 L 406.55078125 253 Q 406.55078125 263 396.55078125 263 L 297 263 Q 287 263 287 253 L 287 233 Q 287 223 297 223 Z" opacity="0.2"/></g><g transform="translate(-54,-38) scale(1,1)"><path fill="#ffffff" stroke="none" d="M 290 216 L 389.55078125 216 Q 399.55078125 216 399.55078125 226 L 399.55078125 246 Q 399.55078125 256 389.55078125 256 L 290 256 Q 280 256 280 246 L 280 226 Q 280 216 290 216 Z"/></g><g transform="translate(-54,-38) scale(1,1)"><path fill="none" stroke="#000000" d="M 290 216 L 389.55078125 216 Q 399.55078125 216 399.55078125 226 L 399.55078125 246 Q 399.55078125 256 389.55078125 256 L 290 256 Q 280 256 280 246 L 280 226 Q 280 216 290 216 Z" stroke-miterlimit="10"/></g><g transform="translate(-54,-38) scale(1,1)"><g><path fill="none" stroke="none"/><text fill="#000000" stroke="none" font-family="Arial" font-size="13px" font-style="normal" font-weight="bold" text-decoration="none" x="288.84814453125" y="235.5">Fill research work</text></g></g><g transform="translate(-54,-38) scale(1,1)"><path fill="#C0C0C0" stroke="none" d="M 305 311 L 385.736328125 311 Q 395.736328125 311 395.736328125 321 L 395.736328125 341 Q 395.736328125 351 385.736328125 351 L 305 351 Q 295 351 295 341 L 295 321 Q 295 311 305 311 Z" opacity="0.2"/></g><g transform="translate(-54,-38) scale(1,1)"><path fill="#ffffff" stroke="none" d="M 298 304 L 378.736328125 304 Q 388.736328125 304 388.736328125 314 L 388.736328125 334 Q 388.736328125 344 378.736328125 344 L 298 344 Q 288 344 288 334 L 288 314 Q 288 304 298 304 Z"/></g><g transform="translate(-54,-38) scale(1,1)"><path fill="none" stroke="#000000" d="M 298 304 L 378.736328125 304 Q 388.736328125 304 388.736328125 314 L 388.736328125 334 Q 388.736328125 344 378.736328125 344 L 298 344 Q 288 344 288 334 L 288 314 Q 288 304 298 304 Z" stroke-miterlimit="10"/></g><g transform="translate(-54,-38) scale(1,1)"><g><path fill="none" stroke="none"/><text fill="#000000" stroke="none" font-family="Arial" font-size="13px" font-style="normal" font-weight="bold" text-decoration="none" x="295.75634765625" y="323.5">Fill R&amp;D works</text></g></g><g transform="translate(-54,-38) scale(1,1)"><path fill="#C0C0C0" stroke="none" d="M 289 383 L 422.4599609375 383 Q 432.4599609375 383 432.4599609375 393 L 432.4599609375 413 Q 432.4599609375 423 422.4599609375 423 L 289 423 Q 279 423 279 413 L 279 393 Q 279 383 289 383 Z" opacity="0.2"/></g><g transform="translate(-54,-38) scale(1,1)"><path fill="#ffffff" stroke="none" d="M 282 376 L 415.4599609375 376 Q 425.4599609375 376 425.4599609375 386 L 425.4599609375 406 Q 425.4599609375 416 415.4599609375 416 L 282 416 Q 272 416 272 406 L 272 386 Q 272 376 282 376 Z"/></g><g transform="translate(-54,-38) scale(1,1)"><path fill="none" stroke="#000000" d="M 282 376 L 415.4599609375 376 Q 425.4599609375 376 425.4599609375 386 L 425.4599609375 406 Q 425.4599609375 416 415.4599609375 416 L 282 416 Q 272 416 272 406 L 272 386 Q 272 376 282 376 Z" stroke-miterlimit="10"/></g><g transform="translate(-54,-38) scale(1,1)"><g><path fill="none" stroke="none"/><text fill="#000000" stroke="none" font-family="Arial" font-size="13px" font-style="normal" font-weight="bold" text-decoration="none" x="282.619140625" y="395.5">Fill organizational work</text></g></g><g transform="translate(-54,-38) scale(1,1)"><path fill="#C0C0C0" stroke="none" d="M 289 463 L 402.9853515625 463 Q 412.9853515625 463 412.9853515625 473 L 412.9853515625 493 Q 412.9853515625 503 402.9853515625 503 L 289 503 Q 279 503 279 493 L 279 473 Q 279 463 289 463 Z" opacity="0.2"/></g><g transform="translate(-54,-38) scale(1,1)"><path fill="#ffffff" stroke="none" d="M 282 456 L 395.9853515625 456 Q 405.9853515625 456 405.9853515625 466 L 405.9853515625 486 Q 405.9853515625 496 395.9853515625 496 L 282 496 Q 272 496 272 486 L 272 466 Q 272 456 282 456 Z"/></g><g transform="translate(-54,-38) scale(1,1)"><path fill="none" stroke="#000000" d="M 282 456 L 395.9853515625 456 Q 405.9853515625 456 405.9853515625 466 L 405.9853515625 486 Q 405.9853515625 496 395.9853515625 496 L 282 496 Q 272 496 272 486 L 272 466 Q 272 456 282 456 Z" stroke-miterlimit="10"/></g><g transform="translate(-54,-38) scale(1,1)"><g><path fill="none" stroke="none"/><text fill="#000000" stroke="none" font-family="Arial" font-size="13px" font-style="normal" font-weight="bold" text-decoration="none" x="281.911376953125" y="475.5">fill mangerial details</text></g></g><g transform="translate(-54,-38) scale(1,1)"><path fill="#C0C0C0" stroke="none" d="M 313 527 L 385.80810546875 527 Q 395.80810546875 527 395.80810546875 537 L 395.80810546875 557 Q 395.80810546875 567 385.80810546875 567 L 313 567 Q 303 567 303 557 L 303 537 Q 303 527 313 527 Z" opacity="0.2"/></g><g transform="translate(-54,-38) scale(1,1)"><path fill="#ffffff" stroke="none" d="M 306 520 L 378.80810546875 520 Q 388.80810546875 520 388.80810546875 530 L 388.80810546875 550 Q 388.80810546875 560 378.80810546875 560 L 306 560 Q 296 560 296 550 L 296 530 Q 296 520 306 520 Z"/></g><g transform="translate(-54,-38) scale(1,1)"><path fill="none" stroke="#000000" d="M 306 520 L 378.80810546875 520 Q 388.80810546875 520 388.80810546875 530 L 388.80810546875 550 Q 388.80810546875 560 378.80810546875 560 L 306 560 Q 296 560 296 550 L 296 530 Q 296 520 306 520 Z" stroke-miterlimit="10"/></g><g transform="translate(-54,-38) scale(1,1)"><g><path fill="none" stroke="none"/><text fill="#000000" stroke="none" font-family="Arial" font-size="13px" font-style="normal" font-weight="bold" text-decoration="none" x="304.47998046875" y="539.5">fill extra work</text></g></g><g transform="translate(-54,-38) scale(1,1)"><path fill="#C0C0C0" stroke="none" d="M 481 527 L 543.71533203125 527 Q 553.71533203125 527 553.71533203125 537 L 553.71533203125 557 Q 553.71533203125 567 543.71533203125 567 L 481 567 Q 471 567 471 557 L 471 537 Q 471 527 481 527 Z" opacity="0.2"/></g><g transform="translate(-54,-38) scale(1,1)"><path fill="#ffffff" stroke="none" d="M 474 520 L 536.71533203125 520 Q 546.71533203125 520 546.71533203125 530 L 546.71533203125 550 Q 546.71533203125 560 536.71533203125 560 L 474 560 Q 464 560 464 550 L 464 530 Q 464 520 474 520 Z"/></g><g transform="translate(-54,-38) scale(1,1)"><path fill="none" stroke="#000000" d="M 474 520 L 536.71533203125 520 Q 546.71533203125 520 546.71533203125 530 L 546.71533203125 550 Q 546.71533203125 560 536.71533203125 560 L 474 560 Q 464 560 464 550 L 464 530 Q 464 520 474 520 Z" stroke-miterlimit="10"/></g><g transform="translate(-54,-38) scale(1,1)"><g><path fill="none" stroke="none"/><text fill="#000000" stroke="none" font-family="Arial" font-size="13px" font-style="normal" font-weight="bold" text-decoration="none" x="471.03271484375" y="539.5">save details</text></g></g><g transform="translate(-54,-38) scale(1,1)"><path fill="#C0C0C0" stroke="none" d="M 473 615 L 559.50634765625 615 Q 569.50634765625 615 569.50634765625 625 L 569.50634765625 645 Q 569.50634765625 655 559.50634765625 655 L 473 655 Q 463 655 463 645 L 463 625 Q 463 615 473 615 Z" opacity="0.2"/></g><g transform="translate(-54,-38) scale(1,1)"><path fill="#ffffff" stroke="none" d="M 466 608 L 552.50634765625 608 Q 562.50634765625 608 562.50634765625 618 L 562.50634765625 638 Q 562.50634765625 648 552.50634765625 648 L 466 648 Q 456 648 456 638 L 456 618 Q 456 608 466 608 Z"/></g><g transform="translate(-54,-38) scale(1,1)"><path fill="none" stroke="#000000" d="M 466 608 L 552.50634765625 608 Q 562.50634765625 608 562.50634765625 618 L 562.50634765625 638 Q 562.50634765625 648 552.50634765625 648 L 466 648 Q 456 648 456 638 L 456 618 Q 456 608 466 608 Z" stroke-miterlimit="10"/></g><g transform="translate(-54,-38) scale(1,1)"><g><path fill="none" stroke="none"/><text fill="#000000" stroke="none" font-family="Arial" font-size="13px" font-style="normal" font-weight="bold" text-decoration="none" x="464.080078125" y="627.5">genrate pdf doc</text></g></g><g transform="translate(-54,-38) scale(1,1)"><path fill="#C0C0C0" stroke="none" d="M 121 607 L 191.37060546875 607 Q 201.37060546875 607 201.37060546875 617 L 201.37060546875 637 Q 201.37060546875 647 191.37060546875 647 L 121 647 Q 111 647 111 637 L 111 617 Q 111 607 121 607 Z" opacity="0.2"/></g><g transform="translate(-54,-38) scale(1,1)"><path fill="#ffffff" stroke="none" d="M 114 600 L 184.37060546875 600 Q 194.37060546875 600 194.37060546875 610 L 194.37060546875 630 Q 194.37060546875 640 184.37060546875 640 L 114 640 Q 104 640 104 630 L 104 610 Q 104 600 114 600 Z"/></g><g transform="translate(-54,-38) scale(1,1)"><path fill="none" stroke="#000000" d="M 114 600 L 184.37060546875 600 Q 194.37060546875 600 194.37060546875 610 L 194.37060546875 630 Q 194.37060546875 640 184.37060546875 640 L 114 640 Q 104 640 104 630 L 104 610 Q 104 600 114 600 Z" stroke-miterlimit="10"/></g><g transform="translate(-54,-38) scale(1,1)"><g><path fill="none" stroke="none"/><text fill="#000000" stroke="none" font-family="Arial" font-size="13px" font-style="normal" font-weight="bold" text-decoration="none" x="111.968994140625" y="619.5">Take printout</text></g></g><g transform="translate(-54,-38) scale(1,1)"><path fill="#C0C0C0" stroke="none" d="M 151 104.5 C 151 99.2532944 155.2532944 95 160.5 95 C 165.7467056 95 170 99.2532944 170 104.5 C 170 109.7467056 165.7467056 114 160.5 114 C 155.2532944 114 151 109.7467056 151 104.5 Z" opacity="0.2"/></g><g transform="translate(-54,-38) scale(1,1)"><path fill="#000000" stroke="none" d="M 144 97.5 C 144 92.2532944 148.2532944 88 153.5 88 C 158.7467056 88 163 92.2532944 163 97.5 C 163 102.7467056 158.7467056 107 153.5 107 C 148.2532944 107 144 102.7467056 144 97.5 Z"/></g><g transform="translate(-54,-38) scale(1,1)"><path fill="#C0C0C0" stroke="none" d="M 151 691.5 C 151 684.59644 156.59644 679 163.5 679 C 170.40356 679 176 684.59644 176 691.5 C 176 698.40356 170.40356 704 163.5 704 C 156.59644 704 151 698.40356 151 691.5 Z" opacity="0.2"/></g><g transform="translate(-54,-38) scale(1,1)"><path fill="none" stroke="#000000" d="M 144 684.5 C 144 677.59644 149.59644 672 156.5 672 C 163.40356 672 169 677.59644 169 684.5 C 169 691.40356 163.40356 697 156.5 697 C 149.59644 697 144 691.40356 144 684.5 Z" stroke-miterlimit="10"/></g><g transform="translate(-54,-38) scale(1,1)"><path fill="#000000" stroke="none" d="M 149 684.5 C 149 680.357864 152.357864 677 156.5 677 C 160.642136 677 164 680.357864 164 684.5 C 164 688.642136 160.642136 692 156.5 692 C 152.357864 692 149 688.642136 149 684.5 Z"/></g><g transform="translate(-54,-38) scale(1,1)"><path fill="none" stroke="#000000" d="M 153 107 L 153 136" stroke-miterlimit="10"/></g><g transform="translate(-54,-38) scale(1,1)"><path fill="none" stroke="#000000" d="M 148.790482243984 125.83732514237585 L 153 136 L 157.209517756016 125.83732514237585" stroke-miterlimit="10"/></g><g transform="translate(-54,-38) scale(1,1)"><path fill="none" stroke="#000000" d="M 336 176 L 336 216" stroke-miterlimit="10"/></g><g transform="translate(-54,-38) scale(1,1)"><path fill="none" stroke="#000000" d="M 331.790482243984 205.83732514237585 L 336 216 L 340.209517756016 205.83732514237585" stroke-miterlimit="10"/></g><g transform="translate(-54,-38) scale(1,1)"><path fill="none" stroke="#000000" d="M 336 256 L 336 304" stroke-miterlimit="10"/></g><g transform="translate(-54,-38) scale(1,1)"><path fill="none" stroke="#000000" d="M 331.790482243984 293.83732514237585 L 336 304 L 340.209517756016 293.83732514237585" stroke-miterlimit="10"/></g><g transform="translate(-54,-38) scale(1,1)"><path fill="none" stroke="#000000" d="M 338 344 L 338 376" stroke-miterlimit="10"/></g><g transform="translate(-54,-38) scale(1,1)"><path fill="none" stroke="#000000" d="M 333.790482243984 365.83732514237585 L 338 376 L 342.209517756016 365.83732514237585" stroke-miterlimit="10"/></g><g transform="translate(-54,-38) scale(1,1)"><path fill="none" stroke="#000000" d="M 336 416 L 336 456" stroke-miterlimit="10"/></g><g transform="translate(-54,-38) scale(1,1)"><path fill="none" stroke="#000000" d="M 331.790482243984 445.83732514237585 L 336 456 L 340.209517756016 445.83732514237585" stroke-miterlimit="10"/></g><g transform="translate(-54,-38) scale(1,1)"><path fill="none" stroke="#000000" d="M 336 496 L 336 520" stroke-miterlimit="10"/></g><g transform="translate(-54,-38) scale(1,1)"><path fill="none" stroke="#000000" d="M 331.790482243984 509.83732514237585 L 336 520 L 340.209517756016 509.83732514237585" stroke-miterlimit="10"/></g><g transform="translate(-54,-38) scale(1,1)"><path fill="none" stroke="#000000" d="M 389 540 L 464 540" stroke-miterlimit="10"/></g><g transform="translate(-54,-38) scale(1,1)"><path fill="none" stroke="#000000" d="M 453.83732514237585 544.209517756016 L 464 540 L 453.83732514237585 535.790482243984" stroke-miterlimit="10"/></g><g transform="translate(-54,-38) scale(1,1)"><path fill="none" stroke="#000000" d="M 505 560 L 505 608" stroke-miterlimit="10"/></g><g transform="translate(-54,-38) scale(1,1)"><path fill="none" stroke="#000000" d="M 500.790482243984 597.8373251423759 L 505 608 L 509.209517756016 597.8373251423759" stroke-miterlimit="10"/></g><g transform="translate(-54,-38) scale(1,1)"><path fill="none" stroke="#000000" d="M 456 624 L 194 624" stroke-miterlimit="10"/></g><g transform="translate(-54,-38) scale(1,1)"><path fill="none" stroke="#000000" d="M 204.16267485762415 619.790482243984 L 194 624 L 204.16267485762415 628.209517756016" stroke-miterlimit="10"/></g><g transform="translate(-54,-38) scale(1,1)"><path fill="none" stroke="#000000" d="M 160 640 L 160 672" stroke-miterlimit="10"/></g><g transform="translate(-54,-38) scale(1,1)"><path fill="none" stroke="#000000" d="M 155.790482243984 661.8373251423759 L 160 672 L 164.209517756016 661.8373251423759" stroke-miterlimit="10"/></g><g transform="translate(-54,-38) scale(1,1)"><path fill="none" stroke="#000000" d="M 187 156 L 264 156" stroke-miterlimit="10"/></g><g transform="translate(-54,-38) scale(1,1)"><path fill="none" stroke="#000000" d="M 253.83732514237585 160.209517756016 L 264 156 L 253.83732514237585 151.790482243984" stroke-miterlimit="10"/></g></g></svg>