<svg version="1.1" xmlns="http://www.w3.org/2000/svg" xmlns:xlink="http://www.w3.org/1999/xlink" width="1051" height="276"><defs/><g><text fill="#eeeeee" stroke="none" font-family="Arial" font-size="24px" font-style="normal" font-weight="normal" text-decoration="none" x="0" y="0">UNREGISTERED</text><text fill="#eeeeee" stroke="none" font-family="Arial" font-size="24px" font-style="normal" font-weight="normal" text-decoration="none" x="0" y="30">UNREGISTERED</text><text fill="#eeeeee" stroke="none" font-family="Arial" font-size="24px" font-style="normal" font-weight="normal" text-decoration="none" x="0" y="60">UNREGISTERED</text><text fill="#eeeeee" stroke="none" font-family="Arial" font-size="24px" font-style="normal" font-weight="normal" text-decoration="none" x="0" y="90">UNREGISTERED</text><text fill="#eeeeee" stroke="none" font-family="Arial" font-size="24px" font-style="normal" font-weight="normal" text-decoration="none" x="0" y="120">UNREGISTERED</text><text fill="#eeeeee" stroke="none" font-family="Arial" font-size="24px" font-style="normal" font-weight="normal" text-decoration="none" x="0" y="150">UNREGISTERED</text><text fill="#eeeeee" stroke="none" font-family="Arial" font-size="24px" font-style="normal" font-weight="normal" text-decoration="none" x="0" y="180">UNREGISTERED</text><text fill="#eeeeee" stroke="none" font-family="Arial" font-size="24px" font-style="normal" font-weight="normal" text-decoration="none" x="0" y="210">UNREGISTERED</text><text fill="#eeeeee" stroke="none" font-family="Arial" font-size="24px" font-style="normal" font-weight="normal" text-decoration="none" x="0" y="240">UNREGISTERED</text><text fill="#eeeeee" stroke="none" font-family="Arial" font-size="24px" font-style="normal" font-weight="normal" text-decoration="none" x="0" y="270">UNREGISTERED</text><text fill="#eeeeee" stroke="none" font-family="Arial" font-size="24px" font-style="normal" font-weight="normal" text-decoration="none" x="200" y="0">UNREGISTERED</text><text fill="#eeeeee" stroke="none" font-family="Arial" font-size="24px" font-style="normal" font-weight="normal" text-decoration="none" x="200" y="30">UNREGISTERED</text><text fill="#eeeeee" stroke="none" font-family="Arial" font-size="24px" font-style="normal" font-weight="normal" text-decoration="none" x="200" y="60">UNREGISTERED</text><text fill="#eeeeee" stroke="none" font-family="Arial" font-size="24px" font-style="normal" font-weight="normal" text-decoration="none" x="200" y="90">UNREGISTERED</text><text fill="#eeeeee" stroke="none" font-family="Arial" font-size="24px" font-style="normal" font-weight="normal" text-decoration="none" x="200" y="120">UNREGISTERED</text><text fill="#eeeeee" stroke="none" font-family="Arial" font-size="24px" font-style="normal" font-weight="normal" text-decoration="none" x="200" y="150">UNREGISTERED</text><text fill="#eeeeee" stroke="none" font-family="Arial" font-size="24px" font-style="normal" font-weight="normal" text-decoration="none" x="200" y="180">UNREGISTERED</text><text fill="#eeeeee" stroke="none" font-family="Arial" font-size="24px" font-style="normal" font-weight="normal" text-decoration="none" x="200" y="210">UNREGISTERED</text><text fill="#eeeeee" stroke="none" font-family="Arial" font-size="24px" font-style="normal" font-weight="normal" text-decoration="none" x="200" y="240">UNREGISTERED</text><text fill="#eeeeee" stroke="none" font-family="Arial" font-size="24px" font-style="normal" font-weight="normal" text-decoration="none" x="200" y="270">UNREGISTERED</text><text fill="#eeeeee" stroke="none" font-family="Arial" font-size="24px" font-style="normal" font-weight="normal" text-decoration="none" x="400" y="0">UNREGISTERED</text><text fill="#eeeeee" stroke="none" font-family="Arial" font-size="24px" font-style="normal" font-weight="normal" text-decoration="none" x="400" y="30">UNREGISTERED</text><text fill="#eeeeee" stroke="none" font-family="Arial" font-size="24px" font-style="normal" font-weight="normal" text-decoration="none" x="400" y="60">UNREGISTERED</text><text fill="#eeeeee" stroke="none" font-family="Arial" font-size="24px" font-style="normal" font-weight="normal" text-decoration="none" x="400" y="90">UNREGISTERED</text><text fill="#eeeeee" stroke="none" font-family="Arial" font-size="24px" font-style="normal" font-weight="normal" text-decoration="none" x="400" y="120">UNREGISTERED</text><text fill="#eeeeee" stroke="none" font-family="Arial" font-size="24px" font-style="normal" font-weight="normal" text-decoration="none" x="400" y="150">UNREGISTERED</text><text fill="#eeeeee" stroke="none" font-family="Arial" font-size="24px" font-style="normal" font-weight="normal" text-decoration="none" x="400" y="180">UNREGISTERED</text><text fill="#eeeeee" stroke="none" font-family="Arial" font-size="24px" font-style="normal" font-weight="normal" text-decoration="none" x="400" y="210">UNREGISTERED</text><text fill="#eeeeee" stroke="none" font-family="Arial" font-size="24px" font-style="normal" font-weight="normal" text-decoration="none" x="400" y="240">UNREGISTERED</text><text fill="#eeeeee" stroke="none" font-family="Arial" font-size="24px" font-style="normal" font-weight="normal" text-decoration="none" x="400" y="270">UNREGISTERED</text><text fill="#eeeeee" stroke="none" font-family="Arial" font-size="24px" font-style="normal" font-weight="normal" text-decoration="none" x="600" y="0">UNREGISTERED</text><text fill="#eeeeee" stroke="none" font-family="Arial" font-size="24px" font-style="normal" font-weight="normal" text-decoration="none" x="600" y="30">UNREGISTERED</text><text fill="#eeeeee" stroke="none" font-family="Arial" font-size="24px" font-style="normal" font-weight="normal" text-decoration="none" x="600" y="60">UNREGISTERED</text><text fill="#eeeeee" stroke="none" font-family="Arial" font-size="24px" font-style="normal" font-weight="normal" text-decoration="none" x="600" y="90">UNREGISTERED</text><text fill="#eeeeee" stroke="none" font-family="Arial" font-size="24px" font-style="normal" font-weight="normal" text-decoration="none" x="600" y="120">UNREGISTERED</text><text fill="#eeeeee" stroke="none" font-family="Arial" font-size="24px" font-style="normal" font-weight="normal" text-decoration="none" x="600" y="150">UNREGISTERED</text><text fill="#eeeeee" stroke="none" font-family="Arial" font-size="24px" font-style="normal" font-weight="normal" text-decoration="none" x="600" y="180">UNREGISTERED</text><text fill="#eeeeee" stroke="none" font-family="Arial" font-size="24px" font-style="normal" font-weight="normal" text-decoration="none" x="600" y="210">UNREGISTERED</text><text fill="#eeeeee" stroke="none" font-family="Arial" font-size="24px" font-style="normal" font-weight="normal" text-decoration="none" x="600" y="240">UNREGISTERED</text><text fill="#eeeeee" stroke="none" font-family="Arial" font-size="24px" font-style="normal" font-weight="normal" text-decoration="none" x="600" y="270">UNREGISTERED</text><text fill="#eeeeee" stroke="none" font-family="Arial" font-size="24px" font-style="normal" font-weight="normal" text-decoration="none" x="800" y="0">UNREGISTERED</text><text fill="#eeeeee" stroke="none" font-family="Arial" font-size="24px" font-style="normal" font-weight="normal" text-decoration="none" x="800" y="30">UNREGISTERED</text><text fill="#eeeeee" stroke="none" font-family="Arial" font-size="24px" font-style="normal" font-weight="normal" text-decoration="none" x="800" y="60">UNREGISTERED</text><text fill="#eeeeee" stroke="none" font-family="Arial" font-size="24px" font-style="normal" font-weight="normal" text-decoration="none" x="800" y="90">UNREGISTERED</text><text fill="#eeeeee" stroke="none" font-family="Arial" font-size="24px" font-style="normal" font-weight="normal" text-decoration="none" x="800" y="120">UNREGISTERED</text><text fill="#eeeeee" stroke="none" font-family="Arial" font-size="24px" font-style="normal" font-weight="normal" text-decoration="none" x="800" y="150">UNREGISTERED</text><text fill="#eeeeee" stroke="none" font-family="Arial" font-size="24px" font-style="normal" font-weight="normal" text-decoration="none" x="800" y="180">UNREGISTERED</text><text fill="#eeeeee" stroke="none" font-family="Arial" font-size="24px" font-style="normal" font-weight="normal" text-decoration="none" x="800" y="210">UNREGISTERED</text><text fill="#eeeeee" stroke="none" font-family="Arial" font-size="24px" font-style="normal" font-weight="normal" text-decoration="none" x="800" y="240">UNREGISTERED</text><text fill="#eeeeee" stroke="none" font-family="Arial" font-size="24px" font-style="normal" font-weight="normal" text-decoration="none" x="800" y="270">UNREGISTERED</text><text fill="#eeeeee" stroke="none" font-family="Arial" font-size="24px" font-style="normal" font-weight="normal" text-decoration="none" x="1000" y="0">UNREGISTERED</text><text fill="#eeeeee" stroke="none" font-family="Arial" font-size="24px" font-style="normal" font-weight="normal" text-decoration="none" x="1000" y="30">UNREGISTERED</text><text fill="#eeeeee" stroke="none" font-family="Arial" font-size="24px" font-style="normal" font-weight="normal" text-decoration="none" x="1000" y="60">UNREGISTERED</text><text fill="#eeeeee" stroke="none" font-family="Arial" font-size="24px" font-style="normal" font-weight="normal" text-decoration="none" x="1000" y="90">UNREGISTERED</text><text fill="#eeeeee" stroke="none" font-family="Arial" font-size="24px" font-style="normal" font-weight="normal" text-decoration="none" x="1000" y="120">UNREGISTERED</text><text fill="#eeeeee" stroke="none" font-family="Arial" font-size="24px" font-style="normal" font-weight="normal" text-decoration="none" x="1000" y="150">UNREGISTERED</text><text fill="#eeeeee" stroke="none" font-family="Arial" font-size="24px" font-style="normal" font-weight="normal" text-decoration="none" x="1000" y="180">UNREGISTERED</text><text fill="#eeeeee" stroke="none" font-family="Arial" font-size="24px" font-style="normal" font-weight="normal" text-decoration="none" x="1000" y="210">UNREGISTERED</text><text fill="#eeeeee" stroke="none" font-family="Arial" font-size="24px" font-style="normal" font-weight="normal" text-decoration="none" x="1000" y="240">UNREGISTERED</text><text fill="#eeeeee" stroke="none" font-family="Arial" font-size="24px" font-style="normal" font-weight="normal" text-decoration="none" x="1000" y="270">UNREGISTERED</text><g transform="translate(-118,-118) scale(1,1)"><rect fill="#C0C0C0" stroke="none" x="431" y="135" width="74.0126953125" height="24" opacity="0.2"/></g><g transform="translate(-118,-118) scale(1,1)"><rect fill="#ffffff" stroke="none" x="424" y="128" width="74.0126953125" height="24"/></g><g transform="translate(-118,-118) scale(1,1)"><path fill="none" stroke="#000000" d="M 424 128 L 498.0126953125 128 L 498.0126953125 152 L 424 152 L 424 128 Z Z" stroke-miterlimit="10"/></g><g transform="translate(-118,-118) scale(1,1)"><rect fill="#ffffff" stroke="none" x="424" y="128" width="74.0126953125" height="24"/></g><g transform="translate(-118,-118) scale(1,1)"><path fill="none" stroke="#000000" d="M 424 128 L 498.0126953125 128 L 498.0126953125 152 L 424 152 L 424 128 Z Z" stroke-miterlimit="10"/></g><g transform="translate(-118,-118) scale(1,1)"><g><path fill="none" stroke="none"/><text fill="#000000" stroke="none" font-family="Arial" font-size="13px" font-style="normal" font-weight="bold" text-decoration="none" x="431.023193359375" y="147.5">t1: Faculty</text><path fill="none" stroke="#000000" d="M 493.5126953125 147.5 L 428.5 147.5" stroke-miterlimit="10"/></g></g><g transform="translate(-118,-118) scale(1,1)"><rect fill="#C0C0C0" stroke="none" x="135" y="247" width="74.03173828125" height="24" opacity="0.2"/></g><g transform="translate(-118,-118) scale(1,1)"><rect fill="#ffffff" stroke="none" x="128" y="240" width="74.03173828125" height="24"/></g><g transform="translate(-118,-118) scale(1,1)"><path fill="none" stroke="#000000" d="M 128 240 L 202.03173828125 240 L 202.03173828125 264 L 128 264 L 128 240 Z Z" stroke-miterlimit="10"/></g><g transform="translate(-118,-118) scale(1,1)"><rect fill="#ffffff" stroke="none" x="128" y="240" width="74.03173828125" height="24"/></g><g transform="translate(-118,-118) scale(1,1)"><path fill="none" stroke="#000000" d="M 128 240 L 202.03173828125 240 L 202.03173828125 264 L 128 264 L 128 240 Z Z" stroke-miterlimit="10"/></g><g transform="translate(-118,-118) scale(1,1)"><g><path fill="none" stroke="none"/><text fill="#000000" stroke="none" font-family="Arial" font-size="13px" font-style="normal" font-weight="bold" text-decoration="none" x="135.029541015625" y="259.5">c1: course</text><path fill="none" stroke="#000000" d="M 197.53173828125 259.5 L 132.5 259.5" stroke-miterlimit="10"/></g></g><g transform="translate(-118,-118) scale(1,1)"><rect fill="#C0C0C0" stroke="none" x="135" y="295" width="74.03173828125" height="24" opacity="0.2"/></g><g transform="translate(-118,-118) scale(1,1)"><rect fill="#ffffff" stroke="none" x="128" y="288" width="74.03173828125" height="24"/></g><g transform="translate(-118,-118) scale(1,1)"><path fill="none" stroke="#000000" d="M 128 288 L 202.03173828125 288 L 202.03173828125 312 L 128 312 L 128 288 Z Z" stroke-miterlimit="10"/></g><g transform="translate(-118,-118) scale(1,1)"><rect fill="#ffffff" stroke="none" x="128" y="288" width="74.03173828125" height="24"/></g><g transform="translate(-118,-118) scale(1,1)"><path fill="none" stroke="#000000" d="M 128 288 L 202.03173828125 288 L 202.03173828125 312 L 128 312 L 128 288 Z Z" stroke-miterlimit="10"/></g><g transform="translate(-118,-118) scale(1,1)"><g><path fill="none" stroke="none"/><text fill="#000000" stroke="none" font-family="Arial" font-size="13px" font-style="normal" font-weight="bold" text-decoration="none" x="135.029541015625" y="307.5">c2: course</text><path fill="none" stroke="#000000" d="M 197.53173828125 307.5 L 132.5 307.5" stroke-miterlimit="10"/></g></g><g transform="translate(-118,-118) scale(1,1)"><rect fill="#C0C0C0" stroke="none" x="135" y="343" width="74.03173828125" height="24" opacity="0.2"/></g><g transform="translate(-118,-118) scale(1,1)"><rect fill="#ffffff" stroke="none" x="128" y="336" width="74.03173828125" height="24"/></g><g transform="translate(-118,-118) scale(1,1)"><path fill="none" stroke="#000000" d="M 128 336 L 202.03173828125 336 L 202.03173828125 360 L 128 360 L 128 336 Z Z" stroke-miterlimit="10"/></g><g transform="translate(-118,-118) scale(1,1)"><rect fill="#ffffff" stroke="none" x="128" y="336" width="74.03173828125" height="24"/></g><g transform="translate(-118,-118) scale(1,1)"><path fill="none" stroke="#000000" d="M 128 336 L 202.03173828125 336 L 202.03173828125 360 L 128 360 L 128 336 Z Z" stroke-miterlimit="10"/></g><g transform="translate(-118,-118) scale(1,1)"><g><path fill="none" stroke="none"/><text fill="#000000" stroke="none" font-family="Arial" font-size="13px" font-style="normal" font-weight="bold" text-decoration="none" x="135.029541015625" y="355.5">c3: course</text><path fill="none" stroke="#000000" d="M 197.53173828125 355.5 L 132.5 355.5" stroke-miterlimit="10"/></g></g><g transform="translate(-118,-118) scale(1,1)"><rect fill="#C0C0C0" stroke="none" x="271" y="247" width="109.40087890625" height="24" opacity="0.2"/></g><g transform="translate(-118,-118) scale(1,1)"><rect fill="#ffffff" stroke="none" x="264" y="240" width="109.40087890625" height="24"/></g><g transform="translate(-118,-118) scale(1,1)"><path fill="none" stroke="#000000" d="M 264 240 L 373.40087890625 240 L 373.40087890625 264 L 264 264 L 264 240 Z Z" stroke-miterlimit="10"/></g><g transform="translate(-118,-118) scale(1,1)"><rect fill="#ffffff" stroke="none" x="264" y="240" width="109.40087890625" height="24"/></g><g transform="translate(-118,-118) scale(1,1)"><path fill="none" stroke="#000000" d="M 264 240 L 373.40087890625 240 L 373.40087890625 264 L 264 264 L 264 240 Z Z" stroke-miterlimit="10"/></g><g transform="translate(-118,-118) scale(1,1)"><g><path fill="none" stroke="none"/><text fill="#000000" stroke="none" font-family="Arial" font-size="13px" font-style="normal" font-weight="bold" text-decoration="none" x="271.73095703125" y="259.5">b1: Btech Mtech</text><path fill="none" stroke="#000000" d="M 368.90087890625 259.5 L 268.5 259.5" stroke-miterlimit="10"/></g></g><g transform="translate(-118,-118) scale(1,1)"><rect fill="#C0C0C0" stroke="none" x="271" y="295" width="109.40087890625" height="24" opacity="0.2"/></g><g transform="translate(-118,-118) scale(1,1)"><rect fill="#ffffff" stroke="none" x="264" y="288" width="109.40087890625" height="24"/></g><g transform="translate(-118,-118) scale(1,1)"><path fill="none" stroke="#000000" d="M 264 288 L 373.40087890625 288 L 373.40087890625 312 L 264 312 L 264 288 Z Z" stroke-miterlimit="10"/></g><g transform="translate(-118,-118) scale(1,1)"><rect fill="#ffffff" stroke="none" x="264" y="288" width="109.40087890625" height="24"/></g><g transform="translate(-118,-118) scale(1,1)"><path fill="none" stroke="#000000" d="M 264 288 L 373.40087890625 288 L 373.40087890625 312 L 264 312 L 264 288 Z Z" stroke-miterlimit="10"/></g><g transform="translate(-118,-118) scale(1,1)"><g><path fill="none" stroke="none"/><text fill="#000000" stroke="none" font-family="Arial" font-size="13px" font-style="normal" font-weight="bold" text-decoration="none" x="271.73095703125" y="307.5">b2: Btech Mtech</text><path fill="none" stroke="#000000" d="M 368.90087890625 307.5 L 268.5 307.5" stroke-miterlimit="10"/></g></g><g transform="translate(-118,-118) scale(1,1)"><rect fill="#C0C0C0" stroke="none" x="423" y="247" width="117.3798828125" height="24" opacity="0.2"/></g><g transform="translate(-118,-118) scale(1,1)"><rect fill="#ffffff" stroke="none" x="416" y="240" width="117.3798828125" height="24"/></g><g transform="translate(-118,-118) scale(1,1)"><path fill="none" stroke="#000000" d="M 416 240 L 533.3798828125 240 L 533.3798828125 264 L 416 264 L 416 240 Z Z" stroke-miterlimit="10"/></g><g transform="translate(-118,-118) scale(1,1)"><rect fill="#ffffff" stroke="none" x="416" y="240" width="117.3798828125" height="24"/></g><g transform="translate(-118,-118) scale(1,1)"><path fill="none" stroke="#000000" d="M 416 240 L 533.3798828125 240 L 533.3798828125 264 L 416 264 L 416 240 Z Z" stroke-miterlimit="10"/></g><g transform="translate(-118,-118) scale(1,1)"><g><path fill="none" stroke="none"/><text fill="#000000" stroke="none" font-family="Arial" font-size="13px" font-style="normal" font-weight="bold" text-decoration="none" x="423.029541015625" y="259.5">r1: PhD Research</text><path fill="none" stroke="#000000" d="M 528.8798828125 259.5 L 420.5 259.5" stroke-miterlimit="10"/></g></g><g transform="translate(-118,-118) scale(1,1)"><rect fill="#C0C0C0" stroke="none" x="423" y="295" width="117.3798828125" height="24" opacity="0.2"/></g><g transform="translate(-118,-118) scale(1,1)"><rect fill="#ffffff" stroke="none" x="416" y="288" width="117.3798828125" height="24"/></g><g transform="translate(-118,-118) scale(1,1)"><path fill="none" stroke="#000000" d="M 416 288 L 533.3798828125 288 L 533.3798828125 312 L 416 312 L 416 288 Z Z" stroke-miterlimit="10"/></g><g transform="translate(-118,-118) scale(1,1)"><rect fill="#ffffff" stroke="none" x="416" y="288" width="117.3798828125" height="24"/></g><g transform="translate(-118,-118) scale(1,1)"><path fill="none" stroke="#000000" d="M 416 288 L 533.3798828125 288 L 533.3798828125 312 L 416 312 L 416 288 Z Z" stroke-miterlimit="10"/></g><g transform="translate(-118,-118) scale(1,1)"><g><path fill="none" stroke="none"/><text fill="#000000" stroke="none" font-family="Arial" font-size="13px" font-style="normal" font-weight="bold" text-decoration="none" x="423.029541015625" y="307.5">r2: PhD Research</text><path fill="none" stroke="#000000" d="M 528.8798828125 307.5 L 420.5 307.5" stroke-miterlimit="10"/></g></g><g transform="translate(-118,-118) scale(1,1)"><rect fill="#C0C0C0" stroke="none" x="575" y="247" width="161.4453125" height="24" opacity="0.2"/></g><g transform="translate(-118,-118) scale(1,1)"><rect fill="#ffffff" stroke="none" x="568" y="240" width="161.4453125" height="24"/></g><g transform="translate(-118,-118) scale(1,1)"><path fill="none" stroke="#000000" d="M 568 240 L 729.4453125 240 L 729.4453125 264 L 568 264 L 568 240 Z Z" stroke-miterlimit="10"/></g><g transform="translate(-118,-118) scale(1,1)"><rect fill="#ffffff" stroke="none" x="568" y="240" width="161.4453125" height="24"/></g><g transform="translate(-118,-118) scale(1,1)"><path fill="none" stroke="#000000" d="M 568 240 L 729.4453125 240 L 729.4453125 264 L 568 264 L 568 240 Z Z" stroke-miterlimit="10"/></g><g transform="translate(-118,-118) scale(1,1)"><g><path fill="none" stroke="none"/><text fill="#000000" stroke="none" font-family="Arial" font-size="13px" font-style="normal" font-weight="bold" text-decoration="none" x="577.181396484375" y="259.5">s1: Sponsered Research</text><path fill="none" stroke="#000000" d="M 724.58984375 259.5 L 572.85546875 259.5" stroke-miterlimit="10"/></g></g><g transform="translate(-118,-118) scale(1,1)"><rect fill="#C0C0C0" stroke="none" x="575" y="295" width="156.4052734375" height="24" opacity="0.2"/></g><g transform="translate(-118,-118) scale(1,1)"><rect fill="#ffffff" stroke="none" x="568" y="288" width="156.4052734375" height="24"/></g><g transform="translate(-118,-118) scale(1,1)"><path fill="none" stroke="#000000" d="M 568 288 L 724.4052734375 288 L 724.4052734375 312 L 568 312 L 568 288 Z Z" stroke-miterlimit="10"/></g><g transform="translate(-118,-118) scale(1,1)"><rect fill="#ffffff" stroke="none" x="568" y="288" width="156.4052734375" height="24"/></g><g transform="translate(-118,-118) scale(1,1)"><path fill="none" stroke="#000000" d="M 568 288 L 724.4052734375 288 L 724.4052734375 312 L 568 312 L 568 288 Z Z" stroke-miterlimit="10"/></g><g transform="translate(-118,-118) scale(1,1)"><g><path fill="none" stroke="none"/><text fill="#000000" stroke="none" font-family="Arial" font-size="13px" font-style="normal" font-weight="bold" text-decoration="none" x="577.19091796875" y="307.5">s2: Sponsered research</text><path fill="none" stroke="#000000" d="M 719.9052734375 307.5 L 572.5 307.5" stroke-miterlimit="10"/></g></g><g transform="translate(-118,-118) scale(1,1)"><rect fill="#C0C0C0" stroke="none" x="687" y="327" width="150.603515625" height="24" opacity="0.2"/></g><g transform="translate(-118,-118) scale(1,1)"><rect fill="#ffffff" stroke="none" x="680" y="320" width="150.603515625" height="24"/></g><g transform="translate(-118,-118) scale(1,1)"><path fill="none" stroke="#000000" d="M 680 320 L 830.603515625 320 L 830.603515625 344 L 680 344 L 680 320 Z Z" stroke-miterlimit="10"/></g><g transform="translate(-118,-118) scale(1,1)"><rect fill="#ffffff" stroke="none" x="680" y="320" width="150.603515625" height="24"/></g><g transform="translate(-118,-118) scale(1,1)"><path fill="none" stroke="#000000" d="M 680 320 L 830.603515625 320 L 830.603515625 344 L 680 344 L 680 320 Z Z" stroke-miterlimit="10"/></g><g transform="translate(-118,-118) scale(1,1)"><g><path fill="none" stroke="none"/><text fill="#000000" stroke="none" font-family="Arial" font-size="13px" font-style="normal" font-weight="bold" text-decoration="none" x="688.45458984375" y="339.5">cp1: Conference Paper</text><path fill="none" stroke="#000000" d="M 826.103515625 339.5 L 684.5 339.5" stroke-miterlimit="10"/></g></g><g transform="translate(-118,-118) scale(1,1)"><rect fill="#C0C0C0" stroke="none" x="767" y="247" width="72.552734375" height="24" opacity="0.2"/></g><g transform="translate(-118,-118) scale(1,1)"><rect fill="#ffffff" stroke="none" x="760" y="240" width="72.552734375" height="24"/></g><g transform="translate(-118,-118) scale(1,1)"><path fill="none" stroke="#000000" d="M 760 240 L 832.552734375 240 L 832.552734375 264 L 760 264 L 760 240 Z Z" stroke-miterlimit="10"/></g><g transform="translate(-118,-118) scale(1,1)"><rect fill="#ffffff" stroke="none" x="760" y="240" width="72.552734375" height="24"/></g><g transform="translate(-118,-118) scale(1,1)"><path fill="none" stroke="#000000" d="M 760 240 L 832.552734375 240 L 832.552734375 264 L 760 264 L 760 240 Z Z" stroke-miterlimit="10"/></g><g transform="translate(-118,-118) scale(1,1)"><g><path fill="none" stroke="none"/><text fill="#000000" stroke="none" font-family="Arial" font-size="13px" font-style="normal" font-weight="bold" text-decoration="none" x="767.004150390625" y="259.5">bo1: Book</text><path fill="none" stroke="#000000" d="M 828.052734375 259.5 L 764.5 259.5" stroke-miterlimit="10"/></g></g><g transform="translate(-118,-118) scale(1,1)"><rect fill="#C0C0C0" stroke="none" x="663" y="367" width="176.60986328125" height="24" opacity="0.2"/></g><g transform="translate(-118,-118) scale(1,1)"><rect fill="#ffffff" stroke="none" x="656" y="360" width="176.60986328125" height="24"/></g><g transform="translate(-118,-118) scale(1,1)"><path fill="none" stroke="#000000" d="M 656 360 L 832.60986328125 360 L 832.60986328125 384 L 656 384 L 656 360 Z Z" stroke-miterlimit="10"/></g><g transform="translate(-118,-118) scale(1,1)"><rect fill="#ffffff" stroke="none" x="656" y="360" width="176.60986328125" height="24"/></g><g transform="translate(-118,-118) scale(1,1)"><path fill="none" stroke="#000000" d="M 656 360 L 832.60986328125 360 L 832.60986328125 384 L 656 384 L 656 360 Z Z" stroke-miterlimit="10"/></g><g transform="translate(-118,-118) scale(1,1)"><g><path fill="none" stroke="none"/><text fill="#000000" stroke="none" font-family="Arial" font-size="13px" font-style="normal" font-weight="bold" text-decoration="none" x="666.62548828125" y="379.5">rp1: Research Publications</text><path fill="none" stroke="#000000" d="M 828.10986328125 379.5 L 660.5 379.5" stroke-miterlimit="10"/></g></g><g transform="translate(-118,-118) scale(1,1)"><rect fill="#C0C0C0" stroke="none" x="919" y="247" width="116.6181640625" height="24" opacity="0.2"/></g><g transform="translate(-118,-118) scale(1,1)"><rect fill="#ffffff" stroke="none" x="912" y="240" width="116.6181640625" height="24"/></g><g transform="translate(-118,-118) scale(1,1)"><path fill="none" stroke="#000000" d="M 912 240 L 1028.6181640625 240 L 1028.6181640625 264 L 912 264 L 912 240 Z Z" stroke-miterlimit="10"/></g><g transform="translate(-118,-118) scale(1,1)"><rect fill="#ffffff" stroke="none" x="912" y="240" width="116.6181640625" height="24"/></g><g transform="translate(-118,-118) scale(1,1)"><path fill="none" stroke="#000000" d="M 912 240 L 1028.6181640625 240 L 1028.6181640625 264 L 912 264 L 912 240 Z Z" stroke-miterlimit="10"/></g><g transform="translate(-118,-118) scale(1,1)"><g><path fill="none" stroke="none"/><text fill="#000000" stroke="none" font-family="Arial" font-size="13px" font-style="normal" font-weight="bold" text-decoration="none" x="920.8037109375" y="259.5">o1: organizations</text><path fill="none" stroke="#000000" d="M 1024.1181640625 259.5 L 916.5 259.5" stroke-miterlimit="10"/></g></g><g transform="translate(-118,-118) scale(1,1)"><rect fill="#C0C0C0" stroke="none" x="919" y="295" width="109.38818359375" height="24" opacity="0.2"/></g><g transform="translate(-118,-118) scale(1,1)"><rect fill="#ffffff" stroke="none" x="912" y="288" width="109.38818359375" height="24"/></g><g transform="translate(-118,-118) scale(1,1)"><path fill="none" stroke="#000000" d="M 912 288 L 1021.38818359375 288 L 1021.38818359375 312 L 912 312 L 912 288 Z Z" stroke-miterlimit="10"/></g><g transform="translate(-118,-118) scale(1,1)"><rect fill="#ffffff" stroke="none" x="912" y="288" width="109.38818359375" height="24"/></g><g transform="translate(-118,-118) scale(1,1)"><path fill="none" stroke="#000000" d="M 912 288 L 1021.38818359375 288 L 1021.38818359375 312 L 912 312 L 912 288 Z Z" stroke-miterlimit="10"/></g><g transform="translate(-118,-118) scale(1,1)"><g><path fill="none" stroke="none"/><text fill="#000000" stroke="none" font-family="Arial" font-size="13px" font-style="normal" font-weight="bold" text-decoration="none" x="920.438720703125" y="307.5">o2: organization</text><path fill="none" stroke="#000000" d="M 1016.88818359375 307.5 L 916.5 307.5" stroke-miterlimit="10"/></g></g><g transform="translate(-118,-118) scale(1,1)"><rect fill="#C0C0C0" stroke="none" x="1071" y="247" width="64.62451171875" height="24" opacity="0.2"/></g><g transform="translate(-118,-118) scale(1,1)"><rect fill="#ffffff" stroke="none" x="1064" y="240" width="64.62451171875" height="24"/></g><g transform="translate(-118,-118) scale(1,1)"><path fill="none" stroke="#000000" d="M 1064 240 L 1128.62451171875 240 L 1128.62451171875 264 L 1064 264 L 1064 240 Z Z" stroke-miterlimit="10"/></g><g transform="translate(-118,-118) scale(1,1)"><rect fill="#ffffff" stroke="none" x="1064" y="240" width="64.62451171875" height="24"/></g><g transform="translate(-118,-118) scale(1,1)"><path fill="none" stroke="#000000" d="M 1064 240 L 1128.62451171875 240 L 1128.62451171875 264 L 1064 264 L 1064 240 Z Z" stroke-miterlimit="10"/></g><g transform="translate(-118,-118) scale(1,1)"><g><path fill="none" stroke="none"/><text fill="#000000" stroke="none" font-family="Arial" font-size="13px" font-style="normal" font-weight="bold" text-decoration="none" x="1070.667724609375" y="259.5">w1: work</text><path fill="none" stroke="#000000" d="M 1124.12451171875 259.5 L 1068.5 259.5" stroke-miterlimit="10"/></g></g><g transform="translate(-118,-118) scale(1,1)"><rect fill="#C0C0C0" stroke="none" x="1071" y="295" width="64.62451171875" height="24" opacity="0.2"/></g><g transform="translate(-118,-118) scale(1,1)"><rect fill="#ffffff" stroke="none" x="1064" y="288" width="64.62451171875" height="24"/></g><g transform="translate(-118,-118) scale(1,1)"><path fill="none" stroke="#000000" d="M 1064 288 L 1128.62451171875 288 L 1128.62451171875 312 L 1064 312 L 1064 288 Z Z" stroke-miterlimit="10"/></g><g transform="translate(-118,-118) scale(1,1)"><rect fill="#ffffff" stroke="none" x="1064" y="288" width="64.62451171875" height="24"/></g><g transform="translate(-118,-118) scale(1,1)"><path fill="none" stroke="#000000" d="M 1064 288 L 1128.62451171875 288 L 1128.62451171875 312 L 1064 312 L 1064 288 Z Z" stroke-miterlimit="10"/></g><g transform="translate(-118,-118) scale(1,1)"><g><path fill="none" stroke="none"/><text fill="#000000" stroke="none" font-family="Arial" font-size="13px" font-style="normal" font-weight="bold" text-decoration="none" x="1070.667724609375" y="307.5">w2: work</text><path fill="none" stroke="#000000" d="M 1124.12451171875 307.5 L 1068.5 307.5" stroke-miterlimit="10"/></g></g><g transform="translate(-118,-118) scale(1,1)"><path fill="none" stroke="#000000" d="M 453 152 L 453 192 L 232 192 L 232 252 L 202 252" stroke-miterlimit="10"/></g><g transform="translate(-118,-118) scale(1,1)"><path fill="none" stroke="#000000" d="M 453 152 L 453 192 L 232 192 L 232 300 L 202 300" stroke-miterlimit="10"/></g><g transform="translate(-118,-118) scale(1,1)"><path fill="none" stroke="#000000" d="M 453 152 L 453 192 L 402 192 L 402 252 L 373 252" stroke-miterlimit="10"/></g><g transform="translate(-118,-118) scale(1,1)"><path fill="none" stroke="#000000" d="M 453 152 L 453 192 L 402 192 L 402 300 L 373 300" stroke-miterlimit="10"/></g><g transform="translate(-118,-118) scale(1,1)"><path fill="none" stroke="#000000" d="M 456 152 L 456 192 L 560 192 L 560 252 L 533 252" stroke-miterlimit="10"/></g><g transform="translate(-118,-118) scale(1,1)"><path fill="none" stroke="#000000" d="M 456 152 L 456 192 L 560 192 L 560 300 L 533 300" stroke-miterlimit="10"/></g><g transform="translate(-118,-118) scale(1,1)"><path fill="none" stroke="#000000" d="M 456 152 L 456 192 L 752 192 L 752 252 L 729 252" stroke-miterlimit="10"/></g><g transform="translate(-118,-118) scale(1,1)"><path fill="none" stroke="#000000" d="M 456 152 L 456 192 L 754 192 L 754 300 L 724 300" stroke-miterlimit="10"/></g><g transform="translate(-118,-118) scale(1,1)"><path fill="none" stroke="#000000" d="M 456 152 L 456 192 L 862 192 L 862 252 L 833 252" stroke-miterlimit="10"/></g><g transform="translate(-118,-118) scale(1,1)"><path fill="none" stroke="#000000" d="M 456 152 L 456 192 L 860 192 L 860 328 L 831 328" stroke-miterlimit="10"/></g><g transform="translate(-118,-118) scale(1,1)"><path fill="none" stroke="#000000" d="M 456 152 L 456 192 L 862 192 L 862 372 L 833 372" stroke-miterlimit="10"/></g><g transform="translate(-118,-118) scale(1,1)"><path fill="none" stroke="#000000" d="M 456 152 L 456 192 L 1058 192 L 1058 252 L 1029 252" stroke-miterlimit="10"/></g><g transform="translate(-118,-118) scale(1,1)"><path fill="none" stroke="#000000" d="M 456 152 L 456 192 L 1056 192 L 1056 300 L 1021 300" stroke-miterlimit="10"/></g><g transform="translate(-118,-118) scale(1,1)"><path fill="none" stroke="#000000" d="M 456 152 L 456 192 L 1158 192 L 1158 252 L 1129 252" stroke-miterlimit="10"/></g><g transform="translate(-118,-118) scale(1,1)"><path fill="none" stroke="#000000" d="M 456 152 L 456 192 L 1158 192 L 1158 300 L 1129 300" stroke-miterlimit="10"/></g><g transform="translate(-118,-118) scale(1,1)"><path fill="none" stroke="#000000" d="M 453 152 L 453 192 L 232 192 L 232 348 L 202 348" stroke-miterlimit="10"/></g></g></svg>