<svg version="1.1" xmlns="http://www.w3.org/2000/svg" xmlns:xlink="http://www.w3.org/1999/xlink" width="600.42431640625" height="701"><defs/><g><text fill="#eeeeee" stroke="none" font-family="Arial" font-size="24px" font-style="normal" font-weight="normal" text-decoration="none" x="0" y="0">UNREGISTERED</text><text fill="#eeeeee" stroke="none" font-family="Arial" font-size="24px" font-style="normal" font-weight="normal" text-decoration="none" x="0" y="30">UNREGISTERED</text><text fill="#eeeeee" stroke="none" font-family="Arial" font-size="24px" font-style="normal" font-weight="normal" text-decoration="none" x="0" y="60">UNREGISTERED</text><text fill="#eeeeee" stroke="none" font-family="Arial" font-size="24px" font-style="normal" font-weight="normal" text-decoration="none" x="0" y="90">UNREGISTERED</text><text fill="#eeeeee" stroke="none" font-family="Arial" font-size="24px" font-style="normal" font-weight="normal" text-decoration="none" x="0" y="120">UNREGISTERED</text><text fill="#eeeeee" stroke="none" font-family="Arial" font-size="24px" font-style="normal" font-weight="normal" text-decoration="none" x="0" y="150">UNREGISTERED</text><text fill="#eeeeee" stroke="none" font-family="Arial" font-size="24px" font-style="normal" font-weight="normal" text-decoration="none" x="0" y="180">UNREGISTERED</text><text fill="#eeeeee" stroke="none" font-family="Arial" font-size="24px" font-style="normal" font-weight="normal" text-decoration="none" x="0" y="210">UNREGISTERED</text><text fill="#eeeeee" stroke="none" font-family="Arial" font-size="24px" font-style="normal" font-weight="normal" text-decoration="none" x="0" y="240">UNREGISTERED</text><text fill="#eeeeee" stroke="none" font-family="Arial" font-size="24px" font-style="normal" font-weight="normal" text-decoration="none" x="0" y="270">UNREGISTERED</text><text fill="#eeeeee" stroke="none" font-family="Arial" font-size="24px" font-style="normal" font-weight="normal" text-decoration="none" x="0" y="300">UNREGISTERED</text><text fill="#eeeeee" stroke="none" font-family="Arial" font-size="24px" font-style="normal" font-weight="normal" text-decoration="none" x="0" y="330">UNREGISTERED</text><text fill="#eeeeee" stroke="none" font-family="Arial" font-size="24px" font-style="normal" font-weight="normal" text-decoration="none" x="0" y="360">UNREGISTERED</text><text fill="#eeeeee" stroke="none" font-family="Arial" font-size="24px" font-style="normal" font-weight="normal" text-decoration="none" x="0" y="390">UNREGISTERED</text><text fill="#eeeeee" stroke="none" font-family="Arial" font-size="24px" font-style="normal" font-weight="normal" text-decoration="none" x="0" y="420">UNREGISTERED</text><text fill="#eeeeee" stroke="none" font-family="Arial" font-size="24px" font-style="normal" font-weight="normal" text-decoration="none" x="0" y="450">UNREGISTERED</text><text fill="#eeeeee" stroke="none" font-family="Arial" font-size="24px" font-style="normal" font-weight="normal" text-decoration="none" x="0" y="480">UNREGISTERED</text><text fill="#eeeeee" stroke="none" font-family="Arial" font-size="24px" font-style="normal" font-weight="normal" text-decoration="none" x="0" y="510">UNREGISTERED</text><text fill="#eeeeee" stroke="none" font-family="Arial" font-size="24px" font-style="normal" font-weight="normal" text-decoration="none" x="0" y="540">UNREGISTERED</text><text fill="#eeeeee" stroke="none" font-family="Arial" font-size="24px" font-style="normal" font-weight="normal" text-decoration="none" x="0" y="570">UNREGISTERED</text><text fill="#eeeeee" stroke="none" font-family="Arial" font-size="24px" font-style="normal" font-weight="normal" text-decoration="none" x="0" y="600">UNREGISTERED</text><text fill="#eeeeee" stroke="none" font-family="Arial" font-size="24px" font-style="normal" font-weight="normal" text-decoration="none" x="0" y="630">UNREGISTERED</text><text fill="#eeeeee" stroke="none" font-family="Arial" font-size="24px" font-style="normal" font-weight="normal" text-decoration="none" x="0" y="660">UNREGISTERED</text><text fill="#eeeeee" stroke="none" font-family="Arial" font-size="24px" font-style="normal" font-weight="normal" text-decoration="none" x="0" y="690">UNREGISTERED</text><text fill="#eeeeee" stroke="none" font-family="Arial" font-size="24px" font-style="normal" font-weight="normal" text-decoration="none" x="200" y="0">UNREGISTERED</text><text fill="#eeeeee" stroke="none" font-family="Arial" font-size="24px" font-style="normal" font-weight="normal" text-decoration="none" x="200" y="30">UNREGISTERED</text><text fill="#eeeeee" stroke="none" font-family="Arial" font-size="24px" font-style="normal" font-weight="normal" text-decoration="none" x="200" y="60">UNREGISTERED</text><text fill="#eeeeee" stroke="none" font-family="Arial" font-size="24px" font-style="normal" font-weight="normal" text-decoration="none" x="200" y="90">UNREGISTERED</text><text fill="#eeeeee" stroke="none" font-family="Arial" font-size="24px" font-style="normal" font-weight="normal" text-decoration="none" x="200" y="120">UNREGISTERED</text><text fill="#eeeeee" stroke="none" font-family="Arial" font-size="24px" font-style="normal" font-weight="normal" text-decoration="none" x="200" y="150">UNREGISTERED</text><text fill="#eeeeee" stroke="none" font-family="Arial" font-size="24px" font-style="normal" font-weight="normal" text-decoration="none" x="200" y="180">UNREGISTERED</text><text fill="#eeeeee" stroke="none" font-family="Arial" font-size="24px" font-style="normal" font-weight="normal" text-decoration="none" x="200" y="210">UNREGISTERED</text><text fill="#eeeeee" stroke="none" font-family="Arial" font-size="24px" font-style="normal" font-weight="normal" text-decoration="none" x="200" y="240">UNREGISTERED</text><text fill="#eeeeee" stroke="none" font-family="Arial" font-size="24px" font-style="normal" font-weight="normal" text-decoration="none" x="200" y="270">UNREGISTERED</text><text fill="#eeeeee" stroke="none" font-family="Arial" font-size="24px" font-style="normal" font-weight="normal" text-decoration="none" x="200" y="300">UNREGISTERED</text><text fill="#eeeeee" stroke="none" font-family="Arial" font-size="24px" font-style="normal" font-weight="normal" text-decoration="none" x="200" y="330">UNREGISTERED</text><text fill="#eeeeee" stroke="none" font-family="Arial" font-size="24px" font-style="normal" font-weight="normal" text-decoration="none" x="200" y="360">UNREGISTERED</text><text fill="#eeeeee" stroke="none" font-family="Arial" font-size="24px" font-style="normal" font-weight="normal" text-decoration="none" x="200" y="390">UNREGISTERED</text><text fill="#eeeeee" stroke="none" font-family="Arial" font-size="24px" font-style="normal" font-weight="normal" text-decoration="none" x="200" y="420">UNREGISTERED</text><text fill="#eeeeee" stroke="none" font-family="Arial" font-size="24px" font-style="normal" font-weight="normal" text-decoration="none" x="200" y="450">UNREGISTERED</text><text fill="#eeeeee" stroke="none" font-family="Arial" font-size="24px" font-style="normal" font-weight="normal" text-decoration="none" x="200" y="480">UNREGISTERED</text><text fill="#eeeeee" stroke="none" font-family="Arial" font-size="24px" font-style="normal" font-weight="normal" text-decoration="none" x="200" y="510">UNREGISTERED</text><text fill="#eeeeee" stroke="none" font-family="Arial" font-size="24px" font-style="normal" font-weight="normal" text-decoration="none" x="200" y="540">UNREGISTERED</text><text fill="#eeeeee" stroke="none" font-family="Arial" font-size="24px" font-style="normal" font-weight="normal" text-decoration="none" x="200" y="570">UNREGISTERED</text><text fill="#eeeeee" stroke="none" font-family="Arial" font-size="24px" font-style="normal" font-weight="normal" text-decoration="none" x="200" y="600">UNREGISTERED</text><text fill="#eeeeee" stroke="none" font-family="Arial" font-size="24px" font-style="normal" font-weight="normal" text-decoration="none" x="200" y="630">UNREGISTERED</text><text fill="#eeeeee" stroke="none" font-family="Arial" font-size="24px" font-style="normal" font-weight="normal" text-decoration="none" x="200" y="660">UNREGISTERED</text><text fill="#eeeeee" stroke="none" font-family="Arial" font-size="24px" font-style="normal" font-weight="normal" text-decoration="none" x="200" y="690">UNREGISTERED</text><text fill="#eeeeee" stroke="none" font-family="Arial" font-size="24px" font-style="normal" font-weight="normal" text-decoration="none" x="400" y="0">UNREGISTERED</text><text fill="#eeeeee" stroke="none" font-family="Arial" font-size="24px" font-style="normal" font-weight="normal" text-decoration="none" x="400" y="30">UNREGISTERED</text><text fill="#eeeeee" stroke="none" font-family="Arial" font-size="24px" font-style="normal" font-weight="normal" text-decoration="none" x="400" y="60">UNREGISTERED</text><text fill="#eeeeee" stroke="none" font-family="Arial" font-size="24px" font-style="normal" font-weight="normal" text-decoration="none" x="400" y="90">UNREGISTERED</text><text fill="#eeeeee" stroke="none" font-family="Arial" font-size="24px" font-style="normal" font-weight="normal" text-decoration="none" x="400" y="120">UNREGISTERED</text><text fill="#eeeeee" stroke="none" font-family="Arial" font-size="24px" font-style="normal" font-weight="normal" text-decoration="none" x="400" y="150">UNREGISTERED</text><text fill="#eeeeee" stroke="none" font-family="Arial" font-size="24px" font-style="normal" font-weight="normal" text-decoration="none" x="400" y="180">UNREGISTERED</text><text fill="#eeeeee" stroke="none" font-family="Arial" font-size="24px" font-style="normal" font-weight="normal" text-decoration="none" x="400" y="210">UNREGISTERED</text><text fill="#eeeeee" stroke="none" font-family="Arial" font-size="24px" font-style="normal" font-weight="normal" text-decoration="none" x="400" y="240">UNREGISTERED</text><text fill="#eeeeee" stroke="none" font-family="Arial" font-size="24px" font-style="normal" font-weight="normal" text-decoration="none" x="400" y="270">UNREGISTERED</text><text fill="#eeeeee" stroke="none" font-family="Arial" font-size="24px" font-style="normal" font-weight="normal" text-decoration="none" x="400" y="300">UNREGISTERED</text><text fill="#eeeeee" stroke="none" font-family="Arial" font-size="24px" font-style="normal" font-weight="normal" text-decoration="none" x="400" y="330">UNREGISTERED</text><text fill="#eeeeee" stroke="none" font-family="Arial" font-size="24px" font-style="normal" font-weight="normal" text-decoration="none" x="400" y="360">UNREGISTERED</text><text fill="#eeeeee" stroke="none" font-family="Arial" font-size="24px" font-style="normal" font-weight="normal" text-decoration="none" x="400" y="390">UNREGISTERED</text><text fill="#eeeeee" stroke="none" font-family="Arial" font-size="24px" font-style="normal" font-weight="normal" text-decoration="none" x="400" y="420">UNREGISTERED</text><text fill="#eeeeee" stroke="none" font-family="Arial" font-size="24px" font-style="normal" font-weight="normal" text-decoration="none" x="400" y="450">UNREGISTERED</text><text fill="#eeeeee" stroke="none" font-family="Arial" font-size="24px" font-style="normal" font-weight="normal" text-decoration="none" x="400" y="480">UNREGISTERED</text><text fill="#eeeeee" stroke="none" font-family="Arial" font-size="24px" font-style="normal" font-weight="normal" text-decoration="none" x="400" y="510">UNREGISTERED</text><text fill="#eeeeee" stroke="none" font-family="Arial" font-size="24px" font-style="normal" font-weight="normal" text-decoration="none" x="400" y="540">UNREGISTERED</text><text fill="#eeeeee" stroke="none" font-family="Arial" font-size="24px" font-style="normal" font-weight="normal" text-decoration="none" x="400" y="570">UNREGISTERED</text><text fill="#eeeeee" stroke="none" font-family="Arial" font-size="24px" font-style="normal" font-weight="normal" text-decoration="none" x="400" y="600">UNREGISTERED</text><text fill="#eeeeee" stroke="none" font-family="Arial" font-size="24px" font-style="normal" font-weight="normal" text-decoration="none" x="400" y="630">UNREGISTERED</text><text fill="#eeeeee" stroke="none" font-family="Arial" font-size="24px" font-style="normal" font-weight="normal" text-decoration="none" x="400" y="660">UNREGISTERED</text><text fill="#eeeeee" stroke="none" font-family="Arial" font-size="24px" font-style="normal" font-weight="normal" text-decoration="none" x="400" y="690">UNREGISTERED</text><text fill="#eeeeee" stroke="none" font-family="Arial" font-size="24px" font-style="normal" font-weight="normal" text-decoration="none" x="600" y="0">UNREGISTERED</text><text fill="#eeeeee" stroke="none" font-family="Arial" font-size="24px" font-style="normal" font-weight="normal" text-decoration="none" x="600" y="30">UNREGISTERED</text><text fill="#eeeeee" stroke="none" font-family="Arial" font-size="24px" font-style="normal" font-weight="normal" text-decoration="none" x="600" y="60">UNREGISTERED</text><text fill="#eeeeee" stroke="none" font-family="Arial" font-size="24px" font-style="normal" font-weight="normal" text-decoration="none" x="600" y="90">UNREGISTERED</text><text fill="#eeeeee" stroke="none" font-family="Arial" font-size="24px" font-style="normal" font-weight="normal" text-decoration="none" x="600" y="120">UNREGISTERED</text><text fill="#eeeeee" stroke="none" font-family="Arial" font-size="24px" font-style="normal" font-weight="normal" text-decoration="none" x="600" y="150">UNREGISTERED</text><text fill="#eeeeee" stroke="none" font-family="Arial" font-size="24px" font-style="normal" font-weight="normal" text-decoration="none" x="600" y="180">UNREGISTERED</text><text fill="#eeeeee" stroke="none" font-family="Arial" font-size="24px" font-style="normal" font-weight="normal" text-decoration="none" x="600" y="210">UNREGISTERED</text><text fill="#eeeeee" stroke="none" font-family="Arial" font-size="24px" font-style="normal" font-weight="normal" text-decoration="none" x="600" y="240">UNREGISTERED</text><text fill="#eeeeee" stroke="none" font-family="Arial" font-size="24px" font-style="normal" font-weight="normal" text-decoration="none" x="600" y="270">UNREGISTERED</text><text fill="#eeeeee" stroke="none" font-family="Arial" font-size="24px" font-style="normal" font-weight="normal" text-decoration="none" x="600" y="300">UNREGISTERED</text><text fill="#eeeeee" stroke="none" font-family="Arial" font-size="24px" font-style="normal" font-weight="normal" text-decoration="none" x="600" y="330">UNREGISTERED</text><text fill="#eeeeee" stroke="none" font-family="Arial" font-size="24px" font-style="normal" font-weight="normal" text-decoration="none" x="600" y="360">UNREGISTERED</text><text fill="#eeeeee" stroke="none" font-family="Arial" font-size="24px" font-style="normal" font-weight="normal" text-decoration="none" x="600" y="390">UNREGISTERED</text><text fill="#eeeeee" stroke="none" font-family="Arial" font-size="24px" font-style="normal" font-weight="normal" text-decoration="none" x="600" y="420">UNREGISTERED</text><text fill="#eeeeee" stroke="none" font-family="Arial" font-size="24px" font-style="normal" font-weight="normal" text-decoration="none" x="600" y="450">UNREGISTERED</text><text fill="#eeeeee" stroke="none" font-family="Arial" font-size="24px" font-style="normal" font-weight="normal" text-decoration="none" x="600" y="480">UNREGISTERED</text><text fill="#eeeeee" stroke="none" font-family="Arial" font-size="24px" font-style="normal" font-weight="normal" text-decoration="none" x="600" y="510">UNREGISTERED</text><text fill="#eeeeee" stroke="none" font-family="Arial" font-size="24px" font-style="normal" font-weight="normal" text-decoration="none" x="600" y="540">UNREGISTERED</text><text fill="#eeeeee" stroke="none" font-family="Arial" font-size="24px" font-style="normal" font-weight="normal" text-decoration="none" x="600" y="570">UNREGISTERED</text><text fill="#eeeeee" stroke="none" font-family="Arial" font-size="24px" font-style="normal" font-weight="normal" text-decoration="none" x="600" y="600">UNREGISTERED</text><text fill="#eeeeee" stroke="none" font-family="Arial" font-size="24px" font-style="normal" font-weight="normal" text-decoration="none" x="600" y="630">UNREGISTERED</text><text fill="#eeeeee" stroke="none" font-family="Arial" font-size="24px" font-style="normal" font-weight="normal" text-decoration="none" x="600" y="660">UNREGISTERED</text><text fill="#eeeeee" stroke="none" font-family="Arial" font-size="24px" font-style="normal" font-weight="normal" text-decoration="none" x="600" y="690">UNREGISTERED</text><g transform="translate(-165,-22) scale(1,1)"><path fill="#C0C0C0" stroke="none" d="M 423 48.5 C 423 43.2532944 427.2532944 39 432.5 39 C 437.7467056 39 442 43.2532944 442 48.5 C 442 53.7467056 437.7467056 58 432.5 58 C 427.2532944 58 423 53.7467056 423 48.5 Z" opacity="0.2"/></g><g transform="translate(-165,-22) scale(1,1)"><path fill="#000000" stroke="none" d="M 416 41.5 C 416 36.2532944 420.2532944 32 425.5 32 C 430.7467056 32 435 36.2532944 435 41.5 C 435 46.7467056 430.7467056 51 425.5 51 C 420.2532944 51 416 46.7467056 416 41.5 Z"/></g><g transform="translate(-165,-22) scale(1,1)"><path fill="#C0C0C0" stroke="none" d="M 423 707.5 C 423 700.59644 428.59644 695 435.5 695 C 442.40356 695 448 700.59644 448 707.5 C 448 714.40356 442.40356 720 435.5 720 C 428.59644 720 423 714.40356 423 707.5 Z" opacity="0.2"/></g><g transform="translate(-165,-22) scale(1,1)"><path fill="none" stroke="#000000" d="M 416 700.5 C 416 693.59644 421.59644 688 428.5 688 C 435.40356 688 441 693.59644 441 700.5 C 441 707.40356 435.40356 713 428.5 713 C 421.59644 713 416 707.40356 416 700.5 Z" stroke-miterlimit="10"/></g><g transform="translate(-165,-22) scale(1,1)"><path fill="#000000" stroke="none" d="M 421 700.5 C 421 696.357864 424.357864 693 428.5 693 C 432.642136 693 436 696.357864 436 700.5 C 436 704.642136 432.642136 708 428.5 708 C 424.357864 708 421 704.642136 421 700.5 Z"/></g><g transform="translate(-165,-22) scale(1,1)"><path fill="#C0C0C0" stroke="none" d="M 409 143 L 460.09912109375 143 Q 470.09912109375 143 470.09912109375 153 L 470.09912109375 172 Q 470.09912109375 182 460.09912109375 182 L 409 182 Q 399 182 399 172 L 399 153 Q 399 143 409 143 Z" opacity="0.2"/></g><g transform="translate(-165,-22) scale(1,1)"><path fill="#ffffff" stroke="none" d="M 402 136 L 453.09912109375 136 Q 463.09912109375 136 463.09912109375 146 L 463.09912109375 165 Q 463.09912109375 175 453.09912109375 175 L 402 175 Q 392 175 392 165 L 392 146 Q 392 136 402 136 Z"/></g><g transform="translate(-165,-22) scale(1,1)"><path fill="none" stroke="#000000" d="M 402 136 L 453.09912109375 136 Q 463.09912109375 136 463.09912109375 146 L 463.09912109375 165 Q 463.09912109375 175 453.09912109375 175 L 402 175 Q 392 175 392 165 L 392 146 Q 392 136 402 136 Z" stroke-miterlimit="10"/></g><g transform="translate(-165,-22) scale(1,1)"><g><path fill="none" stroke="none"/><text fill="#000000" stroke="none" font-family="Arial" font-size="13px" font-style="normal" font-weight="bold" text-decoration="none" x="398.99462890625" y="155.5">Logged in</text></g></g><g transform="translate(-165,-22) scale(1,1)"><path fill="#C0C0C0" stroke="none" d="M 409 247 L 468.05908203125 247 Q 478.05908203125 247 478.05908203125 257 L 478.05908203125 276 Q 478.05908203125 286 468.05908203125 286 L 409 286 Q 399 286 399 276 L 399 257 Q 399 247 409 247 Z" opacity="0.2"/></g><g transform="translate(-165,-22) scale(1,1)"><path fill="#ffffff" stroke="none" d="M 402 240 L 461.05908203125 240 Q 471.05908203125 240 471.05908203125 250 L 471.05908203125 269 Q 471.05908203125 279 461.05908203125 279 L 402 279 Q 392 279 392 269 L 392 250 Q 392 240 402 240 Z"/></g><g transform="translate(-165,-22) scale(1,1)"><path fill="none" stroke="#000000" d="M 402 240 L 461.05908203125 240 Q 471.05908203125 240 471.05908203125 250 L 471.05908203125 269 Q 471.05908203125 279 461.05908203125 279 L 402 279 Q 392 279 392 269 L 392 250 Q 392 240 402 240 Z" stroke-miterlimit="10"/></g><g transform="translate(-165,-22) scale(1,1)"><g><path fill="none" stroke="none"/><text fill="#000000" stroke="none" font-family="Arial" font-size="13px" font-style="normal" font-weight="bold" text-decoration="none" x="399.0263671875" y="259.5">Form Filled</text></g></g><g transform="translate(-165,-22) scale(1,1)"><path fill="#C0C0C0" stroke="none" d="M 417 359 L 465.97265625 359 Q 475.97265625 359 475.97265625 369 L 475.97265625 388 Q 475.97265625 398 465.97265625 398 L 417 398 Q 407 398 407 388 L 407 369 Q 407 359 417 359 Z" opacity="0.2"/></g><g transform="translate(-165,-22) scale(1,1)"><path fill="#ffffff" stroke="none" d="M 410 352 L 458.97265625 352 Q 468.97265625 352 468.97265625 362 L 468.97265625 381 Q 468.97265625 391 458.97265625 391 L 410 391 Q 400 391 400 381 L 400 362 Q 400 352 410 352 Z"/></g><g transform="translate(-165,-22) scale(1,1)"><path fill="none" stroke="#000000" d="M 410 352 L 458.97265625 352 Q 468.97265625 352 468.97265625 362 L 468.97265625 381 Q 468.97265625 391 458.97265625 391 L 410 391 Q 400 391 400 381 L 400 362 Q 400 352 410 352 Z" stroke-miterlimit="10"/></g><g transform="translate(-165,-22) scale(1,1)"><g><path fill="none" stroke="none"/><text fill="#000000" stroke="none" font-family="Arial" font-size="13px" font-style="normal" font-weight="bold" text-decoration="none" x="405.944091796875" y="371.5">Reviewed</text></g></g><g transform="translate(-165,-22) scale(1,1)"><path fill="#C0C0C0" stroke="none" d="M 569 447 L 625.18359375 447 Q 635.18359375 447 635.18359375 457 L 635.18359375 476 Q 635.18359375 486 625.18359375 486 L 569 486 Q 559 486 559 476 L 559 457 Q 559 447 569 447 Z" opacity="0.2"/></g><g transform="translate(-165,-22) scale(1,1)"><path fill="#ffffff" stroke="none" d="M 562 440 L 618.18359375 440 Q 628.18359375 440 628.18359375 450 L 628.18359375 469 Q 628.18359375 479 618.18359375 479 L 562 479 Q 552 479 552 469 L 552 450 Q 552 440 562 440 Z"/></g><g transform="translate(-165,-22) scale(1,1)"><path fill="none" stroke="#000000" d="M 562 440 L 618.18359375 440 Q 628.18359375 440 628.18359375 450 L 628.18359375 469 Q 628.18359375 479 618.18359375 479 L 562 479 Q 552 479 552 469 L 552 450 Q 552 440 562 440 Z" stroke-miterlimit="10"/></g><g transform="translate(-165,-22) scale(1,1)"><g><path fill="none" stroke="none"/><text fill="#000000" stroke="none" font-family="Arial" font-size="13px" font-style="normal" font-weight="bold" text-decoration="none" x="558.661376953125" y="459.5">Edit Detais</text></g></g><g transform="translate(-165,-22) scale(1,1)"><path fill="#C0C0C0" stroke="none" d="M 577 527 L 616 527 Q 626 527 626 537 L 626 556 Q 626 566 616 566 L 577 566 Q 567 566 567 556 L 567 537 Q 567 527 577 527 Z" opacity="0.2"/></g><g transform="translate(-165,-22) scale(1,1)"><path fill="#ffffff" stroke="none" d="M 570 520 L 609 520 Q 619 520 619 530 L 619 549 Q 619 559 609 559 L 570 559 Q 560 559 560 549 L 560 530 Q 560 520 570 520 Z"/></g><g transform="translate(-165,-22) scale(1,1)"><path fill="none" stroke="#000000" d="M 570 520 L 609 520 Q 619 520 619 530 L 619 549 Q 619 559 609 559 L 570 559 Q 560 559 560 549 L 560 530 Q 560 520 570 520 Z" stroke-miterlimit="10"/></g><g transform="translate(-165,-22) scale(1,1)"><g><path fill="none" stroke="none"/><text fill="#000000" stroke="none" font-family="Arial" font-size="13px" font-style="normal" font-weight="bold" text-decoration="none" x="575.77001953125" y="539.5">Lock</text></g></g><g transform="translate(-165,-22) scale(1,1)"><path fill="#C0C0C0" stroke="none" d="M 265 535 L 367.43896484375 535 Q 377.43896484375 535 377.43896484375 545 L 377.43896484375 564 Q 377.43896484375 574 367.43896484375 574 L 265 574 Q 255 574 255 564 L 255 545 Q 255 535 265 535 Z" opacity="0.2"/></g><g transform="translate(-165,-22) scale(1,1)"><path fill="#ffffff" stroke="none" d="M 258 528 L 360.43896484375 528 Q 370.43896484375 528 370.43896484375 538 L 370.43896484375 557 Q 370.43896484375 567 360.43896484375 567 L 258 567 Q 248 567 248 557 L 248 538 Q 248 528 258 528 Z"/></g><g transform="translate(-165,-22) scale(1,1)"><path fill="none" stroke="#000000" d="M 258 528 L 360.43896484375 528 Q 370.43896484375 528 370.43896484375 538 L 370.43896484375 557 Q 370.43896484375 567 360.43896484375 567 L 258 567 Q 248 567 248 557 L 248 538 Q 248 528 258 528 Z" stroke-miterlimit="10"/></g><g transform="translate(-165,-22) scale(1,1)"><g><path fill="none" stroke="none"/><text fill="#000000" stroke="none" font-family="Arial" font-size="13px" font-style="normal" font-weight="bold" text-decoration="none" x="255.372314453125" y="547.5">Saved in database</text></g></g><g transform="translate(-165,-22) scale(1,1)"><path fill="#C0C0C0" stroke="none" d="M 393 607 L 479.50634765625 607 Q 489.50634765625 607 489.50634765625 617 L 489.50634765625 636 Q 489.50634765625 646 479.50634765625 646 L 393 646 Q 383 646 383 636 L 383 617 Q 383 607 393 607 Z" opacity="0.2"/></g><g transform="translate(-165,-22) scale(1,1)"><path fill="#ffffff" stroke="none" d="M 386 600 L 472.50634765625 600 Q 482.50634765625 600 482.50634765625 610 L 482.50634765625 629 Q 482.50634765625 639 472.50634765625 639 L 386 639 Q 376 639 376 629 L 376 610 Q 376 600 386 600 Z"/></g><g transform="translate(-165,-22) scale(1,1)"><path fill="none" stroke="#000000" d="M 386 600 L 472.50634765625 600 Q 482.50634765625 600 482.50634765625 610 L 482.50634765625 629 Q 482.50634765625 639 472.50634765625 639 L 386 639 Q 376 639 376 629 L 376 610 Q 376 600 386 600 Z" stroke-miterlimit="10"/></g><g transform="translate(-165,-22) scale(1,1)"><g><path fill="none" stroke="none"/><text fill="#000000" stroke="none" font-family="Arial" font-size="13px" font-style="normal" font-weight="bold" text-decoration="none" x="384.080078125" y="619.5">genrate pdf doc</text></g></g><g transform="translate(-165,-22) scale(1,1)"><path fill="none" stroke="#000000" d="M 425 51 L 425 136" stroke-miterlimit="10"/></g><g transform="translate(-165,-22) scale(1,1)"><path fill="none" stroke="#000000" d="M 420.790482243984 125.83732514237585 L 425 136 L 429.209517756016 125.83732514237585" stroke-miterlimit="10"/></g><g transform="translate(-165,-22) scale(1,1)"><g><path fill="none" stroke="none"/><text fill="#000000" stroke="none" font-family="Arial" font-size="13px" font-style="normal" font-weight="normal" text-decoration="none" x="350.5" y="75.5">credentials</text></g></g><g transform="translate(-165,-22) scale(1,1)"><path fill="none" stroke="#000000" d="M 427 136 L 427 115 L 576 115 L 576 155 L 463 155" stroke-miterlimit="10"/></g><g transform="translate(-165,-22) scale(1,1)"><path fill="none" stroke="#000000" d="M 473.16267485762415 150.790482243984 L 463 155 L 473.16267485762415 159.209517756016" stroke-miterlimit="10"/></g><g transform="translate(-165,-22) scale(1,1)"><g><path fill="none" stroke="none"/><text fill="#000000" stroke="none" font-family="Arial" font-size="13px" font-style="normal" font-weight="normal" text-decoration="none" x="580.5" y="140.5"> [invalid] / credtentials</text></g></g><g transform="translate(-165,-22) scale(1,1)"><path fill="none" stroke="#000000" d="M 432 175 L 432 240" stroke-miterlimit="10"/></g><g transform="translate(-165,-22) scale(1,1)"><path fill="none" stroke="#000000" d="M 427.790482243984 229.83732514237585 L 432 240 L 436.209517756016 229.83732514237585" stroke-miterlimit="10"/></g><g transform="translate(-165,-22) scale(1,1)"><g><path fill="none" stroke="none"/><text fill="#000000" stroke="none" font-family="Arial" font-size="13px" font-style="normal" font-weight="normal" text-decoration="none" x="302.5" y="210.5"> [correct] / credentials</text></g></g><g transform="translate(-165,-22) scale(1,1)"><path fill="none" stroke="#000000" d="M 432 279 L 432 352" stroke-miterlimit="10"/></g><g transform="translate(-165,-22) scale(1,1)"><path fill="none" stroke="#000000" d="M 427.790482243984 341.83732514237585 L 432 352 L 436.209517756016 341.83732514237585" stroke-miterlimit="10"/></g><g transform="translate(-165,-22) scale(1,1)"><g><path fill="none" stroke="none"/><text fill="#000000" stroke="none" font-family="Arial" font-size="13px" font-style="normal" font-weight="normal" text-decoration="none" x="312.5" y="307.5"> [validated] / data</text></g></g><g transform="translate(-165,-22) scale(1,1)"><path fill="none" stroke="#000000" d="M 434 391 L 434 416 L 592 416 L 592 440" stroke-miterlimit="10"/></g><g transform="translate(-165,-22) scale(1,1)"><path fill="none" stroke="#000000" d="M 587.790482243984 429.83732514237585 L 592 440 L 596.209517756016 429.83732514237585" stroke-miterlimit="10"/></g><g transform="translate(-165,-22) scale(1,1)"><g><path fill="none" stroke="none"/><text fill="#000000" stroke="none" font-family="Arial" font-size="13px" font-style="normal" font-weight="normal" text-decoration="none" x="526.5" y="407.5"> [incorrectly] / filled data</text></g></g><g transform="translate(-165,-22) scale(1,1)"><path fill="none" stroke="#000000" d="M 434 391 L 434 416 L 312 416 L 312 528" stroke-miterlimit="10"/></g><g transform="translate(-165,-22) scale(1,1)"><path fill="none" stroke="#000000" d="M 307.790482243984 517.8373251423759 L 312 528 L 316.209517756016 517.8373251423759" stroke-miterlimit="10"/></g><g transform="translate(-165,-22) scale(1,1)"><g><path fill="none" stroke="none"/><text fill="#000000" stroke="none" font-family="Arial" font-size="13px" font-style="normal" font-weight="normal" text-decoration="none" x="174.5" y="460.5"> [correctly] / filled data</text></g></g><g transform="translate(-165,-22) scale(1,1)"><path fill="none" stroke="#000000" d="M 309 567 L 309 616 L 376 616" stroke-miterlimit="10"/></g><g transform="translate(-165,-22) scale(1,1)"><path fill="none" stroke="#000000" d="M 365.83732514237585 620.209517756016 L 376 616 L 365.83732514237585 611.790482243984" stroke-miterlimit="10"/></g><g transform="translate(-165,-22) scale(1,1)"><g><path fill="none" stroke="none"/><text fill="#000000" stroke="none" font-family="Arial" font-size="13px" font-style="normal" font-weight="normal" text-decoration="none" x="223.5" y="606.5">take printout</text></g></g><g transform="translate(-165,-22) scale(1,1)"><path fill="none" stroke="#000000" d="M 592 479 L 592 520" stroke-miterlimit="10"/></g><g transform="translate(-165,-22) scale(1,1)"><path fill="none" stroke="#000000" d="M 587.790482243984 509.83732514237585 L 592 520 L 596.209517756016 509.83732514237585" stroke-miterlimit="10"/></g><g transform="translate(-165,-22) scale(1,1)"><g><path fill="none" stroke="none"/><text fill="#000000" stroke="none" font-family="Arial" font-size="13px" font-style="normal" font-weight="normal" text-decoration="none" x="584.5" y="504.5">confirm</text></g></g><g transform="translate(-165,-22) scale(1,1)"><path fill="none" stroke="#000000" d="M 560 544 L 370 544" stroke-miterlimit="10"/></g><g transform="translate(-165,-22) scale(1,1)"><path fill="none" stroke="#000000" d="M 380.16267485762415 539.790482243984 L 370 544 L 380.16267485762415 548.209517756016" stroke-miterlimit="10"/></g><g transform="translate(-165,-22) scale(1,1)"><g><path fill="none" stroke="none"/><text fill="#000000" stroke="none" font-family="Arial" font-size="13px" font-style="normal" font-weight="normal" text-decoration="none" x="439.5" y="531.5">save</text></g></g><g transform="translate(-165,-22) scale(1,1)"><path fill="none" stroke="#000000" d="M 429 639 L 429 688" stroke-miterlimit="10"/></g><g transform="translate(-165,-22) scale(1,1)"><path fill="none" stroke="#000000" d="M 424.790482243984 677.8373251423759 L 429 688 L 433.209517756016 677.8373251423759" stroke-miterlimit="10"/></g><g transform="translate(-165,-22) scale(1,1)"><path fill="none" stroke="#000000" d="M 431 240 L 431 219 L 584 219 L 584 259 L 471 259" stroke-miterlimit="10"/></g><g transform="translate(-165,-22) scale(1,1)"><path fill="none" stroke="#000000" d="M 481.16267485762415 254.790482243984 L 471 259 L 481.16267485762415 263.209517756016" stroke-miterlimit="10"/></g><g transform="translate(-165,-22) scale(1,1)"><g><path fill="none" stroke="none"/><text fill="#000000" stroke="none" font-family="Arial" font-size="13px" font-style="normal" font-weight="normal" text-decoration="none" x="582.5" y="244.5"> [not validated correctly] / data</text></g></g></g></svg>