<svg version="1.1" xmlns="http://www.w3.org/2000/svg" xmlns:xlink="http://www.w3.org/1999/xlink" width="724" height="652"><defs/><g><text fill="#eeeeee" stroke="none" font-family="Arial" font-size="24px" font-style="normal" font-weight="normal" text-decoration="none" x="0" y="0">UNREGISTERED</text><text fill="#eeeeee" stroke="none" font-family="Arial" font-size="24px" font-style="normal" font-weight="normal" text-decoration="none" x="0" y="30">UNREGISTERED</text><text fill="#eeeeee" stroke="none" font-family="Arial" font-size="24px" font-style="normal" font-weight="normal" text-decoration="none" x="0" y="60">UNREGISTERED</text><text fill="#eeeeee" stroke="none" font-family="Arial" font-size="24px" font-style="normal" font-weight="normal" text-decoration="none" x="0" y="90">UNREGISTERED</text><text fill="#eeeeee" stroke="none" font-family="Arial" font-size="24px" font-style="normal" font-weight="normal" text-decoration="none" x="0" y="120">UNREGISTERED</text><text fill="#eeeeee" stroke="none" font-family="Arial" font-size="24px" font-style="normal" font-weight="normal" text-decoration="none" x="0" y="150">UNREGISTERED</text><text fill="#eeeeee" stroke="none" font-family="Arial" font-size="24px" font-style="normal" font-weight="normal" text-decoration="none" x="0" y="180">UNREGISTERED</text><text fill="#eeeeee" stroke="none" font-family="Arial" font-size="24px" font-style="normal" font-weight="normal" text-decoration="none" x="0" y="210">UNREGISTERED</text><text fill="#eeeeee" stroke="none" font-family="Arial" font-size="24px" font-style="normal" font-weight="normal" text-decoration="none" x="0" y="240">UNREGISTERED</text><text fill="#eeeeee" stroke="none" font-family="Arial" font-size="24px" font-style="normal" font-weight="normal" text-decoration="none" x="0" y="270">UNREGISTERED</text><text fill="#eeeeee" stroke="none" font-family="Arial" font-size="24px" font-style="normal" font-weight="normal" text-decoration="none" x="0" y="300">UNREGISTERED</text><text fill="#eeeeee" stroke="none" font-family="Arial" font-size="24px" font-style="normal" font-weight="normal" text-decoration="none" x="0" y="330">UNREGISTERED</text><text fill="#eeeeee" stroke="none" font-family="Arial" font-size="24px" font-style="normal" font-weight="normal" text-decoration="none" x="0" y="360">UNREGISTERED</text><text fill="#eeeeee" stroke="none" font-family="Arial" font-size="24px" font-style="normal" font-weight="normal" text-decoration="none" x="0" y="390">UNREGISTERED</text><text fill="#eeeeee" stroke="none" font-family="Arial" font-size="24px" font-style="normal" font-weight="normal" text-decoration="none" x="0" y="420">UNREGISTERED</text><text fill="#eeeeee" stroke="none" font-family="Arial" font-size="24px" font-style="normal" font-weight="normal" text-decoration="none" x="0" y="450">UNREGISTERED</text><text fill="#eeeeee" stroke="none" font-family="Arial" font-size="24px" font-style="normal" font-weight="normal" text-decoration="none" x="0" y="480">UNREGISTERED</text><text fill="#eeeeee" stroke="none" font-family="Arial" font-size="24px" font-style="normal" font-weight="normal" text-decoration="none" x="0" y="510">UNREGISTERED</text><text fill="#eeeeee" stroke="none" font-family="Arial" font-size="24px" font-style="normal" font-weight="normal" text-decoration="none" x="0" y="540">UNREGISTERED</text><text fill="#eeeeee" stroke="none" font-family="Arial" font-size="24px" font-style="normal" font-weight="normal" text-decoration="none" x="0" y="570">UNREGISTERED</text><text fill="#eeeeee" stroke="none" font-family="Arial" font-size="24px" font-style="normal" font-weight="normal" text-decoration="none" x="0" y="600">UNREGISTERED</text><text fill="#eeeeee" stroke="none" font-family="Arial" font-size="24px" font-style="normal" font-weight="normal" text-decoration="none" x="0" y="630">UNREGISTERED</text><text fill="#eeeeee" stroke="none" font-family="Arial" font-size="24px" font-style="normal" font-weight="normal" text-decoration="none" x="200" y="0">UNREGISTERED</text><text fill="#eeeeee" stroke="none" font-family="Arial" font-size="24px" font-style="normal" font-weight="normal" text-decoration="none" x="200" y="30">UNREGISTERED</text><text fill="#eeeeee" stroke="none" font-family="Arial" font-size="24px" font-style="normal" font-weight="normal" text-decoration="none" x="200" y="60">UNREGISTERED</text><text fill="#eeeeee" stroke="none" font-family="Arial" font-size="24px" font-style="normal" font-weight="normal" text-decoration="none" x="200" y="90">UNREGISTERED</text><text fill="#eeeeee" stroke="none" font-family="Arial" font-size="24px" font-style="normal" font-weight="normal" text-decoration="none" x="200" y="120">UNREGISTERED</text><text fill="#eeeeee" stroke="none" font-family="Arial" font-size="24px" font-style="normal" font-weight="normal" text-decoration="none" x="200" y="150">UNREGISTERED</text><text fill="#eeeeee" stroke="none" font-family="Arial" font-size="24px" font-style="normal" font-weight="normal" text-decoration="none" x="200" y="180">UNREGISTERED</text><text fill="#eeeeee" stroke="none" font-family="Arial" font-size="24px" font-style="normal" font-weight="normal" text-decoration="none" x="200" y="210">UNREGISTERED</text><text fill="#eeeeee" stroke="none" font-family="Arial" font-size="24px" font-style="normal" font-weight="normal" text-decoration="none" x="200" y="240">UNREGISTERED</text><text fill="#eeeeee" stroke="none" font-family="Arial" font-size="24px" font-style="normal" font-weight="normal" text-decoration="none" x="200" y="270">UNREGISTERED</text><text fill="#eeeeee" stroke="none" font-family="Arial" font-size="24px" font-style="normal" font-weight="normal" text-decoration="none" x="200" y="300">UNREGISTERED</text><text fill="#eeeeee" stroke="none" font-family="Arial" font-size="24px" font-style="normal" font-weight="normal" text-decoration="none" x="200" y="330">UNREGISTERED</text><text fill="#eeeeee" stroke="none" font-family="Arial" font-size="24px" font-style="normal" font-weight="normal" text-decoration="none" x="200" y="360">UNREGISTERED</text><text fill="#eeeeee" stroke="none" font-family="Arial" font-size="24px" font-style="normal" font-weight="normal" text-decoration="none" x="200" y="390">UNREGISTERED</text><text fill="#eeeeee" stroke="none" font-family="Arial" font-size="24px" font-style="normal" font-weight="normal" text-decoration="none" x="200" y="420">UNREGISTERED</text><text fill="#eeeeee" stroke="none" font-family="Arial" font-size="24px" font-style="normal" font-weight="normal" text-decoration="none" x="200" y="450">UNREGISTERED</text><text fill="#eeeeee" stroke="none" font-family="Arial" font-size="24px" font-style="normal" font-weight="normal" text-decoration="none" x="200" y="480">UNREGISTERED</text><text fill="#eeeeee" stroke="none" font-family="Arial" font-size="24px" font-style="normal" font-weight="normal" text-decoration="none" x="200" y="510">UNREGISTERED</text><text fill="#eeeeee" stroke="none" font-family="Arial" font-size="24px" font-style="normal" font-weight="normal" text-decoration="none" x="200" y="540">UNREGISTERED</text><text fill="#eeeeee" stroke="none" font-family="Arial" font-size="24px" font-style="normal" font-weight="normal" text-decoration="none" x="200" y="570">UNREGISTERED</text><text fill="#eeeeee" stroke="none" font-family="Arial" font-size="24px" font-style="normal" font-weight="normal" text-decoration="none" x="200" y="600">UNREGISTERED</text><text fill="#eeeeee" stroke="none" font-family="Arial" font-size="24px" font-style="normal" font-weight="normal" text-decoration="none" x="200" y="630">UNREGISTERED</text><text fill="#eeeeee" stroke="none" font-family="Arial" font-size="24px" font-style="normal" font-weight="normal" text-decoration="none" x="400" y="0">UNREGISTERED</text><text fill="#eeeeee" stroke="none" font-family="Arial" font-size="24px" font-style="normal" font-weight="normal" text-decoration="none" x="400" y="30">UNREGISTERED</text><text fill="#eeeeee" stroke="none" font-family="Arial" font-size="24px" font-style="normal" font-weight="normal" text-decoration="none" x="400" y="60">UNREGISTERED</text><text fill="#eeeeee" stroke="none" font-family="Arial" font-size="24px" font-style="normal" font-weight="normal" text-decoration="none" x="400" y="90">UNREGISTERED</text><text fill="#eeeeee" stroke="none" font-family="Arial" font-size="24px" font-style="normal" font-weight="normal" text-decoration="none" x="400" y="120">UNREGISTERED</text><text fill="#eeeeee" stroke="none" font-family="Arial" font-size="24px" font-style="normal" font-weight="normal" text-decoration="none" x="400" y="150">UNREGISTERED</text><text fill="#eeeeee" stroke="none" font-family="Arial" font-size="24px" font-style="normal" font-weight="normal" text-decoration="none" x="400" y="180">UNREGISTERED</text><text fill="#eeeeee" stroke="none" font-family="Arial" font-size="24px" font-style="normal" font-weight="normal" text-decoration="none" x="400" y="210">UNREGISTERED</text><text fill="#eeeeee" stroke="none" font-family="Arial" font-size="24px" font-style="normal" font-weight="normal" text-decoration="none" x="400" y="240">UNREGISTERED</text><text fill="#eeeeee" stroke="none" font-family="Arial" font-size="24px" font-style="normal" font-weight="normal" text-decoration="none" x="400" y="270">UNREGISTERED</text><text fill="#eeeeee" stroke="none" font-family="Arial" font-size="24px" font-style="normal" font-weight="normal" text-decoration="none" x="400" y="300">UNREGISTERED</text><text fill="#eeeeee" stroke="none" font-family="Arial" font-size="24px" font-style="normal" font-weight="normal" text-decoration="none" x="400" y="330">UNREGISTERED</text><text fill="#eeeeee" stroke="none" font-family="Arial" font-size="24px" font-style="normal" font-weight="normal" text-decoration="none" x="400" y="360">UNREGISTERED</text><text fill="#eeeeee" stroke="none" font-family="Arial" font-size="24px" font-style="normal" font-weight="normal" text-decoration="none" x="400" y="390">UNREGISTERED</text><text fill="#eeeeee" stroke="none" font-family="Arial" font-size="24px" font-style="normal" font-weight="normal" text-decoration="none" x="400" y="420">UNREGISTERED</text><text fill="#eeeeee" stroke="none" font-family="Arial" font-size="24px" font-style="normal" font-weight="normal" text-decoration="none" x="400" y="450">UNREGISTERED</text><text fill="#eeeeee" stroke="none" font-family="Arial" font-size="24px" font-style="normal" font-weight="normal" text-decoration="none" x="400" y="480">UNREGISTERED</text><text fill="#eeeeee" stroke="none" font-family="Arial" font-size="24px" font-style="normal" font-weight="normal" text-decoration="none" x="400" y="510">UNREGISTERED</text><text fill="#eeeeee" stroke="none" font-family="Arial" font-size="24px" font-style="normal" font-weight="normal" text-decoration="none" x="400" y="540">UNREGISTERED</text><text fill="#eeeeee" stroke="none" font-family="Arial" font-size="24px" font-style="normal" font-weight="normal" text-decoration="none" x="400" y="570">UNREGISTERED</text><text fill="#eeeeee" stroke="none" font-family="Arial" font-size="24px" font-style="normal" font-weight="normal" text-decoration="none" x="400" y="600">UNREGISTERED</text><text fill="#eeeeee" stroke="none" font-family="Arial" font-size="24px" font-style="normal" font-weight="normal" text-decoration="none" x="400" y="630">UNREGISTERED</text><text fill="#eeeeee" stroke="none" font-family="Arial" font-size="24px" font-style="normal" font-weight="normal" text-decoration="none" x="600" y="0">UNREGISTERED</text><text fill="#eeeeee" stroke="none" font-family="Arial" font-size="24px" font-style="normal" font-weight="normal" text-decoration="none" x="600" y="30">UNREGISTERED</text><text fill="#eeeeee" stroke="none" font-family="Arial" font-size="24px" font-style="normal" font-weight="normal" text-decoration="none" x="600" y="60">UNREGISTERED</text><text fill="#eeeeee" stroke="none" font-family="Arial" font-size="24px" font-style="normal" font-weight="normal" text-decoration="none" x="600" y="90">UNREGISTERED</text><text fill="#eeeeee" stroke="none" font-family="Arial" font-size="24px" font-style="normal" font-weight="normal" text-decoration="none" x="600" y="120">UNREGISTERED</text><text fill="#eeeeee" stroke="none" font-family="Arial" font-size="24px" font-style="normal" font-weight="normal" text-decoration="none" x="600" y="150">UNREGISTERED</text><text fill="#eeeeee" stroke="none" font-family="Arial" font-size="24px" font-style="normal" font-weight="normal" text-decoration="none" x="600" y="180">UNREGISTERED</text><text fill="#eeeeee" stroke="none" font-family="Arial" font-size="24px" font-style="normal" font-weight="normal" text-decoration="none" x="600" y="210">UNREGISTERED</text><text fill="#eeeeee" stroke="none" font-family="Arial" font-size="24px" font-style="normal" font-weight="normal" text-decoration="none" x="600" y="240">UNREGISTERED</text><text fill="#eeeeee" stroke="none" font-family="Arial" font-size="24px" font-style="normal" font-weight="normal" text-decoration="none" x="600" y="270">UNREGISTERED</text><text fill="#eeeeee" stroke="none" font-family="Arial" font-size="24px" font-style="normal" font-weight="normal" text-decoration="none" x="600" y="300">UNREGISTERED</text><text fill="#eeeeee" stroke="none" font-family="Arial" font-size="24px" font-style="normal" font-weight="normal" text-decoration="none" x="600" y="330">UNREGISTERED</text><text fill="#eeeeee" stroke="none" font-family="Arial" font-size="24px" font-style="normal" font-weight="normal" text-decoration="none" x="600" y="360">UNREGISTERED</text><text fill="#eeeeee" stroke="none" font-family="Arial" font-size="24px" font-style="normal" font-weight="normal" text-decoration="none" x="600" y="390">UNREGISTERED</text><text fill="#eeeeee" stroke="none" font-family="Arial" font-size="24px" font-style="normal" font-weight="normal" text-decoration="none" x="600" y="420">UNREGISTERED</text><text fill="#eeeeee" stroke="none" font-family="Arial" font-size="24px" font-style="normal" font-weight="normal" text-decoration="none" x="600" y="450">UNREGISTERED</text><text fill="#eeeeee" stroke="none" font-family="Arial" font-size="24px" font-style="normal" font-weight="normal" text-decoration="none" x="600" y="480">UNREGISTERED</text><text fill="#eeeeee" stroke="none" font-family="Arial" font-size="24px" font-style="normal" font-weight="normal" text-decoration="none" x="600" y="510">UNREGISTERED</text><text fill="#eeeeee" stroke="none" font-family="Arial" font-size="24px" font-style="normal" font-weight="normal" text-decoration="none" x="600" y="540">UNREGISTERED</text><text fill="#eeeeee" stroke="none" font-family="Arial" font-size="24px" font-style="normal" font-weight="normal" text-decoration="none" x="600" y="570">UNREGISTERED</text><text fill="#eeeeee" stroke="none" font-family="Arial" font-size="24px" font-style="normal" font-weight="normal" text-decoration="none" x="600" y="600">UNREGISTERED</text><text fill="#eeeeee" stroke="none" font-family="Arial" font-size="24px" font-style="normal" font-weight="normal" text-decoration="none" x="600" y="630">UNREGISTERED</text><g transform="translate(-126,-14) scale(1,1)"><rect fill="#C0C0C0" stroke="none" x="279" y="31" width="568" height="632" opacity="0.2"/></g><g transform="translate(-126,-14) scale(1,1)"><rect fill="#ffffff" stroke="none" x="272" y="24" width="568" height="632"/></g><g transform="translate(-126,-14) scale(1,1)"><path fill="none" stroke="#000000" d="M 272 24 L 840 24 L 840 656 L 272 656 L 272 24 Z Z" stroke-miterlimit="10"/></g><g transform="translate(-126,-14) scale(1,1)"><g><path fill="none" stroke="none"/><text fill="#000000" stroke="none" font-family="Arial" font-size="13px" font-style="normal" font-weight="bold" text-decoration="none" x="499.27734375" y="43.5">ACR_Report_portal</text></g></g><g transform="translate(-126,-14) scale(1,1)"><path fill="#ffffff" stroke="none" d="M 154.57707492897728 201.68 C 154.57707492897728 196.886167936 158.46291725392274 193 163.25634765625 193 C 168.04977805857726 193 171.93562038352272 196.886167936 171.93562038352272 201.68 C 171.93562038352272 206.47383206400002 168.04977805857726 210.36 163.25634765625 210.36 C 158.46291725392274 210.36 154.57707492897728 206.47383206400002 154.57707492897728 201.68 Z"/></g><g transform="translate(-126,-14) scale(1,1)"><path fill="none" stroke="#000000" d="M 154.57707492897728 201.68 C 154.57707492897728 196.886167936 158.46291725392274 193 163.25634765625 193 C 168.04977805857726 193 171.93562038352272 196.886167936 171.93562038352272 201.68 C 171.93562038352272 206.47383206400002 168.04977805857726 210.36 163.25634765625 210.36 C 158.46291725392274 210.36 154.57707492897728 206.47383206400002 154.57707492897728 201.68 Z" stroke-miterlimit="10"/></g><g transform="translate(-126,-14) scale(1,1)"><path fill="none" stroke="#000000" d="M 163.25634765625 210.36 L 163.25634765625 227.64" stroke-miterlimit="10"/></g><g transform="translate(-126,-14) scale(1,1)"><path fill="none" stroke="#000000" d="M 154.06652947443183 216.84 L 172.44616583806817 216.84" stroke-miterlimit="10"/></g><g transform="translate(-126,-14) scale(1,1)"><path fill="none" stroke="#000000" d="M 163.25634765625 227.64 L 150.49271129261365 245" stroke-miterlimit="10"/></g><g transform="translate(-126,-14) scale(1,1)"><path fill="none" stroke="#000000" d="M 163.25634765625 227.64 L 176.01998401988635 245" stroke-miterlimit="10"/></g><g transform="translate(-126,-14) scale(1,1)"><g><path fill="none" stroke="none"/><text fill="#000000" stroke="none" font-family="Arial" font-size="13px" font-style="normal" font-weight="bold" text-decoration="none" x="142.305908203125" y="265.5">Faculty</text></g></g><g transform="translate(-126,-14) scale(1,1)"><path fill="#ffffff" stroke="none" d="M 152.40935031960228 481.68 C 152.40935031960228 476.886167936 156.29519264454774 473 161.088623046875 473 C 165.88205344920226 473 169.76789577414772 476.886167936 169.76789577414772 481.68 C 169.76789577414772 486.473832064 165.88205344920226 490.36 161.088623046875 490.36 C 156.29519264454774 490.36 152.40935031960228 486.473832064 152.40935031960228 481.68 Z"/></g><g transform="translate(-126,-14) scale(1,1)"><path fill="none" stroke="#000000" d="M 152.40935031960228 481.68 C 152.40935031960228 476.886167936 156.29519264454774 473 161.088623046875 473 C 165.88205344920226 473 169.76789577414772 476.886167936 169.76789577414772 481.68 C 169.76789577414772 486.473832064 165.88205344920226 490.36 161.088623046875 490.36 C 156.29519264454774 490.36 152.40935031960228 486.473832064 152.40935031960228 481.68 Z" stroke-miterlimit="10"/></g><g transform="translate(-126,-14) scale(1,1)"><path fill="none" stroke="#000000" d="M 161.088623046875 490.36 L 161.088623046875 507.64" stroke-miterlimit="10"/></g><g transform="translate(-126,-14) scale(1,1)"><path fill="none" stroke="#000000" d="M 151.89880486505683 496.84 L 170.27844122869317 496.84" stroke-miterlimit="10"/></g><g transform="translate(-126,-14) scale(1,1)"><path fill="none" stroke="#000000" d="M 161.088623046875 507.64 L 148.32498668323865 525" stroke-miterlimit="10"/></g><g transform="translate(-126,-14) scale(1,1)"><path fill="none" stroke="#000000" d="M 161.088623046875 507.64 L 173.85225941051135 525" stroke-miterlimit="10"/></g><g transform="translate(-126,-14) scale(1,1)"><g><path fill="none" stroke="none"/><text fill="#000000" stroke="none" font-family="Arial" font-size="13px" font-style="normal" font-weight="bold" text-decoration="none" x="142.66455078125" y="545.5">Admin</text></g></g><g transform="translate(-126,-14) scale(1,1)"><path fill="#C0C0C0" stroke="none" d="M 511 208 C 511 198.6111584 534.0573328 191 562.5 191 C 590.9426672 191 614 198.6111584 614 208 C 614 217.3888416 590.9426672 225 562.5 225 C 534.0573328 225 511 217.3888416 511 208 Z" opacity="0.2"/></g><g transform="translate(-126,-14) scale(1,1)"><path fill="#ffffff" stroke="none" d="M 504 201 C 504 191.6111584 527.0573328 184 555.5 184 C 583.9426672 184 607 191.6111584 607 201 C 607 210.3888416 583.9426672 218 555.5 218 C 527.0573328 218 504 210.3888416 504 201 Z"/></g><g transform="translate(-126,-14) scale(1,1)"><path fill="none" stroke="#000000" d="M 504 201 C 504 191.6111584 527.0573328 184 555.5 184 C 583.9426672 184 607 191.6111584 607 201 C 607 210.3888416 583.9426672 218 555.5 218 C 527.0573328 218 504 210.3888416 504 201 Z" stroke-miterlimit="10"/></g><g transform="translate(-126,-14) scale(1,1)"><g><path fill="none" stroke="none"/><text fill="#000000" stroke="none" font-family="Arial" font-size="13px" font-style="normal" font-weight="bold" text-decoration="none" x="526.602294921875" y="208">Fill details</text></g></g><g transform="translate(-126,-14) scale(1,1)"><path fill="none" stroke="#000000" d="M 192 229 L 503 205" stroke-miterlimit="10"/></g><g transform="translate(-126,-14) scale(1,1)"><path fill="#C0C0C0" stroke="none" d="M 495 544 C 495 534.6111584 530.3695008 527 574 527 C 617.6304992 527 653 534.6111584 653 544 C 653 553.3888416 617.6304992 561 574 561 C 530.3695008 561 495 553.3888416 495 544 Z" opacity="0.2"/></g><g transform="translate(-126,-14) scale(1,1)"><path fill="#ffffff" stroke="none" d="M 488 537 C 488 527.6111584 523.3695008 520 567 520 C 610.6304992 520 646 527.6111584 646 537 C 646 546.3888416 610.6304992 554 567 554 C 523.3695008 554 488 546.3888416 488 537 Z"/></g><g transform="translate(-126,-14) scale(1,1)"><path fill="none" stroke="#000000" d="M 488 537 C 488 527.6111584 523.3695008 520 567 520 C 610.6304992 520 646 527.6111584 646 537 C 646 546.3888416 610.6304992 554 567 554 C 523.3695008 554 488 546.3888416 488 537 Z" stroke-miterlimit="10"/></g><g transform="translate(-126,-14) scale(1,1)"><g><path fill="none" stroke="none"/><text fill="#000000" stroke="none" font-family="Arial" font-size="13px" font-style="normal" font-weight="bold" text-decoration="none" x="517.49462890625" y="544">Mnage Database</text></g></g><g transform="translate(-126,-14) scale(1,1)"><path fill="none" stroke="#000000" d="M 187 513 L 487 532" stroke-miterlimit="10"/></g><g transform="translate(-126,-14) scale(1,1)"><path fill="#C0C0C0" stroke="none" d="M 463 104 C 463 94.6111584 507.9953776 87 563.5 87 C 619.0046224 87 664 94.6111584 664 104 C 664 113.3888416 619.0046224 121 563.5 121 C 507.9953776 121 463 113.3888416 463 104 Z" opacity="0.2"/></g><g transform="translate(-126,-14) scale(1,1)"><path fill="#ffffff" stroke="none" d="M 456 97 C 456 87.6111584 500.9953776 80 556.5 80 C 612.0046224 80 657 87.6111584 657 97 C 657 106.3888416 612.0046224 114 556.5 114 C 500.9953776 114 456 106.3888416 456 97 Z"/></g><g transform="translate(-126,-14) scale(1,1)"><path fill="none" stroke="#000000" d="M 456 97 C 456 87.6111584 500.9953776 80 556.5 80 C 612.0046224 80 657 87.6111584 657 97 C 657 106.3888416 612.0046224 114 556.5 114 C 500.9953776 114 456 106.3888416 456 97 Z" stroke-miterlimit="10"/></g><g transform="translate(-126,-14) scale(1,1)"><g><path fill="none" stroke="none"/><text fill="#000000" stroke="none" font-family="Arial" font-size="13px" font-style="normal" font-weight="bold" text-decoration="none" x="495.0927734375" y="104">Print Form Submitted</text></g></g><g transform="translate(-126,-14) scale(1,1)"><path fill="none" stroke="#000000" d="M 192 221 L 503 115" stroke-miterlimit="10"/></g><g transform="translate(-126,-14) scale(1,1)"><path fill="#C0C0C0" stroke="none" d="M 735 208 C 735 198.6111584 757.6096176 191 785.5 191 C 813.3903824 191 836 198.6111584 836 208 C 836 217.3888416 813.3903824 225 785.5 225 C 757.6096176 225 735 217.3888416 735 208 Z" opacity="0.2"/></g><g transform="translate(-126,-14) scale(1,1)"><path fill="#ffffff" stroke="none" d="M 728 201 C 728 191.6111584 750.6096176 184 778.5 184 C 806.3903824 184 829 191.6111584 829 201 C 829 210.3888416 806.3903824 218 778.5 218 C 750.6096176 218 728 210.3888416 728 201 Z"/></g><g transform="translate(-126,-14) scale(1,1)"><path fill="none" stroke="#000000" d="M 728 201 C 728 191.6111584 750.6096176 184 778.5 184 C 806.3903824 184 829 191.6111584 829 201 C 829 210.3888416 806.3903824 218 778.5 218 C 750.6096176 218 728 210.3888416 728 201 Z" stroke-miterlimit="10"/></g><g transform="translate(-126,-14) scale(1,1)"><g><path fill="none" stroke="none"/><text fill="#000000" stroke="none" font-family="Arial" font-size="13px" font-style="normal" font-weight="bold" text-decoration="none" x="764.766845703125" y="208">login</text></g></g><g transform="translate(-126,-14) scale(1,1)"><path fill="none" stroke="#000000" d="M 608 201 L 727 201" stroke-miterlimit="10" stroke-dasharray="3"/></g><g transform="translate(-126,-14) scale(1,1)"><path fill="none" stroke="#000000" d="M 716.8373251423759 205.209517756016 L 727 201 L 716.8373251423758 196.790482243984" stroke-miterlimit="10"/></g><g transform="translate(-126,-14) scale(1,1)"><g><path fill="none" stroke="none"/><text fill="#000000" stroke="none" font-family="Arial" font-size="13px" font-style="normal" font-weight="normal" text-decoration="none" x="639.5" y="177.5">«include»</text></g></g><g transform="translate(-126,-14) scale(1,1)"><path fill="none" stroke="#000000" d="M 657 97 L 768 97 L 768 184" stroke-miterlimit="10" stroke-dasharray="3"/></g><g transform="translate(-126,-14) scale(1,1)"><path fill="none" stroke="#000000" d="M 763.790482243984 173.83732514237585 L 768 184 L 772.209517756016 173.83732514237585" stroke-miterlimit="10"/></g><g transform="translate(-126,-14) scale(1,1)"><g><path fill="none" stroke="none"/><text fill="#000000" stroke="none" font-family="Arial" font-size="13px" font-style="normal" font-weight="normal" text-decoration="none" x="769.5" y="102.5">«include»</text></g></g><g transform="translate(-126,-14) scale(1,1)"><path fill="#C0C0C0" stroke="none" d="M 343 368 C 343 358.6111584 377.4740704 351 420 351 C 462.5259296 351 497 358.6111584 497 368 C 497 377.3888416 462.5259296 385 420 385 C 377.4740704 385 343 377.3888416 343 368 Z" opacity="0.2"/></g><g transform="translate(-126,-14) scale(1,1)"><path fill="#ffffff" stroke="none" d="M 336 361 C 336 351.6111584 370.4740704 344 413 344 C 455.5259296 344 490 351.6111584 490 361 C 490 370.3888416 455.5259296 378 413 378 C 370.4740704 378 336 370.3888416 336 361 Z"/></g><g transform="translate(-126,-14) scale(1,1)"><path fill="none" stroke="#000000" d="M 336 361 C 336 351.6111584 370.4740704 344 413 344 C 455.5259296 344 490 351.6111584 490 361 C 490 370.3888416 455.5259296 378 413 378 C 370.4740704 378 336 370.3888416 336 361 Z" stroke-miterlimit="10"/></g><g transform="translate(-126,-14) scale(1,1)"><g><path fill="none" stroke="none"/><text fill="#000000" stroke="none" font-family="Arial" font-size="13px" font-style="normal" font-weight="bold" text-decoration="none" x="368.328369140625" y="368">Research Work</text></g></g><g transform="translate(-126,-14) scale(1,1)"><path fill="#C0C0C0" stroke="none" d="M 607 304 C 607 294.6111584 649.0852288 287 701 287 C 752.9147712 287 795 294.6111584 795 304 C 795 313.3888416 752.9147712 321 701 321 C 649.0852288 321 607 313.3888416 607 304 Z" opacity="0.2"/></g><g transform="translate(-126,-14) scale(1,1)"><path fill="#ffffff" stroke="none" d="M 600 297 C 600 287.6111584 642.0852288 280 694 280 C 745.9147712 280 788 287.6111584 788 297 C 788 306.3888416 745.9147712 314 694 314 C 642.0852288 314 600 306.3888416 600 297 Z"/></g><g transform="translate(-126,-14) scale(1,1)"><path fill="none" stroke="#000000" d="M 600 297 C 600 287.6111584 642.0852288 280 694 280 C 745.9147712 280 788 287.6111584 788 297 C 788 306.3888416 745.9147712 314 694 314 C 642.0852288 314 600 306.3888416 600 297 Z" stroke-miterlimit="10"/></g><g transform="translate(-126,-14) scale(1,1)"><g><path fill="none" stroke="none"/><text fill="#000000" stroke="none" font-family="Arial" font-size="13px" font-style="normal" font-weight="bold" text-decoration="none" x="640.29248046875" y="304">Organization Work</text></g></g><g transform="translate(-126,-14) scale(1,1)"><path fill="#C0C0C0" stroke="none" d="M 607 368 C 607 358.6111584 646.3989376 351 695 351 C 743.6010624 351 783 358.6111584 783 368 C 783 377.3888416 743.6010624 385 695 385 C 646.3989376 385 607 377.3888416 607 368 Z" opacity="0.2"/></g><g transform="translate(-126,-14) scale(1,1)"><path fill="#ffffff" stroke="none" d="M 600 361 C 600 351.6111584 639.3989376 344 688 344 C 736.6010624 344 776 351.6111584 776 361 C 776 370.3888416 736.6010624 378 688 378 C 639.3989376 378 600 370.3888416 600 361 Z"/></g><g transform="translate(-126,-14) scale(1,1)"><path fill="none" stroke="#000000" d="M 600 361 C 600 351.6111584 639.3989376 344 688 344 C 736.6010624 344 776 351.6111584 776 361 C 776 370.3888416 736.6010624 378 688 378 C 639.3989376 378 600 370.3888416 600 361 Z" stroke-miterlimit="10"/></g><g transform="translate(-126,-14) scale(1,1)"><g><path fill="none" stroke="none"/><text fill="#000000" stroke="none" font-family="Arial" font-size="13px" font-style="normal" font-weight="bold" text-decoration="none" x="633.20703125" y="368">Management Work</text></g></g><g transform="translate(-126,-14) scale(1,1)"><path fill="#C0C0C0" stroke="none" d="M 311 304 C 311 294.6111584 352.6375136 287 404 287 C 455.3624864 287 497 294.6111584 497 304 C 497 313.3888416 455.3624864 321 404 321 C 352.6375136 321 311 313.3888416 311 304 Z" opacity="0.2"/></g><g transform="translate(-126,-14) scale(1,1)"><path fill="#ffffff" stroke="none" d="M 304 297 C 304 287.6111584 345.6375136 280 397 280 C 448.3624864 280 490 287.6111584 490 297 C 490 306.3888416 448.3624864 314 397 314 C 345.6375136 314 304 306.3888416 304 297 Z"/></g><g transform="translate(-126,-14) scale(1,1)"><path fill="none" stroke="#000000" d="M 304 297 C 304 287.6111584 345.6375136 280 397 280 C 448.3624864 280 490 287.6111584 490 297 C 490 306.3888416 448.3624864 314 397 314 C 345.6375136 314 304 306.3888416 304 297 Z" stroke-miterlimit="10"/></g><g transform="translate(-126,-14) scale(1,1)"><g><path fill="none" stroke="none"/><text fill="#000000" stroke="none" font-family="Arial" font-size="13px" font-style="normal" font-weight="bold" text-decoration="none" x="345.1015625" y="304">Instructional Work</text></g></g><g transform="translate(-126,-14) scale(1,1)"><path fill="#C0C0C0" stroke="none" d="M 615 432 C 615 422.6111584 640.0720512 415 671 415 C 701.9279488 415 727 422.6111584 727 432 C 727 441.3888416 701.9279488 449 671 449 C 640.0720512 449 615 441.3888416 615 432 Z" opacity="0.2"/></g><g transform="translate(-126,-14) scale(1,1)"><path fill="#ffffff" stroke="none" d="M 608 425 C 608 415.6111584 633.0720512 408 664 408 C 694.9279488 408 720 415.6111584 720 425 C 720 434.3888416 694.9279488 442 664 442 C 633.0720512 442 608 434.3888416 608 425 Z"/></g><g transform="translate(-126,-14) scale(1,1)"><path fill="none" stroke="#000000" d="M 608 425 C 608 415.6111584 633.0720512 408 664 408 C 694.9279488 408 720 415.6111584 720 425 C 720 434.3888416 694.9279488 442 664 442 C 633.0720512 442 608 434.3888416 608 425 Z" stroke-miterlimit="10"/></g><g transform="translate(-126,-14) scale(1,1)"><g><path fill="none" stroke="none"/><text fill="#000000" stroke="none" font-family="Arial" font-size="13px" font-style="normal" font-weight="bold" text-decoration="none" x="630.890625" y="432">Other Work</text></g></g><g transform="translate(-126,-14) scale(1,1)"><path fill="#C0C0C0" stroke="none" d="M 375 432 C 375 422.6111584 399.8481936 415 430.5 415 C 461.1518064 415 486 422.6111584 486 432 C 486 441.3888416 461.1518064 449 430.5 449 C 399.8481936 449 375 441.3888416 375 432 Z" opacity="0.2"/></g><g transform="translate(-126,-14) scale(1,1)"><path fill="#ffffff" stroke="none" d="M 368 425 C 368 415.6111584 392.8481936 408 423.5 408 C 454.1518064 408 479 415.6111584 479 425 C 479 434.3888416 454.1518064 442 423.5 442 C 392.8481936 442 368 434.3888416 368 425 Z"/></g><g transform="translate(-126,-14) scale(1,1)"><path fill="none" stroke="#000000" d="M 368 425 C 368 415.6111584 392.8481936 408 423.5 408 C 454.1518064 408 479 415.6111584 479 425 C 479 434.3888416 454.1518064 442 423.5 442 C 392.8481936 442 368 434.3888416 368 425 Z" stroke-miterlimit="10"/></g><g transform="translate(-126,-14) scale(1,1)"><g><path fill="none" stroke="none"/><text fill="#000000" stroke="none" font-family="Arial" font-size="13px" font-style="normal" font-weight="bold" text-decoration="none" x="390.996826171875" y="432">R&amp;D works</text></g></g><g transform="translate(-126,-14) scale(1,1)"><path fill="none" stroke="#000000" d="M 490 297 L 552 297 L 552 218" stroke-miterlimit="10"/></g><g transform="translate(-126,-14) scale(1,1)"><path fill="#FFFFFF" stroke="none" d="M 560.419035512032 238.3253497152483 L 552 218 L 543.580964487968 238.3253497152483"/></g><g transform="translate(-126,-14) scale(1,1)"><path fill="none" stroke="#000000" d="M 560.419035512032 238.3253497152483 L 552 218 L 543.580964487968 238.3253497152483 L 560.419035512032 238.3253497152483" stroke-miterlimit="10"/></g><g transform="translate(-126,-14) scale(1,1)"><path fill="none" stroke="#000000" d="M 490 361 L 552 361 L 552 218" stroke-miterlimit="10"/></g><g transform="translate(-126,-14) scale(1,1)"><path fill="#FFFFFF" stroke="none" d="M 560.419035512032 238.3253497152483 L 552 218 L 543.580964487968 238.3253497152483"/></g><g transform="translate(-126,-14) scale(1,1)"><path fill="none" stroke="#000000" d="M 560.419035512032 238.3253497152483 L 552 218 L 543.580964487968 238.3253497152483 L 560.419035512032 238.3253497152483" stroke-miterlimit="10"/></g><g transform="translate(-126,-14) scale(1,1)"><path fill="none" stroke="#000000" d="M 479 425 L 552 425 L 552 218" stroke-miterlimit="10"/></g><g transform="translate(-126,-14) scale(1,1)"><path fill="#FFFFFF" stroke="none" d="M 560.419035512032 238.3253497152483 L 552 218 L 543.580964487968 238.3253497152483"/></g><g transform="translate(-126,-14) scale(1,1)"><path fill="none" stroke="#000000" d="M 560.419035512032 238.3253497152483 L 552 218 L 543.580964487968 238.3253497152483 L 560.419035512032 238.3253497152483" stroke-miterlimit="10"/></g><g transform="translate(-126,-14) scale(1,1)"><path fill="none" stroke="#000000" d="M 600 296 L 552 296 L 552 218" stroke-miterlimit="10"/></g><g transform="translate(-126,-14) scale(1,1)"><path fill="#FFFFFF" stroke="none" d="M 560.419035512032 238.3253497152483 L 552 218 L 543.580964487968 238.3253497152483"/></g><g transform="translate(-126,-14) scale(1,1)"><path fill="none" stroke="#000000" d="M 560.419035512032 238.3253497152483 L 552 218 L 543.580964487968 238.3253497152483 L 560.419035512032 238.3253497152483" stroke-miterlimit="10"/></g><g transform="translate(-126,-14) scale(1,1)"><path fill="none" stroke="#000000" d="M 600 360 L 552 360 L 552 218" stroke-miterlimit="10"/></g><g transform="translate(-126,-14) scale(1,1)"><path fill="#FFFFFF" stroke="none" d="M 560.419035512032 238.3253497152483 L 552 218 L 543.580964487968 238.3253497152483"/></g><g transform="translate(-126,-14) scale(1,1)"><path fill="none" stroke="#000000" d="M 560.419035512032 238.3253497152483 L 552 218 L 543.580964487968 238.3253497152483 L 560.419035512032 238.3253497152483" stroke-miterlimit="10"/></g><g transform="translate(-126,-14) scale(1,1)"><path fill="none" stroke="#000000" d="M 608 424 L 552 424 L 552 218" stroke-miterlimit="10"/></g><g transform="translate(-126,-14) scale(1,1)"><path fill="#FFFFFF" stroke="none" d="M 560.419035512032 238.3253497152483 L 552 218 L 543.580964487968 238.3253497152483"/></g><g transform="translate(-126,-14) scale(1,1)"><path fill="none" stroke="#000000" d="M 560.419035512032 238.3253497152483 L 552 218 L 543.580964487968 238.3253497152483 L 560.419035512032 238.3253497152483" stroke-miterlimit="10"/></g></g></svg>